<svg width="1259" height="1259" viewBox="0 0 1259 1259" fill="none" xmlns="http://www.w3.org/2000/svg">
<circle cx="629.5" cy="629.5" r="629.5" fill="white" fill-opacity="0.2"/>
<circle cx="629.5" cy="629.5" r="373.99" fill="white" fill-opacity="0.2"/>
<circle cx="667.094" cy="549.748" r="168.809" transform="rotate(29.9019 667.094 549.748)" fill="white"/>
<circle cx="507.876" cy="516.834" r="118.795" transform="rotate(29.9019 507.876 516.834)" fill="white"/>
<circle cx="492.701" cy="677.535" r="159.833" transform="rotate(29.9019 492.701 677.535)" fill="white"/>
<circle cx="626.356" cy="785.956" r="132.474" transform="rotate(29.9019 626.356 785.956)" fill="white"/>
<circle cx="784.552" cy="672.62" r="131.034" transform="rotate(29.9019 784.552 672.62)" fill="white"/>
<circle cx="632.138" cy="631.48" r="182.872" transform="rotate(29.9019 632.138 631.48)" fill="white"/>
<path d="M552.711 597.781C552.711 589.917 559.129 583.542 567.047 583.542C574.964 583.542 581.382 589.917 581.382 597.781L581.382 642.668C581.382 650.532 574.964 656.906 567.047 656.906C559.129 656.906 552.711 650.532 552.711 642.668L552.711 597.781Z" fill="black"/>
<path d="M631.135 597.781C631.135 589.917 637.554 583.542 645.471 583.542C653.388 583.542 659.806 589.917 659.806 597.781L659.806 642.668C659.806 650.532 653.388 656.906 645.471 656.906C637.554 656.906 631.135 650.532 631.135 642.668L631.135 597.781Z" fill="black"/>
</svg>
