<svg width="1259" height="1259" viewBox="0 0 1259 1259" fill="none" xmlns="http://www.w3.org/2000/svg">
<g transform="translate(0, 200)">
<circle cx="629.5" cy="539.5" r="629.5" fill="white"/>
<circle cx="629.5" cy="539.5" r="373.99" fill="white" fill-opacity="0.2"/>
<circle cx="667.094" cy="459.748" r="168.809" transform="rotate(29.9019 667.094 459.748)" fill="white"/>
<circle cx="507.876" cy="426.834" r="118.795" transform="rotate(29.9019 507.876 426.834)" fill="white"/>
<circle cx="492.701" cy="587.535" r="159.833" transform="rotate(29.9019 492.701 587.535)" fill="white"/>
<circle cx="626.356" cy="695.956" r="132.474" transform="rotate(29.9019 626.356 695.956)" fill="white"/>
<circle cx="784.552" cy="582.62" r="131.034" transform="rotate(29.9019 784.552 582.62)" fill="white"/>
<circle cx="632.138" cy="541.48" r="182.872" transform="rotate(29.9019 632.138 541.48)" fill="white"/>
<path d="M572.95 629.74C585.265 638.424 620.571 650.939 663.268 631.522C705.965 612.106 717.908 578.106 718.543 563.533" stroke="black" stroke-width="16" stroke-linecap="round" stroke-linejoin="round"/>
<path d="M552.711 507.781C552.711 499.917 559.129 493.542 567.047 493.542C574.964 493.542 581.382 499.917 581.382 507.781L581.382 552.668C581.382 560.532 574.964 566.906 567.047 566.906C559.129 566.906 552.711 560.532 552.711 552.668L552.711 507.781Z" fill="black"/>
<path d="M631.135 507.781C631.135 499.917 637.554 493.542 645.471 493.542C653.388 493.542 659.806 499.917 659.806 507.781L659.806 552.668C659.806 560.532 653.388 566.906 645.471 566.906C637.554 566.906 631.135 560.532 631.135 552.668L631.135 507.781Z" fill="black"/>
</g>
</svg> 