<svg width="179" height="337" viewBox="0 0 179 337" fill="none" xmlns="http://www.w3.org/2000/svg">
<path fill-rule="evenodd" clip-rule="evenodd" d="M72.5804 296.863C80.4446 325.345 109.909 342.058 138.39 334.194C166.872 326.33 183.585 296.866 175.721 268.385L141.758 145.381C141.488 144.214 141.172 142.969 140.805 141.642C134.843 120.049 141.579 95.4384 145.725 80.2888C149.107 67.9335 150.766 61.8711 142.41 68.8711C127.53 81.3377 119.952 67.5718 118.023 59.1305L118.028 59.4404L117.965 59.2118C110.101 30.7303 80.6365 14.0168 52.1551 21.881C23.6736 29.7452 6.96003 59.2092 14.8243 87.6906L72.5804 296.863Z" fill="#EEEEEE"/>
<g clip-path="url(#clip0_405_190)">
<g clip-path="url(#clip1_405_190)">
<path d="M97.6989 -14.8196L99.9132 -15.4336C102.64 -16.1897 101.409 -20.6285 98.6823 -19.8724C62.0809 -9.70087 25.4796 0.470612 -11.1218 10.6421C-13.8486 11.3982 -12.6206 15.8267 -9.89097 15.0809C25.6169 5.34508 61.1219 -4.40094 96.6298 -14.1367C97.1116 -14.2703 97.4511 -14.519 97.7092 -14.8224L97.6989 -14.8196Z" fill="#75DBD4"/>
<path d="M104.597 15.4696C105.011 15.3326 105.323 15.1027 105.559 14.8385C106.404 14.5821 107.249 14.3257 108.097 14.0795C110.799 13.2749 109.579 8.8333 106.866 9.6407C71.7196 20.0822 36.8966 31.571 2.43068 44.1089C-0.19544 45.0689 0.948323 49.4325 3.66153 48.5477L104.6 15.4799L104.597 15.4696Z" fill="#75DBD4"/>
<path d="M111.697 31.4396C110.087 31.8859 108.477 32.2884 106.864 32.7244C106.812 31.3811 105.724 30.0048 104.103 30.4101C72.4278 38.3214 40.76 46.2196 9.08468 54.1309C6.29695 54.8266 7.57347 59.032 10.3155 58.5697C44.8702 52.6419 79.1015 45.0706 112.93 35.8887C115.66 35.1428 114.432 30.7143 111.7 31.4499L111.697 31.4396Z" fill="#75DBD4"/>
<path d="M128.895 71.5236C131.621 70.7675 130.391 66.3287 127.664 67.0848C121.985 68.6596 116.21 69.9297 110.397 71.0228C113.923 69.7249 117.43 68.3991 120.929 67.0425C123.541 66.0312 122.341 61.5839 119.698 62.6038C108.274 67.03 96.755 71.1516 85.1356 74.9918C62.0358 78.3173 39.0106 81.8318 18.4166 93.6362C16.1958 94.9034 17.8303 98.3691 20.1886 97.8366C42.6826 92.7251 64.909 86.5288 86.7913 79.2907C101.005 77.2813 115.235 75.3333 128.895 71.5236Z" fill="#75DBD4"/>
<path d="M136.459 125.794C137.719 125.522 138.935 125.45 139.738 125.956C142.206 127.491 144.329 123.524 141.862 121.989C139.061 120.249 136.304 121.256 133.371 122.025C128.57 123.301 123.776 124.564 118.974 125.841C109.378 128.38 99.7856 130.93 90.1899 133.469C71.0015 138.558 51.813 143.647 32.6143 148.739C29.879 149.465 31.103 153.839 33.8452 153.178C67.5615 144.944 101.275 136.699 135.001 128.462C136.356 128.13 136.742 126.897 136.459 125.794Z" fill="#75DBD4"/>
<path d="M136.459 125.794C137.719 125.522 138.935 125.45 139.738 125.956C142.206 127.491 144.329 123.524 141.862 121.989C139.061 120.249 136.304 121.256 133.371 122.025C128.57 123.301 123.776 124.564 118.974 125.841C109.378 128.38 99.7856 130.93 90.1899 133.469C71.0015 138.558 51.813 143.647 32.6143 148.739C29.8789 149.465 31.103 153.839 33.8451 153.178C67.5614 144.944 101.275 136.699 135.001 128.462C136.356 128.13 136.742 126.897 136.459 125.794Z" fill="#75DBD4"/>
<path d="M143.501 148.084C144.282 147.834 144.724 147.281 144.902 146.647C145.096 146.593 145.281 146.541 145.476 146.487C148.197 145.711 146.969 141.282 144.245 142.049C110.616 151.594 76.9904 161.151 43.3618 170.696C40.6304 171.476 41.842 175.765 44.5927 175.135C77.9129 167.463 110.912 158.434 143.501 148.084Z" fill="#75DBD4"/>
<path d="M155.395 176.049C154.917 175.32 154.103 174.851 153.066 175.094C134.589 179.522 116.108 183.94 97.6205 188.371C79.7842 192.644 61.5446 196.178 44.7489 203.805C42.4246 204.858 44.2075 208.581 46.5209 208.006C83.2226 198.833 119.914 189.663 156.613 180.48C159.36 179.796 158.132 175.367 155.382 176.042L155.395 176.049Z" fill="#75DBD4"/>
<path d="M158.882 193.044C158.81 193.064 158.739 193.084 158.677 193.101C158.384 193.039 158.057 193.052 157.705 193.138L45.4435 223.23C42.711 223.966 43.939 228.395 46.6744 227.669C84.4863 217.604 122.301 207.548 160.113 197.483C162.848 196.757 161.618 192.319 158.882 193.044Z" fill="#75DBD4"/>
<path d="M167.725 229.351C170.391 228.457 169.184 224.023 166.494 224.912C158.824 227.47 151.13 229.901 143.392 232.213C142.932 231.866 142.349 231.674 141.67 231.774C114.384 235.807 87.6321 242.563 61.7115 251.959C59.0444 252.93 60.1576 256.905 62.9424 256.398C98.4636 249.815 133.471 240.782 167.735 229.348L167.725 229.351Z" fill="#75DBD4"/>
<path d="M146.492 259.194C154.193 257.346 161.939 255.662 169.739 254.172C171.249 253.886 171.576 252.437 171.108 251.264C173.437 250.508 175.779 249.759 178.109 249.003C180.794 248.137 179.594 243.69 176.898 244.558C166.359 247.956 155.82 251.353 145.281 254.75C120.371 260.741 95.9571 268.604 72.1968 278.306C69.6475 279.344 70.6501 283.636 73.4071 282.75C97.7696 274.902 122.129 267.043 146.492 259.194Z" fill="#75DBD4"/>
<path d="M184.881 283.18C185.109 281.693 183.977 279.92 182.171 280.454C148.903 290.265 115.635 300.075 82.3637 309.875C79.6482 310.672 80.8592 315.039 83.5945 314.314C117.303 305.375 151.004 296.449 184.713 287.51C186.912 286.922 186.547 283.933 184.892 283.177L184.881 283.18Z" fill="#75DBD4"/>
<path d="M194.242 306.505C196.941 305.69 195.723 301.259 193.011 302.066C190.811 302.731 188.615 303.373 186.412 304.028C186.177 304.016 185.937 304.027 185.681 304.098C151.709 313.441 117.724 322.777 83.7523 332.12C81.0255 332.876 82.2364 337.243 84.9831 336.559C121.631 327.39 158.063 317.365 194.252 306.502L194.242 306.505Z" fill="#75DBD4"/>
<path d="M103.136 373.917C136.122 363.169 169.098 352.424 202.085 341.676C204.767 340.8 203.609 336.584 200.854 337.238C166.103 345.483 131.921 355.9 98.4589 368.435C95.8282 369.419 97.0386 373.863 99.6898 372.874C99.9785 372.761 100.28 372.655 100.572 372.552C100.931 373.568 101.864 374.346 103.139 373.927L103.136 373.917Z" fill="#75DBD4"/>
</g>
</g>
<path d="M133.005 90.686C133.181 90.6041 133.37 90.5296 133.546 90.4477C134.418 90.0512 134.718 89.3389 134.647 88.6077C136.02 87.1893 134.8 84.0614 132.478 84.7272C127.569 86.1326 122.636 87.4897 117.706 88.8234C86.1004 94.7946 54.7324 101.903 23.6435 110.138C20.8774 110.871 22.1306 115.072 24.8744 114.576C47.6197 110.411 70.2213 105.568 92.6586 100.052C92.7992 101.316 93.8749 102.607 95.4319 102.33C108.429 99.9956 120.95 96.0601 133.002 90.6758L133.005 90.686Z" fill="#75DBD4"/>
<defs>
<clipPath id="clip0_405_190">
<rect x="86.8198" y="348.434" width="324" height="107" rx="53.5" transform="rotate(-105.436 86.8198 348.434)" fill="white"/>
</clipPath>
<clipPath id="clip1_405_190">
<rect width="475.797" height="125.454" fill="white" transform="translate(85.4419 -94.0957) rotate(74.5015)"/>
</clipPath>
</defs>
</svg>
