<svg width="564" height="350" viewBox="0 0 564 350" fill="none" xmlns="http://www.w3.org/2000/svg">
<path fill-rule="evenodd" clip-rule="evenodd" d="M39.5598 73.2353C17.7115 76.5037 2.64959 96.8648 5.91803 118.713L24.5598 243.326C27.8283 265.175 48.1894 280.237 70.0376 276.968L158.033 263.804C172.54 266.436 184.24 282.25 144.731 346.5C141.015 353.792 146.754 347.977 158.527 336.05C182.649 311.612 232.101 261.513 277.424 245.944L520.03 209.651C541.878 206.382 556.94 186.021 553.672 164.173L535.03 39.5594C531.762 17.7112 511.401 2.64925 489.552 5.91768L39.5598 73.2353Z" fill="#EEEEEE"/>
<g clip-path="url(#clip0_405_65)">
<g clip-path="url(#clip1_405_65)">
<path d="M112.939 -93.1461C93.9758 -98.7339 79.3511 -89.8064 68.9717 -76.1841C66.2739 -76.7433 62.9478 -75.5236 62.1188 -72.0985C61.1667 -68.3455 60.3122 -64.4009 59.5736 -60.3703C56.6322 -54.0503 54.3367 -47.5517 52.7361 -41.4666C51.7554 -37.675 54.6995 -34.7799 57.6514 -34.3619C58.7085 -16.9487 65.6957 -1.28225 85.0971 5.85613C109.596 14.8797 145.876 5.39468 152.906 -22.3407C159.613 -48.7897 139.528 -85.3292 112.973 -93.1511L112.939 -93.1461ZM142.781 -24.9523C137 -1.97712 103.483 4.13722 84.6027 -5.72683C65.0512 -15.9375 65.6564 -38.104 69.4261 -57.5116C76.7417 -73.2201 88.6587 -87.1412 107.453 -83.832C130.24 -79.8135 148.16 -46.2511 142.815 -24.9574L142.781 -24.9523Z" fill="#75DBD4"/>
<path d="M383.787 -47.802C384.283 -52.9997 376.095 -55.7637 373.775 -50.1211C367.117 -33.9263 363.958 -11.5842 380.258 0.110219C393.976 9.95565 413.963 5.14319 425.325 -6.04718C454.737 -34.9989 402.022 -68.2388 383.782 -47.8357L383.787 -47.802ZM406.853 -6.51606C397.549 -3.40499 386.907 -4.87338 381.557 -13.7355C377.895 -19.8242 377.938 -27.1205 379.504 -34.1289C381.736 -31.1618 388.036 -31.5884 389.192 -36.5066C393.129 -53.1883 418.282 -39.7924 422.501 -30.2109C427.254 -19.3681 416.218 -9.67082 406.886 -6.52109L406.853 -6.51606Z" fill="#75DBD4"/>
<path d="M242.844 4.26403C225.314 -0.712851 212.842 5.58876 204.11 16.6607C202.531 15.7621 200.53 15.7177 198.697 17.2641C179.048 33.9925 182.765 74.0122 199.856 91.2275C223.063 114.611 254.884 90.4916 267.977 68.1075C282.602 43.0872 271.258 12.3237 242.849 4.29767L242.844 4.26403ZM260.078 60.8302C251.307 77.6162 225.827 101.819 207.603 84.1541C201.086 77.8391 196.698 65.979 195.966 54.1908C197.64 54.1124 199.144 53.1309 199.745 50.9433C204.14 34.3308 210.933 12.3733 232.033 12.9305C256.79 13.5596 271.362 39.2325 260.078 60.8302Z" fill="#75DBD4"/>
<path d="M-12.1167 -45.9325C-26.8148 -49.6825 -45.2103 -49.4064 -57.072 -38.7947C-59.6499 -36.4834 -61.8311 -33.8189 -63.7129 -30.9928C-77.2422 -30.3787 -83.1548 -14.9488 -87.0907 -4.00975C-92.2223 10.2029 -92.4047 23.4689 -84.572 36.7394C-70.9404 59.802 -42.9668 74.1171 -16.2416 69.7408C9.54671 65.5391 30.8182 43.1007 33.9583 17.1851C37.5171 -12.3692 15.781 -38.7929 -12.1503 -45.9275L-12.1167 -45.9325ZM14.1807 39.2625C-1.77004 60.9393 -30.1153 65.5236 -53.2956 52.8986C-65.4626 46.2941 -77.8508 33.8427 -80.3055 19.7333C-81.6445 12.1623 -77.988 -6.16238 -70.7257 -15.3295C-72.2805 -10.3173 -73.4737 -5.18716 -74.5574 -0.245351C-75.9867 6.29553 -65.6542 7.5351 -64.2485 1.06652C-61.6883 -10.5608 -58.5533 -24.7842 -48.5146 -32.4067C-36.4366 -41.5722 -16.2513 -38.1617 -3.58623 -31.9068C23.4525 -18.5523 32.0198 15.0337 14.2143 39.2575L14.1807 39.2625Z" fill="#75DBD4"/>
<path d="M95.3702 58.2021C77.4931 50.2167 49.207 54.2763 46.4306 75.4953C36.3175 91.5879 35.3828 113.391 52.1123 126.121C70.0794 139.767 99.8788 129.498 111.59 112.135C124.989 92.2494 116.639 67.7088 95.3366 58.2071L95.3702 58.2021ZM96.0321 113.671C84.7348 122.307 64.5562 126.529 54.5584 113.961C47.9514 105.665 48.277 95.8852 52.0252 87.1405C54.7032 86.8775 57.2154 84.8167 56.8082 81.4046C56.6824 80.5638 56.6676 79.7751 56.6579 79.0201C57.8545 77.3625 59.1336 75.7957 60.4665 74.3584C62.2722 72.4033 62.0225 70.2743 60.8239 68.7C69.5354 61.1728 89.6244 65.3199 98.1481 71.7129C112.715 82.6349 109.589 103.356 96.0708 113.7L96.0321 113.671Z" fill="#75DBD4"/>
<path d="M374.915 59.1247C367.143 47.1861 352.801 44.8958 340.041 48.3521C341.845 43.8528 336.463 38.2277 332.207 42.1998C321.037 52.6049 313.737 71.4059 322.015 85.8133C329.645 99.1139 353.093 99.7325 365.643 94.1759C379.511 88.0093 382.997 71.5326 374.953 59.1533L374.915 59.1247ZM358.38 85.6343C350.052 87.9116 334.518 88.0003 330.534 79.0714C328.049 73.4944 328.623 67.2189 330.939 61.5427C332.097 62.1602 333.551 62.2179 335.114 61.3995C343.437 57.0252 355.154 54.4128 363.083 61.2041C372.078 68.9022 370.112 82.4349 358.346 85.6393L358.38 85.6343Z" fill="#75DBD4"/>
<path d="M527.671 10.3801C513.819 -0.133001 459.893 -15.4828 462.532 15.7233C462.584 16.3001 462.693 16.7996 462.898 17.2503C459.378 22.6941 457.585 29.5644 456.78 36.5966C455.046 51.6764 454.112 68.4247 462.062 82.0214C469.642 94.9858 482.658 99.6752 497.122 99.3338C511.005 99.0107 527.494 97.0255 537.658 86.5645C556.147 67.6026 547.229 25.2319 527.671 10.3801ZM526.928 81.9801C513.447 91.4243 483.34 93.6587 472.667 79.3346C465.779 70.0835 465.622 57.7624 466.382 46.7483C467.069 36.3984 467.055 19.5169 480.111 17.1168C484.998 16.2138 485.449 10.2662 482.604 7.80332C483.114 7.76146 483.561 7.7633 483.975 7.77017C486.111 7.79446 488.337 8.18367 490.48 8.48206C494.476 8.98456 498.459 9.62664 502.376 10.5192C511.425 12.6042 520.826 16.3557 526.759 23.8241C537.673 37.4588 543.302 70.4871 526.928 81.9801Z" fill="#75DBD4"/>
<path d="M21.0273 141.363C10.3362 133.128 -6.44086 132.955 -15.0979 142.916C-26.3553 152.509 -26.6572 169.575 -16.975 180.953C-6.3766 193.397 11.7896 194.118 23.2498 182.431C34.954 170.536 34.4795 151.729 21.0273 141.363ZM13.9621 176.909C-0.675436 188.28 -17.5003 170.543 -12.5187 156.938C-11.2704 156.545 -10.1699 155.623 -9.59392 153.955C-9.14085 152.615 -8.55666 151.462 -7.88002 150.467C-7.14804 149.841 -6.37738 149.245 -5.49572 148.7C-4.61407 148.156 -4.06036 147.488 -3.71859 146.784C9.33898 140.257 34.2045 161.158 13.9621 176.909Z" fill="#75DBD4"/>
<path d="M168.174 119.728C153.752 119.204 143.326 132.283 143.776 145.867C143.804 147.204 144.263 148.201 144.95 148.889C144.854 157.672 151.568 166.227 161.08 168.414C174.691 171.57 189.406 161.632 191.489 147.738C193.549 133.916 182.144 120.217 168.174 119.728ZM181.365 143.751C181.664 150.583 175.761 157.106 169.251 158.424C160.674 160.188 150.613 151.79 157.863 143.691C160.365 140.875 158.824 137.701 156.212 136.338C162.554 126.999 180.727 129.37 181.365 143.751Z" fill="#75DBD4"/>
<path d="M129.718 228.021C114.306 213.064 82.4078 204.013 66.281 220.833C45.0196 227.934 27.1422 239.721 26.8399 265.521C26.6829 278.268 28.5789 293.011 36.9781 303.171C44.8293 312.656 57.6006 318.241 69.2764 321.103C95.3897 327.581 124.478 319.687 138.469 295.484C151.123 273.613 147.919 245.758 129.689 228.059L129.718 228.021ZM104.975 310.26C81.1128 318.369 44.3547 309.254 38.6948 281.766C36.1402 269.288 35.506 254.012 44.6391 244.015C48.986 239.273 54.5888 236.028 60.6152 233.544C62.4068 236.784 68.1474 237.679 70.2015 233.245C70.8228 231.88 71.6038 230.662 72.5059 229.565C74.2538 229.063 75.9731 228.599 77.6924 228.136C80.1705 227.455 81.4615 225.509 81.7416 223.472C89.0631 221.139 97.9357 222.047 104.725 224.435C116.515 228.517 126.748 237.371 132.023 248.72C143.096 272.613 129.558 301.906 105.009 310.255L104.975 310.26Z" fill="#75DBD4"/>
<path d="M321.777 186.645C308.047 168.445 283.582 166.088 265.949 177.666C241.119 179.077 233.294 212.536 240.353 233.281C249.213 259.395 287.316 263.014 308.475 250.633C330.9 237.513 337.559 207.529 321.777 186.645ZM306.972 239.201C293.598 249.592 263.93 251.314 253.111 236.014C245.477 225.224 246.147 201.879 256.75 192.281C258.746 194.355 262.426 195.042 264.851 192.169C266.135 190.636 267.584 189.285 269.087 188.063C269.573 188.093 270.059 188.124 270.584 188.183C273.954 188.641 275.93 186.214 276.226 183.591C288.894 177.913 304.449 180.95 313.665 193.12C324.637 207.605 321.178 228.17 307.005 239.196L306.972 239.201Z" fill="#75DBD4"/>
<path d="M387.087 144.404C377.246 143.916 368.997 147.867 363.236 154.196C362.08 154.059 360.827 154.419 359.674 155.451C344.392 168.947 344.85 193.396 362.337 204.981C380.472 216.986 404.672 208.379 412.827 188.625C420.94 169.049 409.235 145.526 387.092 144.437L387.087 144.404ZM403.155 184.673C397.954 197.04 383.729 203.81 371.212 198.083C366.927 196.111 363.712 193.015 361.653 189.369C364.055 188.872 366.068 186.92 365.398 183.823C362.63 171.067 368.798 156.424 383.153 154.896C399.639 153.117 409.248 170.214 403.16 184.707L403.155 184.673Z" fill="#75DBD4"/>
<path d="M547.233 174.021C535.81 162.732 514.145 156.792 499.596 163.232C475.374 167.097 455.024 193.627 465.25 217.611C476.757 244.637 512.532 249.016 536.665 237.428C561.632 225.441 567.13 193.671 547.266 174.016L547.233 174.021ZM522.351 231.42C504.814 235.591 482.548 231.838 474.773 213.436C469.495 200.918 475.667 188.372 485.763 180.672C485.552 181.563 485.414 182.478 485.281 183.427C484.381 190.06 494.685 191.338 495.59 184.738C496.292 179.544 498.298 175.943 501.117 173.63C502.986 173.247 504.851 173.071 506.703 173.035C508.969 173.006 510.27 171.814 510.755 170.228C523.827 169.545 541.218 179.804 546.168 189.895C555.89 209.588 541.489 226.907 522.323 231.459L522.351 231.42Z" fill="#75DBD4"/>
<path d="M370.987 265.102C350.082 257.569 318.671 263.506 304.641 282.385C283.573 296.988 282.464 326.588 297.932 345.834C313.532 365.267 340.099 372.021 363.593 364.896C385.962 358.077 402.526 338.887 402.856 315.111C403.136 293.991 391.463 272.526 370.953 265.107L370.987 265.102ZM386.758 335.572C374.592 355.651 346.189 362.376 325.17 353.623C304.079 344.846 290.097 318.294 302.117 299.543C304.598 300.72 307.727 300.252 308.773 296.897C309.607 294.194 310.889 291.732 312.443 289.471C313.247 288.869 313.757 288.14 313.993 287.417C327.548 270.878 358.912 267.389 375.514 279.038C392.802 291.135 397.543 317.763 386.758 335.572Z" fill="#75DBD4"/>
<path d="M528.768 283.277C516.42 274.087 502.488 277.065 491.697 285.178C490.034 283.948 487.79 283.665 485.709 285.386C474.473 294.666 472.833 313.136 484.138 323.171C496.158 333.855 519.034 334.559 531.189 323.835C543.343 313.11 541.502 292.754 528.768 283.277ZM522.966 317.156C515.1 322.975 501.075 322.116 493.084 316.984C488.059 313.747 486.131 307.984 487.048 302.62C488.381 302.558 489.705 301.981 490.74 300.623C497.691 291.674 507.833 284.518 519.491 289.789C530.223 294.613 532.695 309.992 523 317.151L522.966 317.156Z" fill="#75DBD4"/>
</g>
</g>
<defs>
<clipPath id="clip0_405_65">
<rect x="0.0445557" y="79.4512" width="534.825" height="205.797" rx="40" transform="rotate(-8.50819 0.0445557 79.4512)" fill="white"/>
</clipPath>
<clipPath id="clip1_405_65">
<rect width="758.984" height="729.739" fill="white" transform="translate(-134.714 -276.136) rotate(-8.50819)"/>
</clipPath>
</defs>
</svg>
