<svg width="127" height="127" viewBox="0 0 127 127" fill="none" xmlns="http://www.w3.org/2000/svg">
<g clip-path="url(#clip0_405_13)">
<circle cx="63.1535" cy="64.089" r="63.1205" transform="rotate(0.0299096 63.1535 64.089)" fill="#FF5A00"/>
<path d="M34.5876 7.41547C21.2901 27.811 9.0564 48.8833 -2.15784 70.5422C-6.10277 78.168 5.24445 84.9815 9.2337 77.3106C20.4479 55.6517 32.726 34.5794 45.9792 14.1388C50.6776 6.91912 39.2861 0.195823 34.5876 7.37034V7.41547Z" fill="#FF9F00"/>
<path d="M68.8952 -0.571448C57.6367 23.2082 46.3781 46.9879 35.1196 70.7676C31.4406 78.5287 42.8321 85.2972 46.5111 77.536C57.7697 53.7564 69.0282 29.9767 80.2868 6.19697C83.9658 -1.56415 72.5742 -8.33256 68.8952 -0.571448Z" fill="#FF9F00"/>
<path d="M86.8912 42.1143C77.2283 53.756 69.0725 66.3452 62.6897 80.1077C61.4043 82.8602 62.0248 85.4773 63.4875 87.3724C60.6064 85.1614 56.3955 85.0712 54.5339 89.3578C49.8354 100.142 45.137 110.927 40.4385 121.756C37.0255 129.562 48.3727 136.421 51.8301 128.524C56.5285 117.74 61.227 106.956 65.9254 96.1263C67.1222 93.3738 66.4573 90.7115 64.9503 88.8164C67.8314 91.0274 72.0866 91.1176 74.0369 86.8761C79.9321 74.1515 87.2458 62.3293 96.1994 51.5901C101.651 45.0473 92.3875 35.5264 86.8912 42.1143Z" fill="#FF9F00"/>
<path d="M14.3311 84.3046C12.5137 91.0278 9.76559 97.1194 6.04229 102.94C1.43248 110.205 12.824 116.928 17.4338 109.709C21.7334 102.985 24.9691 95.5852 27.0524 87.8693C29.3129 79.5215 16.636 76.002 14.3311 84.3046Z" fill="#FF9F00"/>
<path d="M116.678 69.3686C110.96 79.6566 105.242 89.9446 99.5682 100.233C95.4016 107.768 106.749 114.536 110.96 107.001C116.678 96.713 122.396 86.425 128.069 76.137C132.236 68.6015 120.889 61.8331 116.678 69.3686Z" fill="#FF9F00"/>
</g>
<defs>
<clipPath id="clip0_405_13">
<rect y="0.935547" width="126.307" height="126.307" rx="63.1535" fill="white"/>
</clipPath>
</defs>
</svg>
