<svg width="242" height="434" viewBox="0 0 242 434" fill="none" xmlns="http://www.w3.org/2000/svg">
<path fill-rule="evenodd" clip-rule="evenodd" d="M153.604 217.035C157.135 224.621 164.7 231.931 176.611 221.225C184.718 213.939 183.271 220.055 180.321 232.521C176.981 246.638 171.713 268.897 176.214 289.054L200.183 365.404C209.033 393.595 193.355 423.622 165.164 432.472C136.973 441.323 106.946 425.644 98.0956 397.453L2.24791 92.1448C-6.6022 63.9541 9.07643 33.9267 37.2671 25.0765C65.4578 16.2264 95.4853 31.9051 104.335 60.0957L153.604 217.035Z" fill="#FF0084"/>
<g clip-path="url(#clip0_405_5)">
<path d="M-25.1014 129.138C-26.2188 135.13 -22.9857 140.189 -17.5593 142.829C-14.7125 144.221 -11.7356 143.419 -9.01318 144.401C-0.261607 147.439 -3.38011 153.859 -6.64161 160.038C-9.21976 164.905 -3.79282 169.839 0.793812 169.328C12.2542 168.109 29.2396 166.086 35.1904 178.553C37.0496 182.469 37.4234 186.247 36.7654 189.883C20.0035 191.166 -0.516916 199.025 -10.5268 210.655C-15.8579 216.859 -17.2231 225.852 -10.8761 231.936C-4.78392 237.765 4.76217 236.446 11.9461 233.449C24.8847 228.09 38.8351 217.18 45.9297 203.754C64.9485 206.375 69.6946 223.323 66.3856 239.377C58.5611 240.491 50.8922 243.009 43.9136 246.963C32.2494 253.596 5.84595 273.402 11.0829 289.753C17.8373 310.803 47.7327 286.827 56.0842 279.939C65.374 272.25 73.1096 262.746 77.613 252.005C90.1739 252.351 102.145 257.757 110.277 269.192C115.786 276.966 117.335 284.443 116.274 291.46C106.815 292.506 97.4057 295.142 88.5811 298.636C73.2436 304.692 49.1197 318.239 60.1562 338.461C70.8942 358.057 93.3577 340.334 105.046 331.438C114.355 324.345 122.693 315.276 127.172 304.759C128.384 304.809 129.565 304.883 130.771 304.989C156.545 307.962 173.12 331.348 162.106 354.843C154.835 356.584 147.719 358.966 140.958 361.981C132.469 365.767 121.382 370.511 116.518 378.89C113.405 384.235 112.953 391.122 118.274 395.223C125.97 401.145 136.895 394.798 144.029 390.975C154.717 385.224 164.343 377.062 170.916 367.061C171.842 366.88 172.712 366.694 173.663 366.545C189.542 364.031 208.66 364.992 210.206 385.266C211.409 401.226 199.423 414.591 189.892 425.991C184.182 432.804 195.377 440.869 201.056 434.082C214.856 417.634 229.532 397.377 222.136 374.698C215.606 354.692 196.382 350.351 177.811 352.112C178.73 348.93 179.351 345.629 179.593 342.174C181.104 321.645 168.652 304.238 150.278 296.055C143.913 293.197 137.287 291.669 130.55 291.147C130.779 288.058 130.704 284.907 130.156 281.675C125.88 255.379 104.522 240.92 81.2148 238.928C81.8477 234.496 81.9585 229.922 81.3794 225.186C79.2188 207.902 67.0898 193.956 50.3455 190.484C50.7799 187.333 50.8226 184.139 50.3371 180.857C47.1687 159.893 28.3917 154.837 10.3182 154.926C11.7838 149.625 12.087 144.081 9.68685 139.171C8.18211 136.144 5.6458 133.739 2.63734 132.273C1.29473 131.614 -11.0305 128.888 -11.3657 130.634C-9.74555 121.895 -23.4564 120.43 -25.0704 129.113L-25.1014 129.138ZM87.3135 326.922C85.0578 328.371 80.5465 332.287 78.1413 332.53C72.4609 333.202 70.4274 328.304 73.0305 323.723C76.4723 317.707 86.2106 314.399 92.3816 311.856C98.0181 309.537 103.928 307.559 109.963 306.247C104.309 314.34 95.8021 321.352 87.3197 326.866L87.3135 326.922ZM56.1046 260.859C53.2837 264.085 26.0353 285.127 25.4818 283.225C24.8598 281.174 32.2168 274.063 33.764 272.366C39.0703 266.641 45.4396 261.544 52.35 257.95C55.0533 256.552 57.8125 255.414 60.6091 254.45C59.2485 256.762 57.7636 258.919 56.1108 260.803L56.1046 260.859ZM13.2413 216.917C11.5013 218.054 1.19821 224.669 -0.536392 222.183C-2.95487 218.715 10.8972 212.523 12.5751 211.69C17.2731 209.408 22.2758 207.189 27.4339 205.609C22.9415 210.122 17.672 213.983 13.2164 216.886L13.2413 216.917Z" fill="#F4CDCF"/>
<g clip-path="url(#clip1_405_5)">
<path d="M-5.12351 -30.2961C-5.82149 -23.4905 -1.7388 -18.1293 4.57478 -15.6751C7.88766 -14.3804 11.1439 -15.552 14.2798 -14.7047C24.3497 -12.1123 21.4526 -4.64238 18.3733 2.56964C15.9375 8.25155 22.463 13.2713 27.5469 12.2779C40.2548 9.85763 59.0696 6.03067 66.8749 19.4288C69.3154 23.6375 70.0816 27.8303 69.6805 31.9583C51.0478 34.9373 28.8162 45.6192 18.6899 59.5515C13.2976 66.9823 12.5989 77.1689 20.2595 83.39C27.6115 89.3495 38.1689 86.9946 45.9293 82.9805C59.9096 75.7933 74.5104 62.3039 81.2101 46.6313C102.727 47.8104 109.598 66.3326 107.375 84.5969C98.7245 86.5635 90.3776 90.087 82.9351 95.153C70.4977 103.648 42.7856 128.236 50.1502 146.045C59.6454 168.971 90.8796 139.396 99.5876 130.921C109.271 121.463 117.049 110.119 121.098 97.6889C135.181 96.9192 149.071 101.863 159.222 113.906C166.1 122.096 168.522 130.317 167.981 138.265C157.496 140.305 147.213 144.122 137.663 148.843C121.063 157.031 95.3248 174.407 109.534 196.013C123.351 216.944 146.848 195.049 159.104 184.021C168.864 175.229 177.356 164.315 181.398 152.138C182.758 152.082 184.086 152.056 185.444 152.063C214.552 153.015 235.248 177.649 225.091 204.947C217.117 207.564 209.377 210.884 202.091 214.88C192.943 219.897 180.978 226.225 176.308 236.047C173.319 242.313 173.447 250.059 179.777 254.156C188.932 260.072 200.568 251.965 208.197 247.031C219.624 239.614 229.64 229.596 236.072 217.803C237.091 217.516 238.047 217.227 239.097 216.972C256.629 212.698 278.104 212.012 281.701 234.549C284.517 252.293 272.34 268.347 262.728 281.978C256.968 290.125 270.235 298.117 275.962 290C289.885 270.33 304.435 246.317 294.074 221.628C284.925 199.85 263.02 196.764 242.408 200.445C243.143 196.8 243.533 193.051 243.485 189.163C243.285 166.059 227.751 147.733 206.443 140.272C199.06 137.661 191.507 136.562 183.922 136.6C183.894 133.123 183.52 129.605 182.609 126.04C175.404 97.0173 150.179 82.8091 123.922 82.728C124.222 77.7122 123.925 72.5848 122.841 67.3402C118.831 48.2039 103.979 33.7211 84.9275 31.3796C85.1231 27.8145 84.8767 24.2368 84.0312 20.6106C78.5558 -2.54876 57.0848 -6.47563 36.8748 -4.71052C38.0259 -10.7765 37.8544 -17.0063 34.7171 -22.2775C32.755 -25.5247 29.6962 -27.9814 26.1956 -29.3446C24.633 -29.9577 10.5941 -31.8727 10.38 -29.888C11.3873 -39.8131 -4.08547 -40.1887 -5.09104 -30.3268L-5.12351 -30.2961ZM138.851 180.602C136.461 182.431 131.775 187.227 129.107 187.72C122.814 188.995 120.088 183.704 122.578 178.34C125.874 171.292 136.463 166.694 143.132 163.281C149.224 160.168 155.653 157.411 162.283 155.388C156.704 164.962 147.834 173.589 138.853 180.539L138.851 180.602ZM97.8528 109.574C94.9943 113.443 66.4509 139.493 65.6564 137.416C64.7717 135.179 72.3467 126.546 73.9211 124.505C79.3298 117.612 85.9854 111.323 93.3847 106.667C96.2799 104.853 99.2618 103.326 102.301 101.99C100.992 104.702 99.53 107.252 97.8546 109.511L97.8528 109.574ZM45.8552 64.3666C44.0135 65.7995 33.0971 74.148 30.9277 71.527C27.9028 67.8705 42.8281 59.6673 44.6284 58.5808C49.6738 55.5956 55.0656 52.6519 60.6904 50.4099C56.0806 55.8722 50.5414 60.6761 45.8245 64.3342L45.8552 64.3666Z" fill="#F4CDCF"/>
</g>
</g>
<defs>
<clipPath id="clip0_405_5">
<rect x="114.092" y="449.473" width="427.922" height="107.319" rx="53.6596" transform="rotate(-107.429 114.092 449.473)" fill="white"/>
</clipPath>
<clipPath id="clip1_405_5">
<rect width="428" height="129" fill="white" transform="translate(-84.0778 -138.473) rotate(41.4054)"/>
</clipPath>
</defs>
</svg>
