<svg width="255" height="255" viewBox="0 0 255 255" fill="none" xmlns="http://www.w3.org/2000/svg">
<g clip-path="url(#clip0_405_22)">
<rect width="255" height="255" rx="127.5" fill="#FF5A00"/>
<g clip-path="url(#clip1_405_22)">
<path d="M269.854 180.649C270.321 173.134 270.558 165.657 270.631 158.172C272.7 164.228 274.836 170.24 277.071 176.223C278.856 181.075 286.679 178.913 284.862 174.044C282.917 168.809 281.021 163.56 279.192 158.266C283.47 162.848 287.61 167.603 291.443 172.605C294.588 176.675 301.576 172.58 298.386 168.442C295.332 164.507 292.189 160.731 288.929 157.014C293.827 158.935 298.707 160.888 303.606 162.809C308.454 164.743 310.456 156.88 305.67 154.981C297.428 151.721 289.154 148.443 280.911 145.183C290.374 144.865 299.836 144.546 309.266 144.209C314.463 144.04 314.47 135.932 309.223 136.115C301.835 136.388 294.433 136.612 287.045 136.886C287.153 136.696 287.323 136.541 287.462 136.368C287.879 135.85 288.205 135.197 288.368 134.536L310.403 128.374C315.415 126.972 313.236 119.18 308.224 120.582L286.983 126.523C292.593 123.241 298.313 120.063 304.092 117.002C308.714 114.586 304.52 107.625 299.93 110.06C296.196 112.014 292.507 114.035 288.832 116.106C290.385 113.719 291.906 111.314 293.378 108.922C296.124 104.489 289.075 100.521 286.329 104.954C282.625 110.94 278.699 116.8 274.727 122.593C278.404 113.832 282.095 105.122 285.771 96.3611C287.784 91.5979 280.72 87.5802 278.722 92.3931C275.415 100.274 272.094 108.106 268.786 115.987C268.157 109.528 267.446 103.065 266.523 96.6074C265.781 91.4642 258.003 93.6929 258.732 98.7865C259.29 102.697 259.75 106.635 260.177 110.556C258.118 105.968 255.762 101.463 253.089 97.0738C250.371 92.6168 243.429 96.7791 246.147 101.236C251.295 109.696 255.199 118.583 257.967 128.003C250.471 122.153 242.644 116.743 234.333 111.898C229.828 109.278 225.86 116.327 230.365 118.947C235.06 121.674 239.599 124.605 243.999 127.709C236.824 125.97 229.599 124.245 222.424 122.506C217.345 121.277 215.312 129.123 220.359 130.334C231.033 132.913 241.726 135.461 252.432 138.059L243.475 138.37C240.746 138.464 231.011 140.009 226.444 139.655C226.412 139.637 226.416 139.555 226.385 139.538C226.28 139.353 226.206 139.186 226.101 139.002C225.268 137.362 223.204 136.869 221.556 137.196C219.791 137.582 218.676 138.376 217.958 140.021C217.277 141.603 217.209 143.656 218.681 144.903C222.468 148.205 227.061 147.027 231.883 146.856L241.901 146.515C233.691 152.557 225.664 158.869 217.901 165.455C213.918 168.816 219.744 174.437 223.727 171.076C234.246 162.194 245.18 153.839 256.415 145.988L257.052 145.97L257.771 145.956C250.823 154.883 243.575 163.598 235.964 172.068C232.495 175.928 238.303 181.58 241.79 177.689C249.038 169.642 255.954 161.367 262.602 152.899C262.621 162.151 262.396 171.391 261.827 180.647C261.49 185.851 269.603 185.776 269.922 180.603L269.854 180.649Z" fill="#FEDE93"/>
<path d="M249.063 -5.71583C243.526 -14.227 237.206 -22.0912 230.186 -29.3047C237.572 -24.8959 244.973 -20.4374 252.288 -15.9016C256.722 -13.1551 260.69 -20.2044 256.256 -22.9509C248.641 -27.6973 240.955 -32.3166 233.269 -36.9359C241.736 -34.595 250.088 -31.9009 258.334 -28.7225C263.187 -26.8691 265.107 -34.7369 260.286 -36.5724C251.414 -39.9773 242.387 -42.884 233.224 -45.3243C242.464 -46.437 251.738 -47.2381 261.073 -47.6283C266.256 -47.8471 266.163 -55.9278 260.949 -55.7269C254.23 -55.4531 247.548 -54.9489 240.908 -54.2959C247.305 -56.9677 253.794 -59.2107 260.797 -59.6175C265.984 -59.9176 265.891 -67.9984 260.672 -67.7161C249.156 -67.0904 239.096 -61.9226 228.688 -57.6204C232.922 -64.102 237.201 -70.516 241.562 -76.9261C244.481 -81.2206 237.432 -85.1887 234.513 -80.8941C230.944 -75.6688 227.439 -70.4078 223.966 -65.1289C224.732 -71.7643 225.272 -78.4435 225.518 -85.1208C225.693 -90.3332 217.594 -90.2086 217.42 -84.9962C217.237 -78.9521 216.779 -72.9378 216.076 -66.9356C215.532 -65.8202 215.02 -64.687 214.539 -63.5358C212.431 -70.1166 210.323 -76.6973 208.035 -83.2543C206.317 -88.1517 198.512 -86.0222 200.243 -81.0752C203.315 -72.1956 206.188 -63.2605 208.994 -54.2797C202.573 -61.0722 196.152 -67.8646 189.731 -74.657C186.131 -78.4395 180.464 -72.6809 184.032 -68.9163C186.544 -66.2478 189.074 -63.611 191.586 -60.9425C189.459 -62.1401 187.331 -63.3376 185.218 -64.4856C180.641 -66.9781 176.673 -59.9287 181.25 -57.4362C187.033 -54.2645 192.798 -51.0611 198.546 -47.8259C189.758 -45.9567 181.071 -43.8215 172.382 -41.3112C167.384 -39.8597 169.563 -32.0682 174.561 -33.5196C183.367 -36.0895 192.266 -38.2305 201.185 -40.1096C194.715 -35.5977 187.673 -32.0766 180.11 -29.56C175.167 -27.91 177.346 -20.1184 182.289 -21.7684C189.37 -24.0966 196.003 -27.2626 202.197 -31.1353C197.768 -24.0107 193.403 -16.8503 189.133 -9.63632C186.482 -5.14915 193.531 -1.1811 196.183 -5.66826C200.005 -12.0884 203.892 -18.4728 207.81 -24.8394C206.748 -16.489 204.989 -8.2381 202.501 -0.104541C200.983 4.89508 208.851 6.81493 210.351 1.84706C213.427 -8.29708 215.417 -18.5924 216.371 -29.0528C218.758 -20.5168 221.078 -11.9352 223.167 -3.31591C224.402 1.76991 232.212 -0.440952 230.959 -5.495C229.696 -10.6801 228.366 -15.8195 226.954 -20.9629C232.502 -14.9965 237.524 -8.61535 242.03 -1.68851C244.883 2.67725 251.871 -1.41757 249.018 -5.78333L249.063 -5.71583Z" fill="#FEDE93"/>
<path d="M89.1601 54.0146C84.1537 48.6458 78.7839 43.6997 73.172 39.0354C78.4531 41.4645 83.7661 43.9116 89.0473 46.3408C93.7708 48.4978 97.7706 41.4664 93.0153 39.2914C87.3352 36.6795 81.6869 34.0855 76.0068 31.4736L97.0066 34.4295C102.128 35.1377 104.111 27.3057 98.9582 26.5796L73.5838 23.0011C79.8628 21.0577 86.1041 18.8841 92.0975 16.1109C96.8382 13.9289 92.6937 6.95458 88.0027 9.12271C81.4594 12.1299 74.7039 14.4741 67.8652 16.5205C73.5654 11.7424 79.8311 7.74269 86.7754 4.54306C91.5161 2.36105 87.3717 -4.61333 82.6806 -2.4452C76.854 0.254556 71.3924 3.49432 66.3594 7.30985C68.7903 2.99134 71.2708 -1.34103 73.8605 -5.57017C76.5753 -10.0216 69.5259 -13.9896 66.8112 -9.53823C64.15 -5.18207 61.6159 -0.754438 59.1314 3.65933C59.4051 -2.24977 59.4665 -8.15296 59.2202 -14.1039C59.0193 -19.3184 50.9207 -19.1938 51.1216 -13.9793C51.4131 -6.62303 51.2481 0.727173 50.7258 8.04353C48.0858 1.6651 45.68 -4.83235 43.7884 -11.5004C42.3866 -16.5128 34.5951 -14.3337 35.9969 -9.32126C38.4396 -0.586753 41.7658 7.76691 45.4394 16.0234C39.2008 9.50098 33.0971 2.88728 27.1146 -3.86732C23.6679 -7.77275 17.9515 -2.00027 21.416 1.87341C23.688 4.44857 25.9778 6.99198 28.2856 9.50364L20.4203 5.8708C15.6968 3.71373 11.697 10.7452 16.4523 12.9201L33.4291 20.7201C26.5811 20.6287 19.7309 20.9125 12.9025 21.7521C7.78115 22.3817 7.8422 30.4446 13.0271 29.8507C17.0149 29.3775 21.0266 29.0849 25.0303 28.9551C21.0262 30.4228 17.032 32.0214 13.1528 33.9357C8.47165 36.2349 12.5843 43.1914 17.2476 40.924C26.3083 36.4904 35.8389 33.4503 45.4667 30.7577C45.3952 30.8847 45.3237 31.0117 45.2839 31.1566C44.7917 31.214 44.2775 31.3846 43.7554 31.7179C34.476 37.2829 25.9904 43.9636 18.4154 51.7006C14.7739 55.4213 20.5146 61.1198 24.1561 57.3992C28.983 52.4641 34.1611 48.0193 39.7083 44.0333C37.6523 49.0228 35.6917 54.0659 33.858 59.1806C32.0998 64.0868 39.9675 66.0067 41.7078 61.1322C43.919 54.9756 46.3524 48.944 48.8989 42.9344C50.1191 51.3152 50.8331 59.7038 50.9059 68.1914C50.944 73.398 59.0743 73.2913 59.0045 68.0669C58.8982 58.5986 58.0694 49.2255 56.6311 39.9692C61.0944 49.4229 65.3412 58.9638 68.6371 68.9312C70.2554 73.8564 78.0608 71.7269 76.4287 66.7521C73.9716 59.3059 70.9329 52.0758 67.7096 44.9508C73.2263 49.5615 78.469 54.4362 83.3662 59.7017C86.9479 63.5159 92.6147 57.7573 89.0648 53.961L89.1601 54.0146Z" fill="#FEDE93"/>
<path d="M290.597 70.8518C287.62 67.671 284.451 64.7581 281.129 61.9683C284.257 63.3944 287.399 64.8702 290.527 66.2963C293.319 67.5755 295.71 63.4019 292.886 62.1048C289.536 60.5536 286.168 59.0341 282.818 57.4828L295.263 59.2194C298.294 59.6292 299.484 54.9888 296.422 54.5611L281.384 52.4525C285.128 51.2984 288.781 50.0093 292.336 48.3728C295.157 47.0755 292.699 42.9739 289.896 44.2394C286.007 46.0227 282.007 47.409 277.965 48.6464C281.319 45.8089 285.073 43.4479 289.179 41.5774C292 40.2801 289.541 36.1784 286.738 37.444C283.3 39.021 280.072 40.9672 277.072 43.251C278.52 40.679 279.95 38.1387 281.524 35.6381C283.139 32.9926 278.948 30.6333 277.333 33.2787C275.754 35.8607 274.239 38.4783 272.787 41.1318C272.959 37.6324 272.968 34.125 272.846 30.6275C272.736 27.5547 267.936 27.6128 268.046 30.6856C268.223 35.0505 268.125 39.3856 267.814 43.7266C266.221 39.9448 264.827 36.1075 263.717 32.1372C262.884 29.1596 258.268 30.4504 259.101 33.428C260.545 38.5893 262.52 43.5483 264.694 48.4518C260.999 44.6158 257.376 40.6527 253.852 36.6619C251.812 34.3429 248.431 37.75 250.471 40.069C251.832 41.5879 253.193 43.1068 254.522 44.6079L249.88 42.4548C247.088 41.1756 244.697 45.3493 247.521 46.6463L257.589 51.2683C253.53 51.1996 249.491 51.3929 245.421 51.8621C242.368 52.2343 242.426 57.0339 245.479 56.6617C247.859 56.3706 250.2 56.2244 252.603 56.114C250.227 56.9926 247.865 57.9209 245.59 59.0655C242.814 60.4303 245.255 64.5637 248.03 63.1989C253.396 60.5744 259.048 58.7798 264.755 57.1836C264.719 57.2471 264.666 57.3424 264.63 57.4059C264.35 57.4574 264.052 57.5407 263.733 57.7371C258.235 61.0404 253.212 64.9869 248.745 69.5807C246.58 71.7913 249.987 75.1727 252.152 72.9621C255.003 70.0511 258.086 67.3961 261.366 65.0608C260.16 68.02 258.986 70.9971 257.908 74.0278C256.869 76.9136 261.527 78.0722 262.566 75.1864C263.903 71.5484 265.304 67.9462 266.831 64.4154C267.55 69.378 267.975 74.3425 268.021 79.3862C268.05 82.455 272.85 82.3968 272.821 79.3281C272.753 73.7285 272.275 68.1904 271.403 62.6819C274.065 68.2783 276.56 73.948 278.506 79.8519C279.456 82.77 284.103 81.4971 283.121 78.5611C281.673 74.1501 279.861 69.868 277.98 65.6316C281.256 68.3539 284.344 71.2628 287.275 74.3761C289.4 76.6177 292.781 73.2106 290.656 70.9689L290.597 70.8518Z" fill="#FEDE93"/>
<path d="M19.419 158.225C14.4425 152.58 9.32698 147.108 4.04072 141.791C9.77634 144.602 15.5477 147.349 21.3727 150C26.0645 152.139 30.096 145.126 25.3408 142.951C20.2501 140.629 15.1952 138.243 10.176 135.794C16.4464 136.021 22.7226 136.459 28.9968 137.273C34.1039 137.932 36.1368 130.086 30.9484 129.423C26.0359 128.79 21.0975 128.352 16.169 128.045C20.987 125.948 25.8369 123.87 30.655 121.773C35.4235 119.69 31.3108 112.734 26.5602 114.785C18.4248 118.318 10.2577 121.832 2.10447 125.397C8.54574 118.485 15.0366 111.56 21.4779 104.648C25.042 100.842 19.3013 95.1436 15.7372 98.9496C10.6918 104.347 5.64642 109.745 0.583162 115.174C0.545517 114.944 0.539628 114.731 0.501988 114.501C0.42081 113.828 0.208618 113.165 -0.120696 112.562L11.1043 92.6202C13.6603 88.0794 6.611 84.1114 4.05499 88.6522L-6.77676 107.895C-5.11344 101.597 -3.33698 95.3213 -1.41564 89.0852C0.134142 84.1034 -7.71572 82.1519 -9.2655 87.1336C-10.5232 91.1508 -11.7174 95.2037 -12.8619 99.2427C-13.4764 96.4715 -14.0909 93.7003 -14.7371 90.9113C-15.9405 85.8434 -23.732 88.0225 -22.5287 93.0904C-20.925 99.9727 -19.5337 106.861 -18.2416 113.777C-21.8237 104.986 -25.4058 96.196 -28.988 87.4056C-30.9397 82.6272 -38.7451 84.7567 -36.7795 89.5847C-33.5782 97.4917 -30.3273 105.385 -27.1261 113.292C-32.111 109.148 -37.1991 105.113 -42.4223 101.169C-46.5599 98.0455 -50.5141 105.144 -46.3904 108.218C-43.2112 110.593 -40.1174 113.046 -37.0415 115.53C-41.7493 113.716 -46.604 112.238 -51.5699 111.031C-56.6173 109.821 -58.6006 117.653 -53.5215 118.881C-43.8794 121.215 -34.8351 124.759 -26.2536 129.422C-35.6924 130.59 -45.0599 132.3 -54.3502 134.765C-59.4082 136.099 -57.2291 143.891 -52.1711 142.556C-46.9324 141.198 -41.6382 140.039 -36.3381 139.091C-42.6455 142.942 -48.9707 146.825 -55.278 150.676C-59.735 153.394 -55.6403 160.382 -51.1832 157.664C-41.7967 151.908 -32.428 146.185 -23.0414 140.429C-25.0747 142.63 -27.1218 144.781 -29.155 146.982C-31.0314 148.978 -36.8239 156.966 -40.2806 159.912C-40.3124 159.894 -40.3441 159.876 -40.4076 159.841C-40.5843 159.783 -40.7927 159.708 -40.9693 159.65C-42.7357 159.074 -44.5364 160.193 -45.4857 161.582C-46.4746 163.116 -46.7192 164.442 -46.0349 166.123C-45.3962 167.737 -43.9675 169.211 -42.052 169.076C-37.0419 168.718 -34.623 164.644 -31.3507 161.134L-24.5143 153.817C-26.0359 163.875 -27.2677 174.011 -28.1104 184.2C-28.5606 189.382 -20.4441 189.226 -20.0118 184.075C-18.8484 170.346 -17.038 156.729 -14.6122 143.209C-14.4732 143.036 -14.3203 142.913 -14.1813 142.74L-13.6829 142.226C-12.2771 153.472 -11.2325 164.764 -10.6306 176.101C-10.3622 181.269 -2.24971 181.194 -2.53196 175.976C-3.11223 165.196 -4.06765 154.413 -5.37047 143.728C1.21159 150.234 7.5554 156.941 13.7066 163.916C17.1532 167.822 22.82 162.063 19.4051 158.176L19.419 158.225Z" fill="#FEDE93"/>
<path d="M196.875 86.9239C193.501 83.8541 190.074 80.8796 186.615 77.8873C189.305 78.6066 191.994 79.326 194.652 80.0275C199.677 81.351 201.678 73.4872 196.603 72.1776C193.511 71.3569 190.387 70.5183 187.295 69.6976C191.922 68.8316 196.535 67.9159 201.162 67.0499C206.268 66.0768 204.089 58.2852 198.983 59.2583L178.363 63.2061C184.04 60.548 189.718 57.8899 195.396 55.2318C200.123 53.0001 196.01 46.0436 191.301 48.2435C188.813 49.394 186.308 50.5763 183.803 51.7586C184.113 51.4311 184.454 51.1216 184.782 50.7624C188.391 47.0239 182.651 41.3253 179.041 45.0639C177.03 47.1514 174.923 49.1854 172.834 51.1876C174.763 46.1265 176.742 41.0516 178.847 36.0482C180.81 31.2988 173.796 27.2673 171.798 32.0802C170.205 35.9503 168.661 39.8066 167.132 43.7125C165.535 38.6742 163.641 33.7192 161.4 28.8614C159.218 24.1207 152.261 28.2334 154.412 32.9562C155.988 36.3946 157.367 39.8886 158.579 43.4559C156.434 39.6143 154.272 35.8046 152.01 32.0226C149.342 27.5517 142.322 31.6286 145.022 36.1174C148.627 42.119 152.015 48.2078 155.255 54.3383C149.196 49.7989 143.169 45.2774 137.142 40.7558C132.987 37.664 129.05 44.7312 133.174 47.8052C133.992 48.4326 134.827 49.0284 135.645 49.6559C131.255 47.352 127.493 54.1831 131.867 56.8124C136.418 59.4995 141.066 61.8649 145.789 64.022C140.122 64.1354 134.457 64.5426 128.84 65.3111C123.732 65.9904 123.807 74.1029 128.964 73.4097C131.543 73.0631 134.149 72.8158 136.737 72.6002C135.407 73.1059 134.091 73.6614 132.729 74.1492C127.86 75.966 130.021 83.7893 134.908 81.9408C138.132 80.7449 141.311 79.4814 144.457 78.2001C141.51 81.7264 138.613 85.2389 135.667 88.7653C132.339 92.7461 138.061 98.4764 141.407 94.4638L154.203 79.0863C152.486 84.1415 150.833 89.2324 149.262 94.3272C147.712 99.309 155.593 101.278 157.112 96.2788C158.236 92.6467 159.392 89.0325 160.581 85.4361C160.846 88.6796 161.111 91.9231 161.344 95.1487C161.743 100.308 169.856 100.233 169.442 95.0241C169.112 90.7822 168.764 86.572 168.434 82.3301C170.628 87.4956 172.74 92.6571 174.668 97.9237C176.453 102.775 184.258 100.646 182.459 95.7446C180.444 90.2616 178.263 84.8519 175.995 79.5197C181.085 83.8484 186.158 88.2089 191.109 92.7102C194.95 96.2109 200.699 90.4562 196.807 86.9695L196.875 86.9239Z" fill="#FEDE93"/>
<path d="M225.402 284.208C221.354 279.588 217.135 275.122 212.831 270.734C217.515 273.036 222.266 275.293 227.021 277.468C230.883 279.223 234.168 273.462 230.274 271.688C226.126 269.772 221.979 267.855 217.853 265.825C222.984 265.995 228.12 266.378 233.259 267.054C237.425 267.602 239.079 261.173 234.863 260.64C230.842 260.132 226.798 259.738 222.779 259.524C226.714 257.809 230.68 256.111 234.633 254.363C238.55 252.679 235.159 246.965 231.292 248.636C224.608 251.522 217.955 254.426 211.271 257.312C216.559 251.632 221.828 245.985 227.148 240.323C230.075 237.204 225.344 232.534 222.449 235.671C218.333 240.086 214.167 244.516 210.051 248.931C210.027 248.75 210.003 248.57 209.98 248.389C209.908 247.847 209.724 247.283 209.454 246.797L218.641 230.475C220.733 226.76 214.954 223.507 212.862 227.222L203.997 242.972C205.36 237.802 206.818 232.685 208.408 227.558C209.683 223.51 203.237 221.888 201.993 225.955C200.966 229.265 199.988 232.562 199.042 235.877C198.567 233.602 198.041 231.341 197.516 229.08C196.545 224.937 190.143 226.727 191.114 230.87C192.42 236.498 193.546 242.149 194.622 247.815C191.679 240.638 188.753 233.43 185.81 226.253C184.207 222.341 177.823 224.099 179.408 228.044C182.044 234.504 184.68 240.964 187.316 247.423C183.24 244.042 179.047 240.72 174.782 237.525C171.367 234.975 168.145 240.772 171.529 243.304C174.109 245.258 176.671 247.243 179.165 249.275C175.305 247.813 171.351 246.591 167.272 245.591C163.112 244.588 161.508 251.002 165.669 252.006C173.568 253.944 180.949 256.802 187.989 260.639C180.257 261.598 172.601 263.017 164.966 264.991C160.833 266.094 162.61 272.446 166.756 271.393C171.07 270.267 175.358 269.336 179.719 268.571C174.555 271.727 169.391 274.884 164.21 278.072C160.577 280.292 163.917 286.02 167.551 283.8C175.222 279.086 182.907 274.421 190.578 269.707C188.908 271.485 187.221 273.295 185.551 275.073C184.002 276.71 179.276 283.249 176.448 285.672C176.417 285.654 176.385 285.636 176.353 285.618C176.226 285.547 176.032 285.521 175.887 285.481C174.442 285.002 172.961 285.925 172.186 287.078C171.358 288.326 171.189 289.444 171.727 290.792C172.232 292.122 173.397 293.321 174.969 293.202C179.062 292.914 181.07 289.57 183.741 286.683L189.338 280.676C188.085 288.919 187.09 297.224 186.421 305.544C186.082 309.786 192.712 309.671 193.05 305.429C193.977 294.201 195.487 283.05 197.449 271.986C197.57 271.845 197.674 271.736 197.795 271.595L198.208 271.159C199.356 280.335 200.207 289.595 200.714 298.871C200.945 303.141 207.575 303.026 207.344 298.756C206.88 289.923 206.105 281.124 205.018 272.358C210.385 277.679 215.614 283.173 220.636 288.885C223.464 292.107 228.102 287.359 225.288 284.186L225.402 284.208Z" fill="#FEDE93"/>
<path d="M131.695 203.236C128.662 196.887 125.494 190.63 122.277 184.386C126.414 187.51 130.691 190.46 135.107 193.239C139.522 196.017 143.49 188.968 139.075 186.189C133.488 182.668 128.112 178.848 122.996 174.714C129.681 176.804 136.397 178.912 143.082 181.002C148.064 182.552 150.015 174.702 145.033 173.152L118.97 165.004C125.356 162.201 131.784 159.547 138.307 156.947C142.667 155.219 141.291 148.675 137.415 148.876C137.451 146.137 134.508 143.268 131.324 144.988C124.955 148.428 118.569 151.899 112.2 155.339C112.23 155.063 112.21 154.801 112.24 154.525C115.458 147.472 118.146 140.245 120.194 132.743C121.567 127.704 113.718 125.752 112.344 130.791C111.77 132.852 111.164 134.894 110.495 136.901C109.232 132.384 107.125 128.104 103.734 124.397C100.22 120.537 94.5032 126.31 98.0352 130.138C103.361 135.979 104.29 143.987 104.236 151.734C99.6844 144.071 94.9983 136.499 90.1275 129.032C87.2745 124.666 80.2863 128.761 83.1393 133.127C85.9328 137.375 88.627 141.652 91.2855 145.992C86.3244 142.028 81.2421 138.206 76.0705 134.542C71.8296 131.528 67.8933 138.595 72.1024 141.591C79.3221 146.742 86.3173 152.144 93.0842 157.876C84.8573 155.629 76.8172 152.901 69.3332 148.814C64.7567 146.321 60.7886 153.371 65.3651 155.863C74.024 160.612 83.3543 163.647 92.8574 166.153C81.1595 168.141 69.4438 170.16 57.7459 172.147C52.6126 173.021 54.8234 180.83 59.925 179.939C66.5392 178.811 73.1533 177.684 79.7357 176.539C78.1336 177.602 76.5631 178.683 75.0066 179.814C74.4487 180.211 74.0496 180.697 73.7636 181.205C71.9053 182.501 70.0609 183.846 68.2026 185.142C63.9598 188.148 68.0367 195.168 72.2974 192.13C77.9259 188.148 83.5723 184.134 89.2008 180.152C91.1186 178.974 93.0503 177.845 95.0138 176.734C90.4916 184.767 85.4475 192.466 79.7544 199.757C76.5852 203.827 82.308 209.557 85.4951 205.455C91.7124 197.456 97.3264 189.117 102.246 180.303L102.888 207.761C103.008 212.971 111.107 212.847 110.987 207.636C110.772 198.065 110.524 188.475 110.309 178.904C115.35 188.223 120.139 197.692 124.725 207.299C126.957 212.026 133.931 207.881 131.713 203.204L131.695 203.236Z" fill="#FEDE93"/>
</g>
</g>
<defs>
<clipPath id="clip0_405_22">
<rect width="255" height="255" rx="127.5" fill="white"/>
</clipPath>
<clipPath id="clip1_405_22">
<rect width="451.22" height="779.718" fill="white" transform="translate(171.472 -291) rotate(29.3752)"/>
</clipPath>
</defs>
</svg>
