<svg width="663" height="537" viewBox="0 0 663 537" fill="none" xmlns="http://www.w3.org/2000/svg">
<path fill-rule="evenodd" clip-rule="evenodd" d="M231.596 55.0831C178.055 24.6615 109.99 43.4032 79.5688 96.9438C49.1472 150.484 67.8889 218.549 121.429 248.971L185.183 285.195C196.311 293.982 204.963 309.039 183.123 324.834C167.922 335.827 178.737 335.613 200.779 335.175C225.392 334.687 264.006 333.92 296.023 348.174L455.299 438.674C508.839 469.096 576.904 450.354 607.326 396.813C637.747 343.273 619.005 275.208 565.465 244.786L231.596 55.0831Z" fill="#43CCFF"/>
<path d="M566.519 393.995C559.583 393.075 558.327 388.985 562.821 381.706C564.754 378.303 567.003 375.079 569.588 372.105C576.662 363.331 564.631 350.69 556.863 359.426C550.525 366.486 543.778 372.899 535.92 378.327C530.731 381.894 517.785 391.656 511.075 390.864C501.505 389.75 510.12 372.907 511.715 367.475C514.935 356.452 518.181 345.384 521.401 334.36C523.557 326.996 514.63 320.443 508.145 324.4C499.222 329.813 490.155 334.849 480.719 339.38C476.369 341.469 471.935 343.392 467.481 345.244C461.868 347.563 456.133 352.301 452.059 347.499C450.132 345.219 450.117 341.36 450.979 337.112C451.171 336.984 451.344 336.786 451.536 336.658C466.838 323.378 476.815 305.295 480.796 285.582C482.515 277.2 472.156 270.544 465.73 277.021C453.467 289.363 443.983 303.639 437.966 320.004C437.264 321.974 436.461 324.124 435.741 326.44C431.328 329.796 426.476 332.666 421.234 334.96C413.34 338.352 401.381 343.226 398.902 328.371C398.603 326.483 398.707 324.41 398.997 322.324C416.245 310.031 428.101 291.476 430.577 270.315C431.619 261.549 422.652 255.803 415.511 261.755C400.187 274.549 388.451 291.633 383.421 310.986C380.367 312.686 377.208 314.15 373.881 315.28C370.508 316.384 366.789 317.47 363.237 317.525C356.134 317.635 355.42 317.525 356.125 310.404C356.211 309.623 356.322 308.798 356.478 307.998C364.127 304.407 371.193 299.952 377.041 295.752C401.217 278.511 418.307 254.104 427.328 225.941C429.802 218.225 420.502 212.645 414.072 215.981C390.542 228.199 370.658 245.866 356.183 268.086C351.986 274.527 345.461 284.857 341.186 295.636C332.665 298.555 324.388 298.945 318.247 294.212C310.538 288.351 310.355 278.592 312.927 268.918C346.106 254.423 370.52 224.582 378.897 189.36C380.604 182.156 372.349 175.156 365.641 179.4C338.689 196.485 313.415 220.803 300.472 250.409C299.558 252.437 298.754 254.587 298.041 256.788C288.006 259.852 277.373 260.503 266.591 257.635C248.071 252.739 246.832 236.753 250.596 220.886C272.766 207.598 291.967 189.662 306.607 168.306C313.641 158.027 322.625 144.001 316.874 131.019C310.583 116.782 295.424 120.253 285.908 128.706C263.768 148.348 243.147 178.863 234.75 209.394C221.847 216.456 207.913 221.866 193.655 224.486C153.622 231.829 168.67 183.398 178.588 164.156C179.046 163.35 179.504 162.544 179.917 161.713C207.284 154.399 235.845 138.998 246.392 112.769C250.235 102.75 250.078 87.3793 238.877 81.7847C224.416 74.5752 209.496 93.1668 201.054 101.934C188.231 115.261 176.927 130.22 167.703 146.243C145.05 151.142 103.313 155.917 102.875 130.435C102.662 118.942 84.7035 119.044 84.9355 130.608C85.5944 167.884 129.005 169.509 157.434 165.997C151.062 179.731 146.368 194.715 148.706 209.607C150.851 223.265 159.397 236.472 172.964 241.16C189.677 246.925 209.407 239.714 224.865 233.512C226.878 232.701 228.845 231.864 230.812 231.027C228.873 267.834 263.092 280.702 294.166 274.843C293.294 287.615 296.441 300.243 307.188 308.423C315.968 315.129 326.348 316.289 336.808 314.472C336.756 320.129 338.211 325.339 342.088 329.437C351.31 339.356 367.83 336.956 381.456 331.667C382.78 343.199 388.791 353.308 402.191 355.769C411.958 357.587 422.207 354.881 431.558 350.184C431.762 354.446 432.722 358.427 434.919 361.808C442.786 374.215 457.815 368.243 468.582 363.995C478.427 360.111 487.972 355.703 497.355 350.846C493.895 361.556 490.545 372.387 488.448 383.22C486.513 393.137 489.068 403.237 499.106 407.519C512.62 413.243 529.228 405.857 543.571 395.527C544.043 397.216 544.771 398.874 545.731 400.545C551.81 411.166 565.029 415.834 575.559 409.378C585.372 403.345 576.292 387.82 566.524 393.879L566.519 393.995ZM199.324 131.337C205.797 122.991 215.984 108.107 225.74 103.225C232.926 99.6085 231.386 102.109 229.109 107.272C227.771 110.362 225.2 113.521 223.076 116.105C219.024 121.029 214.207 125.518 209.012 129.2C204.584 132.371 199.763 135.081 194.869 137.394C196.315 135.373 197.788 133.307 199.324 131.337ZM278.36 164.043C282.739 158.12 287.589 152.525 292.705 147.198C297.207 142.53 300.559 139.044 298.307 147.419C295.853 156.568 285.366 167.254 279.174 174.16C273.915 180.057 268.21 185.582 262.156 190.671C266.773 181.389 272.189 172.383 278.36 164.043ZM347.758 215.914C342.123 224.676 335.168 232.926 327.306 239.832C333.334 231.114 340.181 223.158 347.758 215.914ZM380.69 265.07C385.775 258.956 391.41 253.451 397.458 248.477C391.907 257.406 385.119 265.573 377.194 272.798C375.373 274.428 373.117 276.404 370.508 278.476C373.935 273.493 377.552 268.914 380.735 265.096L380.69 265.07Z" fill="#FEDE93"/>
</svg>
