<svg width="56" height="56" viewBox="0 0 56 56" fill="none" xmlns="http://www.w3.org/2000/svg">
<path d="M50.5737 34.2179L46.9917 31.1554C47.1612 30.1163 47.2487 29.0554 47.2487 27.9944C47.2487 26.9335 47.1612 25.8726 46.9917 24.8335L50.5737 21.771C51.1261 21.3007 51.3284 20.5351 51.0823 19.846L51.0331 19.7038C50.0433 16.9421 48.5776 14.4046 46.6745 12.1624L46.5761 12.0476C46.1058 11.4952 45.3456 11.2874 44.6565 11.528L40.2104 13.1085C38.5698 11.7632 36.7378 10.7022 34.7581 9.9585L33.8995 5.31006C33.7683 4.59365 33.205 4.03584 32.4886 3.90459L32.3409 3.87725C29.4917 3.36318 26.4948 3.36318 23.6456 3.87725L23.498 3.90459C22.7815 4.03584 22.2183 4.59365 22.087 5.31006L21.223 9.98037C19.2597 10.7241 17.4386 11.7796 15.8089 13.1194L11.33 11.528C10.6464 11.2874 9.88076 11.4897 9.41045 12.0476L9.31201 12.1624C7.40889 14.4101 5.94326 16.9476 4.95342 19.7038L4.9042 19.846C4.65811 20.5296 4.86045 21.2952 5.4128 21.771L9.03858 24.8663C8.86905 25.8944 8.78701 26.9444 8.78701 27.989C8.78701 29.039 8.86905 30.089 9.03858 31.1116L5.4128 34.2069C4.86045 34.6772 4.65811 35.4429 4.9042 36.1319L4.95342 36.2741C5.94326 39.0304 7.40889 41.5733 9.31201 43.8155L9.41045 43.9304C9.88076 44.4827 10.6409 44.6905 11.33 44.4499L15.8089 42.8585C17.4386 44.1983 19.2597 45.2593 21.223 45.9976L22.087 50.6679C22.2183 51.3843 22.7815 51.9421 23.498 52.0733L23.6456 52.1007C25.073 52.3577 26.5331 52.489 27.9933 52.489C29.4534 52.489 30.919 52.3577 32.3409 52.1007L32.4886 52.0733C33.205 51.9421 33.7683 51.3843 33.8995 50.6679L34.7581 46.0194C36.7378 45.2757 38.5698 44.2202 40.2104 42.8694L44.6565 44.4499C45.3401 44.6905 46.1058 44.4882 46.5761 43.9304L46.6745 43.8155C48.5776 41.5679 50.0433 39.0304 51.0331 36.2741L51.0823 36.1319C51.3284 35.4593 51.1261 34.6937 50.5737 34.2179ZM43.1089 25.4788C43.2456 26.3046 43.3167 27.1522 43.3167 27.9999C43.3167 28.8476 43.2456 29.6952 43.1089 30.521L42.748 32.714L46.8331 36.2085C46.2151 37.6358 45.4331 38.9812 44.5034 40.2335L39.4284 38.4343L37.7112 39.8452C36.4042 40.9171 34.9495 41.7593 33.3745 42.3499L31.2909 43.1319L30.312 48.4366C28.7753 48.6116 27.2058 48.6116 25.6636 48.4366L24.6847 43.121L22.6175 42.328C21.0589 41.7374 19.6097 40.8952 18.3136 39.8288L16.5964 38.4124L11.4886 40.228C10.5589 38.9757 9.78233 37.6249 9.15889 36.203L13.2878 32.6757L12.9323 30.4882C12.8011 29.6733 12.73 28.8312 12.73 27.9999C12.73 27.1632 12.7956 26.3265 12.9323 25.5116L13.2878 23.3241L9.15889 19.7968C9.77686 18.3694 10.5589 17.0241 11.4886 15.7718L16.5964 17.5874L18.3136 16.171C19.6097 15.1046 21.0589 14.2624 22.6175 13.6718L24.6901 12.8897L25.669 7.57412C27.2058 7.39912 28.7753 7.39912 30.3175 7.57412L31.2964 12.8788L33.38 13.6608C34.9495 14.2515 36.4097 15.0937 37.7167 16.1655L39.4339 17.5765L44.5089 15.7772C45.4386 17.0296 46.2151 18.3804 46.8386 19.8022L42.7534 23.2968L43.1089 25.4788Z" fill="#4628FE"/>
<path d="M28 17.8281C22.6844 17.8281 18.375 22.1375 18.375 27.4531C18.375 32.7688 22.6844 37.0781 28 37.0781C33.3156 37.0781 37.625 32.7688 37.625 27.4531C37.625 22.1375 33.3156 17.8281 28 17.8281ZM32.3313 31.7844C31.1719 32.9383 29.6352 33.5781 28 33.5781C26.3648 33.5781 24.8281 32.9383 23.6687 31.7844C22.5148 30.625 21.875 29.0883 21.875 27.4531C21.875 25.818 22.5148 24.2812 23.6687 23.1219C24.8281 21.9625 26.3648 21.3281 28 21.3281C29.6352 21.3281 31.1719 21.9625 32.3313 23.1219C33.4852 24.2812 34.125 25.818 34.125 27.4531C34.125 29.0883 33.4852 30.625 32.3313 31.7844Z" fill="#4628FE"/>
</svg>
