<svg width="573" height="361" viewBox="0 0 573 361" fill="none" xmlns="http://www.w3.org/2000/svg">
<g clip-path="url(#clip0_405_55)">
<rect y="165.121" width="534.825" height="205.797" rx="102.898" transform="rotate(-17.9833 0 165.121)" fill="#FF5A00"/>
<g clip-path="url(#clip1_405_55)">
<path d="M508.998 -8.74646C500.166 -7.71465 494.133 -19.8804 487.061 -23.8682C478.242 -28.8737 468.284 -27.0316 460.244 -21.3357C441.256 -7.86022 437.032 37.7456 405.842 26.211C395.677 22.4488 388.069 16.2992 376.721 16.3405C367.479 16.3656 358.221 19.5931 350.751 24.9927C343.618 30.1441 338.006 37.4152 335.351 45.8393C331.413 58.2667 332.669 79.7674 312.95 76.3539C301.534 74.3878 298.331 60.4973 289.486 54.3879C280.683 48.3205 269.049 48.6772 259.361 52.378C249.179 56.267 240.375 63.4619 234.141 72.325C231.311 76.3576 229.064 80.6457 227.374 85.2813C224.958 91.9596 224.342 99.3885 219.478 104.943C210.72 114.931 195.428 118.227 182.767 116.192C176.792 115.24 170.95 113.161 165.853 109.866C160.414 106.377 156.515 100.441 150.163 98.4997C142.418 96.1202 133.756 101.184 127.226 105.027C118.362 110.24 111.439 117.408 110.564 128.063C109.865 136.352 110.711 144.864 101.217 148.39C92.7619 151.524 86.1409 145.332 79.9859 140.491C72.2862 134.399 64.5901 130.03 54.5068 129.688C34.4742 128.99 15.1405 142.939 11.2038 162.817C9.94412 169.12 19.6961 171.265 20.9557 164.962C25.4054 142.471 53.2224 132.663 71.1434 146.197C78.3551 151.641 85.0634 158.444 94.5667 159.224C102.842 159.901 111.138 155.846 115.985 149.129C122.615 139.943 117.137 127.347 124.853 119.199C128.366 115.473 133.215 112.953 137.77 110.724C140.89 109.211 144.575 106.958 148.25 108.351C151.666 109.633 154.989 114.31 158.006 116.5C173.678 127.984 195.59 129.935 213.109 121.607C221.386 117.669 228.736 111.558 232.361 102.958C234.727 97.4077 235.425 91.3425 237.882 85.8185C241.223 78.3115 246.613 71.7243 253.284 66.9453C264.635 58.7845 279.723 55.8887 289.255 68.2252C295.428 76.2027 300.189 84.1939 310.845 86.1287C318.58 87.5381 327.095 85.358 333.166 80.3568C342.702 72.5073 341.467 61.2586 344.441 50.3954C347.347 39.7491 355.857 31.6487 366.22 28.1458C380.009 23.4751 388.942 30.0285 401.338 35.0966C412.008 39.4733 424.283 38.5197 433.793 31.7904C443.622 24.8464 448.105 13.4102 453.381 3.05074C459.837 -9.66554 473.009 -24.2002 486.766 -11.5115C493.512 -5.27696 499.303 2.37971 509.456 1.22488C515.804 0.498929 515.396 -9.48873 508.998 -8.74646Z" fill="#FFBDCE"/>
<path d="M531.932 60.7955C526.352 71.5036 514.394 78.1376 502.224 76.3326C490.639 74.6159 483.013 64.3855 472.16 60.8185C449.947 53.5715 437.521 75.4541 428.557 91.7373C422.524 102.676 413.792 114.629 399.733 110.769C390.402 108.209 382.675 101.348 374.169 96.9636C355.907 87.5997 338.45 93.2106 326.841 109.991C314.792 127.386 301.596 173.763 273.808 147.89C259.794 134.84 240.268 130.14 222.756 139.773C214.012 144.585 208.41 152.659 203.367 160.997C196.317 172.654 187.666 189.392 171.202 185.311C155.398 181.377 140.107 164.737 123.953 178.211C116.3 184.587 113.842 194.643 109.307 203.094C98.8812 222.493 82.1437 214.83 66.1539 207.76C56.3268 203.415 44.4961 199.915 34.5485 205.897C26.5819 210.707 22.51 219.813 25.5422 228.727C27.6016 234.814 37.1091 231.756 35.0415 225.643C31.1187 214.072 45.9605 211.701 53.6833 213.67C59.6131 215.165 64.9283 218.361 70.466 220.873C80.6587 225.488 91.3153 228.452 102.121 223.832C109.977 220.476 114.998 213.953 118.815 206.541C123.048 198.272 126.063 184.115 137.236 183.018C146.225 182.13 155.433 189.957 163.355 193.14C171.536 196.435 179.819 197.221 188.004 193.341C209.464 183.206 210.846 152.118 234.551 145.731C247.069 142.362 258.015 146.817 267.2 155.345C273.888 161.571 280.677 166.485 290.25 165.769C313.435 164.026 321.613 140.269 330.778 122.892C336.586 111.86 346.247 99.6878 360.249 102.26C369.736 104.018 377.797 110.966 386.06 115.541C402.045 124.393 418.307 123.145 430.046 107.963C438.519 97.0113 442.289 81.4133 453.835 72.9948C467.111 63.3194 477.692 76.233 488.894 82.161C507.728 92.0898 531.162 83.927 540.864 65.2918C543.84 59.5713 534.951 55.0335 531.974 60.754L531.932 60.7955Z" fill="#FFBDCE"/>
<path d="M576.869 134.623C569.786 141.899 559.164 132.196 553.051 128.425C548.06 125.374 542.672 122.98 537.053 121.329C526.281 118.18 514.184 117.798 503.844 122.572C492.901 127.625 487.444 137.515 483.534 148.404C479.436 159.827 473.342 179.904 457.12 174.772C440.273 169.425 431.518 149.468 412.535 148.068C384.34 146.015 378.444 180.737 364.479 197.447C358.896 204.125 350.914 208.801 342.167 205.301C336.935 203.218 332.74 198.853 328.607 195.19C321.037 188.472 313.18 182.237 302.673 181.532C276.69 179.79 264.53 203.172 253.538 222.198C246.51 234.349 236.637 242.698 222.621 235.376C213.923 230.831 206.758 223.732 197.823 219.57C175.633 209.229 159.122 225.543 149.036 244.192C142.392 256.497 133.096 279.977 115.452 277.308C102.682 275.364 96.24 259.883 83.8018 256.053C72.3808 252.531 59.6395 257.779 52.8485 267.323C45.1621 278.131 45.5319 292.107 50.4636 303.963C52.9088 309.87 62.4244 306.837 59.963 300.88C54.2273 287.061 57.1912 264.357 76.7646 265.01C89.1202 265.42 95.9973 279.674 106.428 284.852C128.322 295.734 145.904 272.622 154.49 255.516C160.43 243.691 168.969 225.155 184.838 226.12C194.585 226.71 202.792 234.277 210.49 239.508C227.266 250.883 245.291 251.816 257.937 233.782C264.755 224.062 268.506 212.085 276.603 203.312C286.259 192.838 301.1 187.298 313.744 195.871C322.365 201.72 328.799 210.586 338.678 214.58C347.917 218.309 357.734 216.291 365.509 210.291C375.058 202.91 380.174 191.713 385.468 181.237C391.721 168.837 402.346 152.793 418.337 159.78C433.353 166.333 442.808 184.422 460.414 185.519C493.355 187.56 485.267 140.39 509.404 130.971C524.809 124.942 540.954 132.407 553.751 140.765C563.554 147.175 575.21 150.564 584.289 141.222C588.769 136.626 581.308 129.985 576.827 134.581L576.869 134.623Z" fill="#FFBDCE"/>
<path d="M590.402 173.491C580.145 197.006 562.593 227.225 532.618 211.988C517.844 204.467 505.047 190.632 487.71 189.253C467.467 187.65 455.194 204.951 449.448 222.164C445.933 232.646 445.635 253.206 431.404 254.378C417.959 255.489 407.423 242.116 396.022 237.031C377.709 228.879 356.893 236.721 347.178 253.859C340.893 264.963 338 277.273 328.264 286.217C316.576 296.933 298.99 299.75 286.471 288.911C279.091 282.521 274.166 274.278 263.929 272.179C253.758 270.114 243.205 274.485 235.402 280.827C219.485 293.834 204.286 339.694 177.029 324.353C168.026 319.296 161.585 310.321 151.354 307.386C141.065 304.442 131.357 308.594 124.255 316.154C115.292 325.681 111.994 338.54 104.768 349.143C99.8925 356.286 91.9035 365.135 82.2321 361.184C75.3431 358.361 71.8554 350.012 69.1879 343.677C66.7258 337.803 57.202 340.811 59.6886 346.76C67.4033 365.136 84.1254 381.394 103.473 365.606C120.054 352.077 129 300.991 157.435 321.927C164.765 327.305 171.287 334.307 180.446 336.506C191.347 339.111 202.229 334.467 210.455 327.46C227.318 313.089 246.218 261.775 273.703 289.97C281.572 298.036 288.744 304.299 300.399 305.632C311.962 306.939 323.365 303.043 332.352 295.816C341.802 288.217 347.084 278.217 351.863 267.352C358.275 252.787 369.469 240.034 387.184 244.46C405.832 249.111 428.717 279.133 447.799 256.452C461.443 240.207 455.531 198.03 486.022 199.115C507.859 199.895 522.327 223.669 544.309 226.181C573.589 229.522 589.401 200.702 599.275 178.062C601.843 172.196 592.97 167.625 590.385 173.525L590.402 173.491Z" fill="#FFBDCE"/>
<path d="M489.246 -70.4519C485.42 -78.3016 476.916 -81.9081 468.427 -80.932C457.212 -79.6269 449.711 -70.2138 444.427 -61.0753C437.28 -48.6908 431.934 -33.4987 415.216 -32.7151C399.785 -31.9879 390.471 -46.6472 377.513 -52.5059C360.3 -60.2641 346.304 -51.5227 340.837 -34.7344C338.073 -26.2192 337.274 -16.8686 333.194 -8.81571C327.179 3.03451 304.196 11.2177 292.55 3.15371C283.981 -2.79467 279.395 -11.7878 269.324 -16.0258C260.578 -19.6928 250.706 -20.3251 241.499 -18.2261C220.396 -13.4059 211.894 3.61694 205.907 22.7424C201.967 35.337 197.497 48.4374 184.071 53.6295C169.514 59.2724 158.221 52.1228 146.98 43.5102C139.994 38.1601 132.465 32.6801 123.326 32.2544C112.685 31.7329 103.98 37.9502 97.8013 46.1281C88.744 58.1041 85.645 75.5137 73.3236 84.8792C59.7833 95.1964 45.848 79.4792 31.477 79.2784C3.18675 78.8138 -10.7832 107.148 -10.1695 131.888C-10.0012 138.311 -0.0372432 137.857 -0.205571 131.434C-0.537132 117.918 2.96683 103.296 14.4369 94.9021C28.3604 84.7386 39.3105 91.9439 53.0615 96.7387C76.3131 104.872 89.2201 83.3614 97.9796 65.5045C103.709 53.8025 112.898 37.7804 128.447 43.4093C137.389 46.6514 144.121 54.6419 152.131 59.5488C168.25 69.4136 190.078 66.9157 202.748 52.4605C216.96 36.2536 213.609 8.8154 232.347 -3.71717C240.704 -9.29347 251.729 -10.9262 261.394 -8.28029C272.526 -5.22104 277.37 3.88293 285.901 10.5668C300.014 21.6111 327.261 15.2689 338.067 2.00271C342.68 -3.63754 344.883 -10.8862 346.682 -17.8372C348.723 -25.6725 349.657 -36.4854 355.918 -42.2711C367.632 -53.0798 383.049 -36.5645 392.368 -30.192C401.404 -24.0056 411.793 -21.0946 422.602 -23.8245C434.306 -26.7897 441.665 -35.1837 447.366 -45.3474C450.763 -51.3989 453.346 -58.0759 457.857 -63.4327C463.684 -70.3842 475.641 -75.7389 480.89 -64.9592C483.678 -59.1917 491.993 -64.7266 489.221 -70.4437L489.246 -70.4519Z" fill="#FFBDCE"/>
<path d="M602.694 248.072C604.659 269.788 585.759 291.492 563.309 290.105C540.374 288.68 521.055 267.76 497.04 277.557C488.507 281.05 483.758 287.985 480.969 296.508C477.376 307.433 470.653 325.574 455.407 322.933C445.226 321.178 439.782 308.515 431.13 303.511C423.775 299.253 414.99 297.518 406.537 298.176C386.888 299.688 375.003 312.11 367.993 329.538C363.181 341.498 358.328 353.249 344.548 356.665C329.562 360.39 319.482 349.872 307.355 343.493C290.477 334.626 269.002 337.787 256.199 352.341C249.582 359.855 247.411 369.512 243.291 378.384C236.375 393.279 222.628 396.713 208.409 389.707C190.419 380.838 173.481 368.793 155.935 386.11C146.977 394.968 142.166 407.873 131.607 415.137C119.737 423.327 104.225 422.691 92.2916 415.109C86.8696 411.67 82.3729 420.581 87.7616 424.003C105.707 435.388 129.652 432.648 144.334 417.206C151.46 409.721 155.839 399.848 163.397 392.752C174.961 381.908 186.748 388.953 198.263 395.503C215.984 405.598 237.627 407.748 249.636 387.835C255.611 377.916 256.802 365.241 265.53 357.042C276.892 346.347 292.543 346.383 305.454 353.897C314.506 359.188 322.702 365.87 333.438 367.195C343.89 368.501 354.862 365.078 362.737 358.101C371.671 350.197 374.406 338.939 379.207 328.483C384.365 317.161 393.28 309.708 405.775 308.238C417.927 306.823 427.349 311.633 435.397 320.337C442.707 328.223 450.312 334.707 461.743 332.526C469.852 330.978 476.928 325.651 481.874 319.152C489.825 308.73 488.637 290.349 502.799 286.058C518.428 281.319 533.473 291.727 547.633 296.667C558.217 300.349 569.055 301.39 579.78 297.548C600.233 290.213 614.664 269.459 612.658 247.618C612.08 241.216 602.108 241.645 602.694 248.072Z" fill="#FFBDCE"/>
</g>
</g>
<defs>
<clipPath id="clip0_405_55">
<rect y="165.121" width="534.825" height="205.797" rx="102.898" transform="rotate(-17.9833 0 165.121)" fill="white"/>
</clipPath>
<clipPath id="clip1_405_55">
<rect width="567" height="405" fill="white" transform="translate(-30.5457 69.8838) rotate(-17.9833)"/>
</clipPath>
</defs>
</svg>
