<svg width="775" height="391" viewBox="0 0 775 391" fill="none" xmlns="http://www.w3.org/2000/svg">
<path fill-rule="evenodd" clip-rule="evenodd" d="M77.5433 4.60632C64.5349 2.06232 51.9272 10.5454 49.3832 23.5538L9.65365 226.705C7.10964 239.714 15.5927 252.322 28.6011 254.866L288.661 305.724C290.609 306.225 292.759 306.709 295.125 307.176C325.005 313.069 350.827 336.237 366.723 350.499C379.686 362.13 386.047 367.837 382.622 353.418C376.522 327.738 397.871 326.903 409.308 329.696L407.98 329.059L701.847 386.53C714.856 389.074 727.464 380.591 730.008 367.582L769.737 164.431C772.281 151.422 763.798 138.814 750.79 136.27L77.5433 4.60632Z" fill="#FF9F00"/>
<g clip-path="url(#clip0_405_105)">
<g clip-path="url(#clip1_405_105)">
<path d="M704.746 109.131C704.58 106.467 703.671 103.96 701.587 101.955C701.276 101.646 700.934 101.368 700.592 101.122C696.131 93.8269 690.124 87.4058 682.791 82.5705C672.849 75.9795 661.618 72.7404 654.65 81.4455C651.798 81.1782 649.102 81.0962 646.778 81.0747C645.167 81.0812 643.711 81.2111 642.286 81.4338C633.906 78.1832 624.982 78.1266 621.183 88.833C619.743 92.8363 619.048 97.3014 618.82 102.013C617.306 103.134 615.917 104.565 614.747 106.275C606.675 117.959 607.937 138.561 611.181 151.532C616.725 173.635 640.346 190.954 660.678 184.333C662.288 184.078 663.866 183.421 665.442 182.392C676.327 184.393 688.211 180.688 697.615 169.091C711.675 151.805 713.036 128.496 704.715 109.162L704.746 109.131ZM657.574 129.744C657.244 124.88 657.348 119.984 657.762 115.117C658.383 115.362 658.973 115.67 659.625 116.039C659.998 116.254 660.309 116.501 660.651 116.748C661.537 121.361 661.284 127.715 657.574 129.775L657.574 129.744ZM621.734 140.426C621.508 138.227 621.437 135.965 621.459 133.734C623.535 141.41 626.633 148.897 629.852 155.453C631.7 160.342 634.045 165.477 637.004 169.214C635.45 168.229 634.021 167.119 632.714 165.947C625.716 159.468 622.608 149.688 621.734 140.426ZM690.658 157.623C687.579 162.501 683.843 165.863 679.916 167.924C682.503 163.854 684.993 159.01 687.202 153.702C687.725 152.646 688.185 151.528 688.614 150.411C690.282 148.917 691.202 146.682 690.574 144.515C690.573 144.422 690.635 144.329 690.634 144.236C693.878 141.806 696.184 137.272 697.032 132.404C697.216 132.124 697.401 131.844 697.555 131.534C697.84 140.643 695.615 149.825 690.658 157.623Z" fill="#FEDE93"/>
<path d="M333.012 7.91797C335.549 7.07095 337.743 5.60558 339.189 3.05865C339.405 2.68592 339.589 2.28232 339.742 1.90984C345.698 -4.25007 350.409 -11.6444 353.288 -19.93C357.208 -31.2257 357.533 -42.8786 347.381 -47.4545C346.905 -50.2725 346.336 -52.9042 345.769 -55.164C345.391 -56.7119 344.89 -58.1044 344.327 -59.4346C345.406 -68.3636 343.202 -77.0003 331.887 -78.0388C327.671 -78.4245 323.149 -78.0033 318.535 -77.0549C317.074 -78.2265 315.335 -79.242 313.38 -79.9468C300.035 -84.8506 280.415 -78.5111 268.666 -72.1107C248.661 -61.2453 237.74 -34.0552 249.217 -16.0048C249.874 -14.52 250.902 -13.1297 252.302 -11.8649C253.09 -0.836302 259.61 9.73514 273.177 16.0015C293.418 25.3086 316.331 20.846 332.981 7.98007L333.012 7.91797ZM301.332 -32.6407C305.974 -34.147 310.742 -35.313 315.572 -36.0763C315.482 -35.4252 315.361 -34.743 315.147 -34.0294C315.025 -33.626 314.871 -33.2536 314.718 -32.8811C310.45 -30.8495 304.258 -29.5227 301.332 -32.6097L301.332 -32.6407ZM282.083 -64.6971C284.187 -65.4494 286.322 -66.0779 288.489 -66.6135C281.564 -62.7118 275.076 -57.8202 269.549 -53.0875C265.254 -50.0951 260.868 -46.5446 258.002 -42.7214C258.552 -44.459 259.258 -46.1352 260.12 -47.6881C264.672 -56.0735 273.357 -61.5008 282.083 -64.6971ZM282.558 6.35699C277.066 4.58203 272.871 1.81016 269.914 -1.49354C274.506 0.00618817 279.81 1.19314 285.515 2.0066C286.662 2.24984 287.841 2.43097 289.05 2.55C290.914 3.78194 293.301 4.1131 295.249 2.95861C295.342 2.95823 295.435 2.95785 295.528 2.95747C298.699 5.51658 303.661 6.58098 308.586 6.18908C308.897 6.28078 309.238 6.40334 309.548 6.49504C300.789 9.04074 291.37 9.17204 282.558 6.326L282.558 6.35699Z" fill="#FEDE93"/>
<path d="M477.772 96.2036C475.466 85.2432 466.209 79.734 456.494 75.776C441.471 69.6085 418.485 63.7833 407.878 76.6247C406.425 77.4673 405.004 78.4647 403.676 79.7406C401.67 81.67 400.129 83.8455 398.931 86.2055C396.354 85.1314 393.195 85.5471 391.379 88.6223C380.609 106.98 379.15 136.797 396.379 152.221C405.772 160.611 417.205 160.286 427.753 155.843C446.898 162.055 464.176 143.702 471.733 127.588C476.034 118.429 479.921 106.421 477.741 96.1728L477.772 96.2036ZM425.787 137.227C425.321 136.795 424.854 136.332 424.449 135.869C425.438 135.059 426.395 134.156 427.351 133.223C428.279 132.785 429.238 132.255 430.165 131.662C430.446 132.312 430.697 132.992 430.979 133.642C431.761 135.498 433.16 136.732 434.743 137.376C434.342 137.719 433.94 138.061 433.539 138.373C433.292 138.56 433.044 138.716 432.797 138.903C430.444 139.222 428.086 138.55 425.818 137.227L425.787 137.227ZM402.652 140.296C404.111 140.91 405.694 141.399 407.43 141.702C408.422 141.884 409.445 141.911 410.468 141.906C411.341 143.266 412.276 144.564 413.272 145.768C409.273 145.413 405.61 143.692 402.652 140.296Z" fill="#FEDE93"/>
<path d="M586.745 47.945C586.58 45.5906 585.951 43.362 585.044 41.2585C584.744 36.0537 582.741 31.1657 578.139 27.2489C569.183 19.6003 551.381 15.7373 543.766 25.2507C535.124 26.2465 524.641 31.5881 519.052 36.3211C516.612 38.3762 516.724 43.024 519.087 45.0286C520.207 45.9847 521.326 46.8788 522.476 47.7108C518.32 54.5142 517.239 63.1023 520.526 71.1769C522.967 77.1477 527.386 81.654 532.759 84.638C536.556 88.62 541.521 90.552 547.216 88.7935C551.586 89.0546 555.984 88.5409 560.069 87.0988C575.417 81.7684 587.834 64.3334 586.744 47.9141L586.745 47.945ZM556.406 62.726C554.973 60.8725 553.908 57.933 553.183 54.961C553.521 54.3089 553.828 53.6259 554.135 52.9429C556.311 54.6384 557.528 56.8026 557.816 59.0326C557.449 60.1807 556.989 61.4221 556.406 62.695L556.406 62.726Z" fill="#FEDE93"/>
<path d="M574.163 200.179C573.999 197.825 573.37 195.596 572.463 193.493C572.163 188.288 570.16 183.4 565.558 179.483C556.602 171.835 538.8 167.972 531.185 177.485C522.543 178.481 512.06 183.822 506.471 188.555C504.031 190.611 504.143 195.258 506.506 197.263C507.626 198.219 508.745 199.113 509.895 199.945C505.739 206.749 504.658 215.337 507.945 223.411C510.386 229.382 514.805 233.888 520.178 236.903C523.975 240.885 528.94 242.817 534.635 241.059C539.005 241.32 543.403 240.806 547.488 239.364C562.836 234.034 575.253 216.599 574.163 200.179ZM543.825 214.96C542.392 213.107 541.326 210.167 540.602 207.195C540.94 206.543 541.247 205.86 541.554 205.177C543.73 206.873 544.947 209.037 545.235 211.267C544.868 212.415 544.408 213.656 543.825 214.929L543.825 214.96Z" fill="#FEDE93"/>
<path d="M123.545 139.51C123.381 137.156 122.752 134.927 121.845 132.824C121.545 127.619 119.542 122.731 114.94 118.814C105.984 111.166 88.1816 107.303 80.5664 116.816C71.925 117.812 61.442 123.154 55.8525 127.887C53.4129 129.942 53.5248 134.589 55.888 136.594C57.0074 137.55 58.1266 138.444 59.2765 139.276C55.1209 146.08 54.0403 154.668 57.3268 162.742C59.7682 168.713 64.1867 173.219 69.5597 176.203C73.3564 180.185 78.3222 182.117 84.0167 180.359C88.387 180.62 92.7852 180.106 96.8696 178.664C112.218 173.334 124.635 155.899 123.545 139.479L123.545 139.51ZM93.2377 154.26C91.8048 152.407 90.7392 149.467 90.0144 146.495C90.3526 145.843 90.6597 145.16 90.9668 144.477C93.1428 146.173 94.3602 148.337 94.6481 150.567C94.281 151.715 93.8212 152.956 93.2377 154.26Z" fill="#FEDE93"/>
<path d="M742.058 -80.3582C737.104 -86.8766 730.662 -93.7297 723.451 -99.2783C723.076 -100.02 722.701 -100.732 722.295 -101.443C720.668 -105.434 718.391 -109.081 715.373 -112.044C709.586 -117.722 695.579 -125.412 687.916 -120.144C675.693 -123.689 662.687 -121.342 654.433 -108.976C652.524 -106.117 650.957 -102.795 649.701 -99.164C649.333 -98.2639 648.965 -97.3327 648.628 -96.3707C645.954 -98.498 641.584 -98.7591 639.213 -95.0619C623.786 -71.1072 620.63 -39.4863 640.09 -16.7272C659.674 6.21738 691.893 4.16497 715.254 -11.7961C727.553 -20.182 739.653 -31.6969 748.031 -44.0643C756.687 -56.8047 750.532 -69.2679 742.089 -80.3583L742.058 -80.3582ZM682.16 -42.1538C680.425 -42.0538 678.78 -42.7598 677.193 -44.3648C680.11 -43.292 683.487 -43.5847 686.765 -45.1784C685.313 -44.0569 683.768 -43.028 682.16 -42.1538ZM670.346 -51.5881C671.223 -49.2986 672.501 -47.5375 673.994 -46.242C671.045 -47.3456 669.86 -49.1381 670.346 -51.5881ZM644.803 -31.1249C635.692 -46.52 637.603 -64.253 644.791 -79.6524C644.762 -79.3424 644.732 -79.0634 644.671 -78.7533C644.125 -75.8072 643.703 -72.9546 643.311 -70.257C641.294 -55.6843 641.837 -36.5358 649.851 -24.2041C647.984 -26.2417 646.27 -28.5279 644.772 -31.0938L644.803 -31.1249ZM736.296 -49.5944C737.399 -52.5118 738.131 -55.3657 738.523 -58.1563C738.536 -55.0265 737.71 -52.2342 736.296 -49.5944Z" fill="#FEDE93"/>
<path d="M278.952 102.559C278.952 102.559 278.889 102.343 278.858 102.25C276.691 95.2555 271.71 89.6669 265.743 85.2908C262.012 82.3002 257.819 79.9001 253.257 78.2143C251.86 77.6003 250.463 77.0172 249.098 76.4959C223.369 66.7154 199.834 78.0289 189.331 101.375C189.055 101.996 188.779 102.586 188.533 103.237C187.828 104.976 187.184 106.776 186.603 108.637C182.72 121.42 180.863 137.325 189.523 148.538C197.81 159.257 213.638 165.391 226.599 167.445C241.607 169.863 253.515 164.485 265.503 155.883C277.739 147.126 282.53 136.57 282.716 121.509C282.813 114.753 281.423 108.344 278.921 102.591L278.952 102.559ZM228.252 116.773C228.25 116.091 228.278 115.44 228.306 114.789C228.802 114.725 229.328 114.692 229.886 114.69C229.983 115.65 230.173 116.672 230.394 117.693C229.684 118.254 228.973 118.815 228.232 119.345C228.228 118.353 228.224 117.485 228.221 116.773L228.252 116.773ZM210.683 124.56C209.748 123.138 209.615 121.032 210.257 118.829C210.234 120.75 210.366 122.702 210.683 124.56ZM217.125 139.036C217.842 139.994 218.621 140.952 219.43 141.847C217.633 141.978 215.679 141.459 213.597 140.135C214.65 139.883 215.826 139.507 217.125 139.005L217.125 139.036ZM220.578 96.4135C220.268 96.4458 219.927 96.4781 219.617 96.5104C216.087 97.0206 212.838 98.2423 209.933 100.02C213.79 96.2242 218.178 93.1695 222.199 91.2938C223.622 90.6373 225.107 90.0735 226.592 89.6026C224.214 91.3786 222.24 93.7108 220.609 96.4134L220.578 96.4135ZM262.069 134.391C262.643 130.608 262.627 126.735 261.961 123.081C262.541 120.754 263.187 119.605 264.751 123.224C265.157 124.183 265.78 124.894 266.526 125.386C265.485 128.613 263.949 131.688 262.1 134.391L262.069 134.391ZM256.015 93.3874C254.776 93.5164 253.631 93.9239 252.673 94.6715C251.705 92.6922 250.397 91.0551 248.873 89.7288C250.083 90.1577 251.263 90.6488 252.442 91.2017C253.654 91.8786 254.865 92.6173 256.015 93.3874Z" fill="#FEDE93"/>
<path d="M442.714 220.718C438.289 206.916 428.519 197.132 416.776 189.836C408.324 176.638 396.69 165.592 385.172 160.185C364.153 150.292 343.095 153.693 326.284 164.98C325.944 165.074 325.603 165.168 325.263 165.325C320.438 167.451 317.012 170.812 314.518 174.851C307.606 181.975 301.94 190.613 297.95 200.205C289.664 220.04 286.97 243.199 287.491 264.61C287.939 283.511 298.643 294.251 316.173 299.696C324.147 302.173 332.645 304.091 341.295 305.233C359.701 312.596 381.948 312.195 396.62 300.732C410.823 295.716 423.556 287.266 433.109 274.305C434.712 272.129 436.158 269.799 437.481 267.439C437.697 267.066 437.881 266.694 438.097 266.321C445.353 252.44 447.547 235.759 442.714 220.749L442.714 220.718ZM411.991 232.371C410.381 225.188 407.564 218.135 404.316 211.888C403.713 208.451 402.677 205.201 401.301 202.108C401.301 202.046 401.3 201.984 401.3 201.922C403.566 202.781 405.709 203.918 407.79 205.211C410.738 213.845 413.636 225.423 411.991 232.371ZM371.548 170.404C368.914 170.477 366.251 170.86 363.65 171.459C361.261 170.663 358.842 170.053 356.423 169.567C361.409 169.02 366.492 169.247 371.579 170.373L371.548 170.404ZM332.243 197.803C330.892 200.752 329.82 203.824 328.996 206.958C327.046 207.43 325.158 208.12 323.303 209.057C323.453 207.941 323.604 206.918 323.786 205.987C326.439 203.033 329.279 200.294 332.243 197.803ZM315.699 267.005C316.633 268.024 317.567 269.074 318.5 270.061C317.942 269.878 317.414 269.632 316.855 269.386C316.449 268.613 316.074 267.809 315.668 267.005L315.699 267.005ZM329.093 284.025C330.115 283.959 331.137 283.862 332.19 283.703C333.372 284.844 334.586 286.017 335.861 287.189C335.086 287.192 334.281 287.196 333.506 287.168C331.952 286.183 330.492 285.135 329.093 284.056L329.093 284.025ZM377.067 293.095C377.81 292.751 378.521 292.346 379.201 291.909C384.186 290.928 389.165 288.522 393.919 284.226C395.031 283.199 395.987 282.11 396.912 280.991C395.408 284.437 393.467 287.265 391.183 289.598C386.604 291.166 381.898 292.332 377.098 293.126L377.067 293.095ZM411.405 263.579C415.018 260.403 418.32 256.981 421.155 253.313C422.049 252.132 422.881 250.951 423.62 249.708C421.482 257.371 416.945 261.883 411.405 263.548L411.405 263.579Z" fill="#FEDE93"/>
<path d="M216.139 246.723C214.351 241.431 209.928 235.747 204.206 230.843C202.177 227.133 199.405 223.736 195.861 220.899C175.995 205.083 146.976 216.574 139.261 239.722C130.659 265.447 143.958 289.625 171.665 290.69C196.056 291.613 225.861 275.316 216.139 246.692L216.139 246.723ZM161.691 261.261C161.69 260.889 161.688 260.486 161.686 260.083C163.208 260.883 164.975 261.093 166.554 260.745C166.744 261.829 166.997 262.913 167.28 263.965C165.294 263.26 163.369 262.37 161.66 261.261L161.691 261.261ZM172.876 238.067C173.336 236.919 173.858 235.77 174.504 234.621C174.781 234.093 174.965 233.596 175.118 233.069C176.944 232.597 179.02 232.433 181.407 232.702C185.716 233.243 190.124 235.022 193.946 237.641C194.258 238.29 194.571 238.939 194.821 239.589C194.572 239.342 194.323 239.064 194.044 238.818C187.481 232.895 178.837 233.24 172.907 238.005L172.876 238.067ZM204.214 263.35C202.129 268.719 197.991 272.362 193.012 274.768C193.352 274.395 193.66 274.022 193.968 273.618C198.574 270.748 202.09 266.86 204.49 262.45C204.398 262.76 204.337 263.071 204.214 263.35Z" fill="#FEDE93"/>
<path d="M624.7 267.777C617.363 269.511 611.991 274.212 608.514 280.3C591.173 290.782 594.004 316.491 610.747 326.525C629.913 338.006 660.402 329.794 665.978 306.499C671.219 284.569 645.844 262.794 624.669 267.777L624.7 267.777Z" fill="#FEDE93"/>
<path d="M534.588 351.222C534.628 338.238 519.327 324.634 506.93 324.189C491.93 323.661 483.28 337.92 479.489 350.61C477.961 355.698 478.537 360.251 480.443 364.179C480.444 364.396 480.476 364.612 480.508 364.86C482.486 378.766 497.31 381.804 509.26 378.936C509.6 378.872 509.91 378.747 510.219 378.653C520.875 377.711 531.386 371.656 534.441 360.86C535.449 357.323 535.374 354.132 534.526 351.222L534.588 351.222ZM507.584 347.985C506.065 347.713 504.546 347.595 503.059 347.725C503.646 347.32 504.389 346.976 505.286 346.693C506.215 346.41 507.392 346.313 508.631 346.401C508.323 346.836 507.985 347.395 507.584 347.985Z" fill="#FEDE93"/>
<path d="M757.627 212.262C754.602 207.471 749.937 203.368 743.325 200.389C726.778 192.927 702.715 188.717 691.384 206.644C691.354 206.706 691.292 206.799 691.261 206.861C689.593 208.107 688.454 210.095 688.494 212.171C682.539 226.14 684.623 243.175 692.7 255.879C697.316 263.142 703.876 268.569 711.359 272.257C713.752 273.921 716.299 275.305 718.937 276.317C723.654 278.126 727.87 278.45 731.709 277.69C736.266 278.044 740.851 277.901 745.342 277.201C764.728 274.209 773.2 254.559 773.964 236.552C774.474 224.929 767.16 216.964 757.596 212.262L757.627 212.262ZM717.766 209.542C717.766 209.542 717.765 209.232 717.734 209.108C717.733 208.984 717.732 208.829 717.701 208.675C717.636 208.024 717.54 207.343 717.476 206.692C718.994 206.686 720.544 206.835 722.094 207.045C720.579 207.733 719.157 208.545 717.797 209.542L717.766 209.542ZM715.708 259.565C714.868 258.794 713.966 257.899 713.063 256.942C713.746 257.28 714.46 257.587 715.174 257.863C716.545 259.593 718.069 261.136 719.779 262.431C719.437 262.277 719.065 262.155 718.724 262.001C717.698 261.293 716.703 260.491 715.708 259.565ZM751.011 261.715C752.982 258.546 754.703 255.161 756.208 251.839C757.322 251.463 758.342 250.746 759.019 249.783C758.437 251.428 757.762 253.011 757.086 254.47C755.581 257.637 753.483 260 751.011 261.715ZM760.03 246.711C760.029 246.556 760.059 246.401 760.059 246.246C760.054 245.006 759.925 243.767 759.765 242.559C760.407 240.481 760.894 238.402 761.289 236.356C761.519 239.701 760.976 243.298 760.03 246.711Z" fill="#FEDE93"/>
<path d="M724.274 384.63C709.212 376.696 693.944 371.212 676.855 374.969C662.18 378.189 646.498 385.349 635.291 395.466C613.124 415.544 605.647 459.113 620.441 485.207C623.282 490.215 626.862 494.291 630.934 497.59C644.364 523.473 688.168 535.597 713.101 524.99C730.331 517.669 748.9 504.392 756.544 486.698C758.079 483.128 759.117 479.374 759.628 475.53C763.944 469.996 767.11 463.693 768.631 456.59C775.503 424.489 750.483 398.406 724.305 384.599L724.274 384.63ZM626.987 456.547C627.179 458.002 627.432 459.396 627.686 460.758C627.352 462.495 627.793 464.322 628.915 465.711C629.26 466.826 629.698 467.877 630.105 468.929C629.116 469.646 628.346 470.734 627.95 472.285C627.95 472.347 627.95 472.409 627.919 472.471C622.87 457.555 626.109 438.794 630.855 424.861C631.958 421.603 633.433 418.56 635.156 415.702C628.487 429.147 625.483 444.87 626.956 456.547L626.987 456.547ZM718.027 440.992C718.369 441.27 718.68 441.547 719.022 441.825C718.691 444.212 718.267 446.724 717.751 449.329C717.626 449.175 717.502 449.051 717.408 448.897C717.738 446.292 717.945 443.657 718.027 440.992ZM703.856 431.04C703.709 432.931 703.499 434.791 703.197 436.652C701.457 435.544 699.718 434.497 698.072 433.574C697.446 432.027 696.788 430.48 696.07 428.965C697.148 427.473 700.719 429.163 703.856 431.04ZM689.243 472.438C690.019 472.776 690.764 473.083 691.509 473.39C691.078 474.104 690.648 474.85 690.155 475.533C689.657 475.102 689.19 474.608 688.723 474.114C688.381 473.619 688.038 473.094 687.663 472.538C688.19 472.536 688.717 472.471 689.243 472.438ZM687.328 451.126C685.503 451.753 683.522 452.288 681.509 452.761C681.23 452.514 680.919 452.268 680.639 452.021C680.638 451.866 680.607 451.711 680.575 451.525C682.836 451.33 685.067 451.197 687.328 451.126ZM663.04 482.895C662.543 482.773 662.078 482.589 661.581 482.467C657.322 479.045 653.804 474.907 651.305 470.145C652.326 469.707 653.285 469.145 654.18 468.429C655.048 468.394 655.946 468.359 656.814 468.294C658.287 472.533 659.915 476.462 661.602 479.926C662.04 480.947 662.509 481.937 663.009 482.926L663.04 482.895ZM656.567 407.589C656.259 408.21 655.952 408.831 655.676 409.483C654.07 410.853 652.526 412.254 651.045 413.747C652.74 411.478 654.56 409.394 656.567 407.589ZM641.254 490.049C640.316 488.008 639.687 485.81 639.43 483.518C644.035 488.116 649.595 491.41 655.708 493.554C657.386 494.756 659.157 495.895 660.99 496.91C653.797 496.072 647.002 493.868 641.223 490.049L641.254 490.049ZM661.781 508.682C662.587 508.741 663.362 508.769 664.168 508.797C665.039 509.723 666.065 510.586 667.215 511.325C666.966 511.202 666.718 511.11 666.47 510.987C664.948 510.281 663.365 509.513 661.781 508.682ZM736.419 414.639C734.55 412.354 732.312 410.627 729.797 409.305C730.592 406.792 730.581 404.127 729.61 401.528C739.431 408.615 747.834 417.629 752.863 427.37C749.12 421.312 743.154 417.339 736.45 414.639L736.419 414.639ZM756.753 454.283C756.534 453.819 756.315 453.355 756.097 452.891C757.158 447.185 757.475 441.389 756.275 435.878C758.035 441.976 758.309 448.203 756.784 454.314L756.753 454.283Z" fill="#FEDE93"/>
<path d="M150.801 -115.045C135.74 -122.978 120.471 -128.463 103.382 -124.706C88.7068 -121.486 73.0253 -114.325 61.8181 -104.209C39.6508 -84.1309 32.2053 -40.5621 46.9685 -14.4682C49.8088 -9.45962 53.3889 -5.38375 57.4617 -2.08458C70.8916 23.7979 114.695 35.922 139.628 25.3155C156.858 17.9941 175.427 4.7175 183.071 -12.9769C184.606 -16.5468 185.644 -20.3006 186.156 -24.1452C190.471 -29.6787 193.637 -35.9822 195.158 -43.0847C202.03 -75.1855 177.01 -101.269 150.832 -115.076L150.801 -115.045ZM53.5142 -43.1279C53.706 -41.6723 53.9596 -40.2788 54.213 -38.9164C53.8792 -37.1797 54.3205 -35.3532 55.4417 -33.9633C55.7872 -32.8181 56.2252 -31.7973 56.6323 -30.7453C55.6436 -30.0286 54.8734 -28.9409 54.4768 -27.3898C54.4771 -27.3279 54.4774 -27.2659 54.4466 -27.2038C49.3969 -42.1196 52.6362 -60.8806 57.3826 -74.8137C58.4848 -78.0719 59.9599 -81.1148 61.6835 -83.9727C55.014 -70.5276 52.0102 -54.8044 53.4832 -43.1278L53.5142 -43.1279ZM144.554 -58.6827C144.896 -58.4052 145.207 -58.1276 145.549 -57.8501C145.218 -55.4627 144.794 -52.9509 144.278 -50.3458C144.153 -50.5002 144.029 -50.6236 143.935 -50.7782C144.266 -53.3826 144.472 -56.0174 144.554 -58.6827ZM130.383 -68.6343C130.236 -66.7434 130.026 -64.8832 129.724 -63.0227C127.984 -64.1312 126.245 -65.1777 124.599 -66.1007C123.973 -67.6475 123.316 -69.1943 122.597 -70.7098C123.675 -72.2016 127.246 -70.5118 130.383 -68.6343ZM115.771 -27.2365C116.547 -26.8987 117.292 -26.5919 118.037 -26.285C117.606 -25.5706 117.175 -24.8251 116.682 -24.1413C116.184 -24.5732 115.717 -25.0671 115.251 -25.561C114.908 -26.0554 114.565 -26.5808 114.191 -27.1371C114.717 -27.1392 115.244 -27.2033 115.771 -27.2365ZM113.856 -48.5486C112.03 -47.9214 110.049 -47.3865 108.037 -46.9135C107.757 -47.1603 107.446 -47.4069 107.166 -47.6537C107.165 -47.8086 107.134 -47.9634 107.102 -48.1492C109.363 -48.3444 111.594 -48.4774 113.856 -48.5486ZM89.5358 -16.7796C89.0395 -16.9015 88.574 -17.0856 88.0777 -17.2075C83.8185 -20.6299 80.3 -24.768 77.8017 -29.53C78.8225 -29.968 79.7808 -30.5297 80.6765 -31.246C81.544 -31.2806 82.4425 -31.3152 83.3099 -31.3807C84.7836 -27.1413 86.4109 -23.2124 88.0983 -19.7486C88.5363 -18.7278 89.0051 -17.7381 89.505 -16.7485L89.5358 -16.7796ZM83.0938 -92.0858C82.7865 -91.4648 82.4791 -90.8438 82.2029 -90.1919C80.5971 -88.8219 79.0534 -87.4211 77.5721 -85.9277C79.2672 -88.1967 81.087 -90.2803 83.0938 -92.0858ZM67.7498 -9.62561C66.8119 -11.667 66.1832 -13.8646 65.9259 -16.1567C70.5308 -11.5582 76.0909 -8.26509 82.2042 -6.12079C83.8824 -4.91908 85.6533 -3.77973 87.4857 -2.76457C80.2932 -3.60297 73.498 -5.80647 67.7188 -9.62549L67.7498 -9.62561ZM88.2773 9.00774C89.0832 9.06643 89.858 9.09427 90.6638 9.12198C91.5352 10.0481 92.5613 10.9116 93.7109 11.6506C93.4625 11.5277 93.2142 11.4357 92.9658 11.3128C91.4446 10.6062 89.8611 9.83797 88.2773 9.00774ZM162.946 -85.0666C161.077 -87.3521 158.839 -89.0784 156.324 -90.4006C157.119 -92.9139 157.109 -95.5788 156.137 -98.1779C165.958 -91.0906 174.361 -82.0762 179.39 -72.3354C175.647 -78.3939 169.681 -82.3671 162.977 -85.0667L162.946 -85.0666ZM183.28 -45.3915C183.061 -45.8554 182.843 -46.3193 182.624 -46.7833C183.685 -52.4894 184.002 -58.2855 182.803 -63.7965C184.563 -57.699 184.836 -51.4715 183.311 -45.3606L183.28 -45.3915Z" fill="#FEDE93"/>
<path d="M92.295 257.609C91.4559 257.024 90.586 256.47 89.7161 255.916C86.9125 252.301 83.5212 248.937 79.4191 246.041C62.6687 234.21 37.1308 233.167 25.0607 252.057C24.4756 252.958 23.9218 253.952 23.3991 254.946C15.587 261.764 10.079 271.269 8.35409 281.44C6.15705 282.193 4.33639 284.059 4.25553 287.035C3.96336 298.997 10.2298 308.33 19.1795 314.553C28.5403 322.789 42.3431 326.08 55.8239 326.397C75.7816 326.842 89.5267 315.971 95.6347 301.599C95.6963 301.506 95.7889 301.413 95.8815 301.319C106.454 287.486 107.615 268.3 92.3258 257.578L92.295 257.609ZM75.7383 293.375C75.2074 292.355 74.6765 291.334 74.1456 290.345C74.6378 289.444 75.0677 288.482 75.4046 287.52C76.0945 289.531 76.1336 291.514 75.7073 293.375L75.7383 293.375ZM42.8314 278.573C42.9584 279.316 43.0855 280.09 43.2744 280.833C43.558 281.979 43.9345 283.124 44.311 284.269C43.1283 283.003 42.594 281.146 42.8314 278.573ZM59.489 275.22C60.6377 275.742 61.7545 276.048 62.84 276.291C62.9672 277.096 63.0016 277.933 63.005 278.77C61.1047 276.298 57.6955 276.157 55.1604 277.593C55.003 276.974 54.8146 276.386 54.6882 275.767L58.4949 274.605C58.8058 274.851 59.1165 275.067 59.4891 275.251L59.489 275.22ZM49.2079 307.335C51.9342 307.169 54.6278 306.6 57.1959 305.66C57.6941 306.247 58.2232 306.833 58.7833 307.389C56.338 308.05 53.8913 308.369 51.6908 308.285C50.6682 308.29 49.6453 308.201 48.6531 308.05C48.838 307.801 49.023 307.584 49.2079 307.335ZM80.8567 264.256C81.1993 264.689 81.5421 265.152 81.8538 265.616C82.8513 267.068 83.6943 268.614 84.4445 270.223C81.5524 267.693 78.1361 265.817 74.3511 264.686C73.5696 263.016 72.1385 261.627 70.402 261.324C70.2471 261.325 70.0609 261.264 69.8748 261.233C69.4074 260.584 68.8782 259.998 68.3489 259.38C72.8159 260.571 77.1298 262.195 80.8258 264.288L80.8567 264.256Z" fill="#FEDE93"/>
</g>
</g>
<defs>
<clipPath id="clip0_405_105">
<rect x="53.9895" width="733.098" height="254.86" rx="24" transform="rotate(11.0654 53.9895 0)" fill="white"/>
</clipPath>
<clipPath id="clip1_405_105">
<rect width="770" height="717" fill="white" transform="translate(2.39771 -161.791) rotate(-0.233205)"/>
</clipPath>
</defs>
</svg>
