<svg width="177" height="177" viewBox="0 0 177 177" fill="none" xmlns="http://www.w3.org/2000/svg">
<g clip-path="url(#clip0_405_63)">
<rect width="176.254" height="176.254" rx="88.1272" fill="#FF9F00"/>
<path d="M126.669 32.7287C123.795 31.5308 120.875 30.4087 117.94 29.3625C115.005 28.3162 112.01 27.3458 109.014 26.4512C106.018 25.5565 103.022 24.7529 99.981 24.0251C96.9396 23.2972 93.8982 22.6452 90.8416 22.069C87.785 21.4928 84.6675 20.9925 81.5653 20.5831C78.4631 20.1737 75.2848 19.8097 72.137 19.552C68.9892 19.2942 65.9174 19.1122 62.7999 19.0213C59.6825 18.9303 56.5651 18.9151 53.4476 18.9758C50.3302 19.0364 47.1824 19.1881 44.0649 19.4155C40.9475 19.6429 37.8605 19.9462 34.7583 20.3404C33.9523 20.4466 33.1463 20.5527 32.3404 20.6589C31.6865 20.7499 31.5192 21.69 31.9602 22.0994C35.4578 25.3594 39.6701 27.6794 44.1562 29.2867C48.6422 30.8939 53.3564 31.834 58.0706 32.4861C63.393 33.2291 68.761 33.6991 74.0987 34.245C80.075 34.8515 86.0666 35.4732 92.0429 36.0797C98.0193 36.6862 104.011 37.3079 109.987 37.9144C110.717 37.9903 111.432 38.0661 112.162 38.1419C112.603 38.1874 112.983 37.7628 113.029 37.3686C113.089 36.944 112.831 36.5043 112.39 36.3981C110.078 35.8219 107.813 35.0638 105.577 34.1995C105.03 33.9872 104.497 33.7749 103.95 33.5475C103.813 33.4868 103.691 33.4413 103.555 33.3807C103.403 33.32 103.737 33.4565 103.494 33.3504C103.433 33.32 103.357 33.2897 103.296 33.2745C103.022 33.1532 102.749 33.0319 102.475 32.9258C101.38 32.4406 100.285 31.9554 99.2054 31.4398C94.841 29.408 90.5526 27.2245 86.097 25.4049C81.6414 23.5853 77.2161 22.2813 72.5324 21.7658C67.8486 21.2502 63.2561 21.599 58.983 23.3124C54.7098 25.0258 51.3187 27.7703 48.3077 31.0001C45.2967 34.2298 42.5899 38.0357 40.0199 41.7507C37.2826 45.6931 34.667 49.7265 32.2035 53.8357C29.74 57.9448 27.3829 62.1753 25.1779 66.4513C22.9729 70.7273 20.9199 75.0791 19.0038 79.5067C18.5172 80.644 18.0306 81.7812 17.5592 82.9336C17.1486 83.9192 16.738 84.9199 16.4339 85.951C16.1297 86.9821 15.9472 88.0435 16.0081 89.0898C16.0841 90.227 16.4339 91.2581 17.1486 92.1527C18.5172 93.851 20.7831 94.1088 22.7904 93.6842C24.7977 93.2596 26.5465 92.2437 28.2649 91.1823C31.7625 89.0291 35.1689 86.694 38.4688 84.2528C41.7687 81.8115 45.0838 79.158 48.2621 76.4589C49.0528 75.7918 49.8284 75.1246 50.6039 74.4574C50.9993 74.1238 51.3947 73.7751 51.7749 73.4263C51.8205 73.3808 51.8661 73.3505 51.9117 73.305L51.9421 73.2747C51.7597 73.4112 51.8053 73.3808 52.0638 73.1837C52.155 73.1079 52.2463 73.0169 52.3375 72.9411C52.5352 72.7592 52.7481 72.5772 52.9458 72.3952C54.4817 71.0306 56.0024 69.6507 57.5231 68.2557C60.5797 65.4506 63.5907 62.5999 66.6017 59.7341C69.6126 56.8683 72.5932 54.0024 75.6194 51.1518C78.6456 48.3011 81.6262 45.5263 84.6828 42.7969C87.7394 40.0676 90.872 37.3686 94.0655 34.7908C94.8714 34.1388 95.6774 33.502 96.4834 32.8651C96.6811 32.7135 96.8635 32.5619 97.0612 32.4102C97.1068 32.3799 97.1373 32.3496 97.1829 32.3193C96.9852 32.4709 97.3806 32.1676 97.1829 32.3193C97.2893 32.2435 97.3958 32.1525 97.5022 32.0767C97.9128 31.7582 98.3234 31.455 98.734 31.1517C100.361 29.9235 102.019 28.7256 103.707 27.5732C107.067 25.2684 110.519 23.1001 114.078 21.1138C115.811 20.1585 117.575 19.2335 119.355 18.3692L117.986 16.6103C114.23 19.5823 110.535 22.5997 106.87 25.6778C103.205 28.7559 99.6008 31.8947 96.0424 35.0941C92.4839 38.2935 89.0015 41.5232 85.5496 44.8136C82.0976 48.104 78.7064 51.4551 75.3609 54.8516C72.0153 58.2481 68.7306 61.7053 65.4916 65.208C62.2525 68.7106 59.0742 72.2588 55.9568 75.8524C52.8394 79.4461 49.7675 83.1004 46.7566 86.8002C43.7456 90.4999 40.7042 94.3514 37.7692 98.1876C36.3094 100.098 34.8799 102.009 33.4505 103.934C32.021 105.86 30.622 107.756 29.2685 109.712C26.5465 113.654 24.0373 118.066 23.718 122.934C23.642 124.116 23.718 125.299 23.9309 126.467C24.0069 126.922 24.4936 127.255 24.9194 127.316C25.406 127.377 25.8318 127.149 26.1055 126.755C28.6755 123.025 31.2911 119.325 33.9675 115.655C36.6439 111.986 39.3508 108.362 42.1184 104.768C42.2705 104.571 42.4226 104.374 42.5746 104.162C42.6659 104.056 42.7419 103.934 42.8332 103.828C42.8788 103.768 42.9244 103.722 42.9548 103.661C43.1373 103.419 42.8484 103.798 43.0004 103.601C43.3502 103.161 43.6848 102.721 44.0345 102.266C44.7188 101.387 45.4184 100.492 46.1179 99.6129C47.5321 97.8237 48.9464 96.0496 50.391 94.2907C53.2499 90.788 56.1393 87.3157 59.0894 83.8888C62.0396 80.462 65.0201 77.0655 68.0615 73.7144C71.1029 70.3634 74.1747 67.0427 77.2922 63.7826C80.4096 60.5226 83.5726 57.2777 86.7813 54.0934C89.99 50.9092 93.2595 47.7401 96.5594 44.6317C99.8593 41.5233 103.205 38.4451 106.581 35.4277C109.957 32.4102 113.363 29.4383 116.815 26.527C117.651 25.8143 118.488 25.1168 119.324 24.4041L117.56 22.6452C115.081 25.2078 112.618 27.7855 110.154 30.3784C107.691 32.9713 105.273 35.5793 102.855 38.2177C100.437 40.8561 98.0497 43.5096 95.6774 46.2086C93.3051 48.9077 90.9632 51.6218 88.667 54.3815C86.3707 57.1412 84.1201 59.8857 81.9151 62.6909C79.7101 65.4961 77.4594 68.4529 75.3 71.3793C73.1407 74.3058 71.1485 77.1564 69.1564 80.1132C67.1643 83.07 65.2787 86.0117 63.4538 89.0291C61.629 92.0466 59.8802 95.0792 58.2074 98.1725C56.5346 101.266 54.9531 104.404 53.4628 107.604C51.9726 110.803 50.5279 114.124 49.2201 117.445C47.9123 120.765 46.7414 124.041 45.6617 127.392C45.1294 129.075 44.6124 130.773 44.141 132.471C43.6695 134.17 43.1829 135.822 42.894 137.536C42.5746 139.401 42.4986 141.372 43.2438 143.146C43.852 144.571 44.9621 145.86 46.4068 146.482C46.5285 146.527 46.6501 146.588 46.7718 146.634C46.2547 146.421 46.7718 146.634 46.863 146.679C46.9238 146.709 46.9999 146.725 47.0607 146.755C47.2128 146.8 47.3648 146.846 47.5169 146.891C47.9123 146.982 48.3229 147.043 48.7183 147.073C49.4482 147.134 50.1629 147.058 50.8777 146.922C52.3527 146.664 53.7974 146.073 55.1052 145.36C56.5042 144.602 57.812 143.662 59.0134 142.615C60.2147 141.569 61.2792 140.356 62.3589 139.173C64.716 136.58 66.9818 133.897 69.126 131.122C71.2702 128.347 73.46 125.345 75.4217 122.312C77.3834 119.279 79.1018 116.353 80.7289 113.26C82.3561 110.166 83.8616 106.861 85.1542 103.54C86.4468 100.219 87.496 97.0201 88.3476 93.669C89.1992 90.318 89.8531 86.7698 90.2485 83.2672C90.6287 79.9616 90.7807 76.6257 90.6439 73.2899C90.5222 70.2118 90.1573 67.1488 89.5642 64.1314C88.9711 61.1139 88.2108 58.3088 87.2223 55.5036C86.2339 52.6984 84.9717 49.772 83.5422 47.0426C82.1128 44.3133 80.5921 41.872 78.8281 39.4914C77.0641 37.1108 75.0719 34.7454 72.9126 32.6377C70.7532 30.53 68.4569 28.6346 65.9934 26.9515C63.5299 25.2684 61.0663 23.9189 58.3899 22.7817C55.7135 21.6445 52.7481 20.674 49.7828 20.0978C49.4178 20.022 49.068 19.9917 48.7183 20.1282C48.4902 20.2191 48.2621 20.3101 48.0492 20.4466C47.6386 20.7195 47.3192 21.0379 47.0455 21.4322C46.6045 22.069 46.4372 22.8727 46.3916 23.6308C46.2852 25.1471 46.7718 26.6028 47.3192 27.9978C48.9007 31.9099 50.4975 35.8068 52.079 39.7188C53.6605 43.6309 55.2573 47.5278 56.8388 51.4399C58.4203 55.352 60.017 59.2792 61.6138 63.2064C63.2105 67.1337 64.792 71.0154 66.3736 74.9275C67.9551 78.8395 69.5518 82.7365 71.1333 86.6485C72.7149 90.5606 74.3116 94.4878 75.9083 98.4151C77.5051 102.342 79.0866 106.224 80.6681 110.136C82.2496 114.048 83.8464 117.945 85.4279 121.857C86.1882 123.753 86.9638 125.633 87.7242 127.528C88.1043 128.468 88.4845 129.408 88.8647 130.333C89.0472 130.803 89.2448 131.273 89.4273 131.743C89.4729 131.865 89.5186 131.971 89.5642 132.092C89.5946 132.168 89.8531 132.79 89.7619 132.547C89.7011 132.38 89.7619 132.577 89.7923 132.608C89.8227 132.668 89.8379 132.729 89.8683 132.79C89.9292 132.926 89.9748 133.048 90.0356 133.184L92.1494 131.956C92.0581 131.834 91.9517 131.713 91.8604 131.592C91.8148 131.546 91.7844 131.486 91.7388 131.44C91.6932 131.38 91.6019 131.258 91.8148 131.546C91.7844 131.516 91.754 131.471 91.7388 131.44C91.5563 131.198 91.3586 130.955 91.1761 130.697C90.8112 130.212 90.4462 129.712 90.0812 129.211C89.3665 128.21 88.6822 127.179 88.0131 126.148C86.6749 124.086 85.4279 121.963 84.257 119.795C83.086 117.627 81.9607 115.398 80.9114 113.154C79.8621 110.909 78.8281 108.589 77.8548 106.285C77.8548 106.254 77.8244 106.224 77.8092 106.194C77.7484 106.042 77.9156 106.467 77.8548 106.315C77.8244 106.254 77.8092 106.194 77.7788 106.133C77.718 105.981 77.6419 105.83 77.5811 105.663C77.4594 105.375 77.3378 105.087 77.2161 104.799C76.9728 104.223 76.7295 103.631 76.5014 103.055C76.03 101.903 75.5586 100.735 75.1024 99.5826C74.1747 97.2475 73.2471 94.8972 72.3195 92.5621C71.3919 90.227 70.4794 87.9222 69.5214 85.6174C68.5634 83.3127 67.5293 80.8562 66.48 78.506C65.4763 76.277 64.4271 74.0632 63.317 71.8797C62.2069 69.6962 61.0511 67.5886 59.7889 65.5264C58.5268 63.4642 57.2494 61.493 55.8351 59.5673C54.4209 57.6416 52.7937 55.6401 51.121 53.8205C49.4482 52.0009 47.7602 50.3936 45.9202 48.847C45.4488 48.4528 44.9774 48.0737 44.4907 47.6946C44.1714 47.452 43.8672 47.2094 43.5479 46.9668C43.4414 46.8758 43.3198 46.7848 43.1981 46.709C42.8028 46.4664 42.3313 46.4967 41.9207 46.6635C40.6738 47.1487 39.6853 47.9676 38.9706 49.1048C38.3471 50.0904 37.9821 51.2579 37.7845 52.4103C37.5716 53.6537 37.5107 54.9122 37.5563 56.1708C37.6172 57.6416 37.8149 59.1124 37.9821 60.5681C38.1798 62.2663 38.3775 63.9797 38.5904 65.678C39.0314 69.1504 39.5333 72.6075 40.0807 76.0647C40.6282 79.5219 41.2212 82.7971 41.8599 86.1481C42.4986 89.4992 43.2133 92.8654 43.9737 96.2164C44.734 99.5675 45.54 102.858 46.4068 106.163C47.1976 109.211 48.0187 112.259 48.9464 115.261C49.7828 117.96 50.7408 120.629 51.9421 123.207C53.1435 125.784 54.5425 128.135 56.3217 130.288C58.101 132.441 60.1083 134.17 62.4502 135.489C64.64 136.717 67.0427 137.551 69.5214 137.96C72.0001 138.37 74.5549 138.4 77.0641 138.066C79.5732 137.733 82.1888 137.081 84.6219 136.11C87.055 135.14 89.4121 133.912 91.5715 132.395C93.7309 130.879 95.7382 129.135 97.5022 127.164C99.4791 124.95 101.228 122.54 102.749 120.007C104.269 117.475 105.501 114.958 106.626 112.304C107.752 109.651 108.831 106.709 109.759 103.843C110.687 100.978 111.462 98.2483 112.253 95.4431C113.135 92.2437 114.002 89.0291 114.884 85.8297C115.811 82.4332 116.739 79.0367 117.667 75.6401C118.594 72.2436 119.522 68.8168 120.45 65.4051C121.377 61.9934 122.305 58.612 123.232 55.2155C124.16 51.819 125.088 48.3921 126.015 44.9804C126.472 43.2973 126.943 41.5991 127.399 39.916C127.855 38.2329 128.342 36.5498 128.753 34.8667C129.559 31.5914 130.015 27.9826 128.372 24.8894C127.095 22.4784 124.495 20.4618 121.636 20.7347C121.043 20.7953 120.526 21.0986 120.358 21.7051C119.081 26.2389 117.819 30.7726 116.587 35.3216C115.355 39.8705 114.139 44.4194 112.937 48.9683C111.736 53.5172 110.58 58.051 109.424 62.5999C108.269 67.1488 107.143 71.7281 106.018 76.3073C104.893 80.8866 103.813 85.4355 102.749 89.9996C101.684 94.5636 100.62 99.1732 99.6008 103.768C98.5819 108.362 97.5631 112.956 96.5746 117.566C95.5862 122.176 94.6129 126.74 93.6549 131.334C92.6968 135.928 91.7692 140.523 90.872 145.132C89.9748 149.742 89.0624 154.367 88.1956 159.007C87.9827 160.129 87.7698 161.266 87.5569 162.388C87.496 162.737 87.496 163.07 87.6937 163.374C87.8458 163.647 88.1651 163.889 88.4693 163.965C89.1232 164.117 89.8987 163.768 90.0508 163.07C90.8416 159.568 91.6475 156.065 92.4383 152.562C93.2291 149.06 94.0046 145.587 94.7954 142.085C95.5862 138.582 96.3465 135.095 97.0916 131.592C97.8368 128.089 98.5971 124.571 99.3271 121.054C100.057 117.536 100.772 114.048 101.471 110.53C102.171 107.013 102.84 103.51 103.494 99.992C104.148 96.4742 104.771 92.926 105.379 89.393C105.988 85.86 106.55 82.3422 107.098 78.8092C107.645 75.2762 108.178 71.5613 108.664 67.9373C109.151 64.3133 109.577 60.8258 109.987 57.2473C110.078 56.3831 110.185 55.5188 110.276 54.6696L110.23 55.0335C110.443 53.5021 110.565 51.9554 110.717 50.424C110.824 49.2412 110.96 48.0585 111.021 46.8606C111.143 44.7833 111.067 42.6908 110.763 40.6286C110.489 38.7029 109.926 36.762 108.907 35.0789C107.889 33.3958 106.246 31.8644 104.285 31.1517C103.707 30.9546 103.235 31.2124 102.779 31.5308C102.46 31.7582 102.156 32.0008 101.867 32.2435C101.471 32.577 101.106 32.941 100.772 33.3352C100.027 34.2147 99.3879 35.1699 98.8709 36.2162C97.8368 38.2784 97.1981 40.4922 96.7115 42.7211C96.1184 45.3898 95.6318 48.0889 95.1451 50.7727C94.6281 53.6234 94.1415 56.4892 93.6853 59.355C92.7577 65.1625 91.9669 71.0002 91.2978 76.8532C90.6287 82.7061 90.1268 88.362 89.7315 94.1391C89.3361 99.9162 89.0776 105.693 88.9407 111.47C88.8038 117.248 88.8038 123.07 88.9255 128.862C88.9863 131.713 89.0624 134.564 89.1992 137.399C89.3057 139.932 89.5034 142.464 89.8531 144.966C90.2029 147.468 90.7351 149.712 91.6019 151.956C92.5295 154.321 93.7613 156.611 95.5101 158.476C96.4225 159.462 97.5174 160.265 98.7948 160.72C100.072 161.175 101.471 161.145 102.718 160.705C105.197 159.825 107.007 157.824 108.573 155.807C111.736 151.728 114.108 147.134 115.994 142.342C117.88 137.551 119.172 132.85 120.389 127.998C121.605 123.146 122.776 118.248 123.841 113.351C124.905 108.453 125.878 103.419 126.715 98.4151C127.551 93.4113 128.236 88.2103 128.722 83.07C129.209 77.9298 129.452 73.0776 129.452 68.0586C129.452 63.0396 129.194 58.1875 128.616 53.2898C128.038 48.3921 127.156 43.4793 125.848 38.7029C124.54 33.9266 122.852 29.2563 120.769 24.7681C119.765 22.5997 118.655 20.4769 117.469 18.3996C117.317 18.1418 117.089 17.9598 116.83 17.8537C116.526 17.7324 116.268 17.7324 115.948 17.7931C114.078 18.0812 112.618 19.5065 111.812 21.1593C111.006 22.812 110.626 24.7681 110.474 26.6483C110.276 29.0592 110.185 31.4853 110.094 33.9114C110.002 36.3375 109.926 38.9 109.881 41.4019C109.789 46.4209 109.82 51.4551 109.972 56.474C110.048 58.9759 110.154 61.4627 110.276 63.9646C110.337 65.2231 110.413 66.4817 110.504 67.7554C110.504 67.907 110.519 68.0586 110.535 68.2102C110.535 68.3164 110.535 68.5438 110.58 68.6348L110.55 68.4832C110.55 68.4832 110.55 68.6045 110.55 68.6651C110.565 68.9987 110.595 69.3323 110.611 69.6507C110.656 70.2573 110.702 70.8486 110.732 71.4551C111.112 76.4589 111.584 81.4628 112.192 86.4514C112.8 91.4401 113.53 96.55 114.367 101.569C115.203 106.588 116.146 111.425 117.195 116.323C118.245 121.22 119.431 126.088 120.708 130.94C121.347 133.366 122.031 135.792 122.731 138.203C123.339 140.28 123.932 142.342 124.829 144.314C125.62 146.042 126.639 147.695 127.947 149.075C129.254 150.455 130.821 151.455 132.676 151.698C133.604 151.819 134.546 151.744 135.444 151.471C135.717 151.38 135.961 151.228 136.128 151.001C136.326 150.743 136.371 150.515 136.417 150.197C137.147 144.738 137.709 139.28 138.074 133.79C138.439 128.301 138.591 122.843 138.5 117.369C138.409 111.895 138.044 106.482 137.36 101.069C136.675 95.6554 135.672 90.1209 134.273 84.7531C132.874 79.3854 131.155 74.3361 129.011 69.3475C127.247 65.2383 125.164 61.2504 122.807 57.4445C120.45 53.6385 117.636 49.8023 114.64 46.2996C111.645 42.7969 108.558 39.734 105.151 36.8379C101.745 33.9417 98.0041 31.273 94.0959 29.0137C90.1877 26.7544 86.0666 24.859 81.7934 23.4186C77.5203 21.9781 73.0646 20.9925 68.5634 20.5072C64.0621 20.022 59.2111 20.1585 54.6186 20.9773C50.0261 21.7961 45.6465 23.3276 41.7231 25.7385C37.7997 28.1494 34.3933 31.4853 31.9906 35.458C29.5879 39.4307 28.2953 43.5703 27.7022 47.9524C27.0635 52.6681 27.246 57.399 27.9151 62.0995C28.5842 66.8001 29.7248 71.2883 31.1846 75.7311C32.7205 80.4165 34.591 85.0109 36.5983 89.5143C38.6056 94.0178 41.0083 98.7487 43.6848 103.1C46.3612 107.452 49.4026 111.637 52.8546 115.413C56.3065 119.188 60.0475 122.449 64.2598 125.193C66.3127 126.527 68.4569 127.74 70.6923 128.787C70.9661 128.923 71.2398 129.044 71.5287 129.166L71.8176 129.287C71.6504 129.211 71.62 129.196 71.7112 129.242C71.772 129.272 71.8329 129.287 71.8937 129.317C72.061 129.393 72.2282 129.454 72.3803 129.53C73.019 129.803 73.6577 130.06 74.2964 130.318C75.4369 130.758 76.5926 131.152 77.7484 131.516C82.4017 132.926 87.3288 133.639 92.2102 133.411C94.7041 133.29 97.1981 132.941 99.616 132.335C102.034 131.728 104.695 130.667 105.881 128.271C107.067 125.875 106.672 123.085 105.973 120.599C105.349 118.385 104.558 116.186 103.752 114.033C102.125 109.666 100.255 105.39 98.1257 101.251C95.9967 97.111 93.7309 93.2293 91.2065 89.4082C88.6822 85.5871 85.8081 81.7357 82.7971 78.142C79.7861 74.5484 76.7295 71.2732 73.4296 68.1041C70.1297 64.935 66.48 61.8266 62.7543 58.9911C62.3133 58.6423 61.8571 58.3088 61.4009 57.9752C61.1728 57.8084 60.9447 57.6264 60.7014 57.4596C60.6405 57.4141 60.5797 57.3687 60.5341 57.3383L60.4733 57.2928C60.7318 57.49 60.6861 57.4596 60.3668 57.2019C60.2451 57.1109 60.1387 57.0351 60.017 56.9441C59.0894 56.2769 58.1466 55.6097 57.1885 54.9729C55.2877 53.684 53.3412 52.4558 51.3643 51.2731C49.3874 50.0904 47.3953 48.9835 45.3575 47.9372C43.3198 46.891 41.2821 45.8599 39.1835 44.9804C38.043 44.4952 36.8872 44.0555 35.6859 43.7674C34.4845 43.4793 33.2984 43.3125 32.1123 43.4035C30.9261 43.4944 29.6639 43.7977 28.6451 44.4952C27.535 45.2382 26.6986 46.2541 26.1815 47.4823C25.2083 49.772 25.3451 52.3194 25.482 54.7606C25.6341 57.399 25.8622 60.0222 26.1511 62.6454C26.7594 67.9525 27.6414 73.2292 28.8123 78.4453C29.9833 83.6614 31.4127 88.6501 33.1311 93.6387C34.8495 98.6273 36.8872 103.661 39.1683 108.514C41.4493 113.366 43.8977 117.9 46.6349 122.388C49.3722 126.876 52.1855 131 55.4093 134.988C58.6332 138.976 61.8875 142.297 65.7957 145.239C69.4758 148.013 73.6273 150.182 78.0981 151.349C78.7824 151.531 79.4363 151.122 79.6645 150.47C80.6985 147.331 81.1547 143.98 81.0483 140.69C80.9418 137.399 80.3184 134.063 79.2387 130.925C78.159 127.786 76.6231 124.693 74.7222 121.903C72.8213 119.113 70.5707 116.52 68.0007 114.306C65.0962 111.804 61.8571 109.712 58.2835 108.271C54.9379 106.922 51.2426 106.194 47.6386 106.558C44.3082 106.891 40.9931 107.998 38.2711 109.984C36.8416 111.016 35.6099 112.229 34.5758 113.654C33.5417 115.079 32.827 116.641 32.386 118.294C31.4584 121.736 31.7625 125.436 32.8726 128.787C33.9827 132.138 35.838 135.261 38.1798 137.96C40.1415 140.22 42.4226 142.191 44.9165 143.828C47.4105 145.466 50.0565 146.74 52.8241 147.725C55.5918 148.711 58.4051 149.378 61.2944 149.772C64.3662 150.197 67.4533 150.379 70.5403 150.288C73.6273 150.197 76.836 149.833 79.9382 149.287C83.0404 148.741 85.9601 147.998 88.8799 147.043C91.7996 146.088 94.765 144.92 97.5935 143.556C100.665 142.085 103.661 140.402 106.398 138.385C109.136 136.368 111.827 133.881 113.865 130.985C116.009 127.953 117.363 124.435 117.925 120.765C118.533 116.778 118.397 112.744 118.016 108.741C117.682 105.163 117.18 101.584 116.511 98.0512C115.842 94.5182 115.051 91.1823 114.078 87.8161C113.105 84.4499 111.994 81.114 110.717 77.8388C109.44 74.5636 107.965 71.1822 106.368 67.9525C104.771 64.7227 103.098 61.7053 101.274 58.6878C99.4487 55.6704 97.4718 52.7742 95.3885 49.9539C93.3051 47.1336 90.9632 44.2678 88.5605 41.5687C86.1578 38.8697 83.7551 36.4436 81.1699 34.063C79.923 32.9106 78.6304 31.8189 77.2161 30.8485C75.8019 29.878 74.3116 29.1047 72.7301 28.483C69.856 27.3306 66.4344 26.8909 63.6211 28.4527C62.2068 29.2412 60.9751 30.5604 60.3212 32.0463C59.941 32.9106 59.7281 33.7598 59.6369 34.6999C59.5608 35.5338 59.6369 36.383 59.7889 37.2018C60.0779 38.8849 60.7774 40.4922 61.6138 41.9781C62.511 43.5854 63.6059 45.0714 64.7768 46.4664C65.9478 47.8614 67.2099 49.1199 68.4417 50.424C69.7647 51.819 71.0725 53.2291 72.3651 54.6545C74.9655 57.49 77.5051 60.3709 79.9838 63.3126C81.2156 64.7834 82.4473 66.2694 83.6487 67.7705C84.2418 68.5135 84.8196 69.2565 85.4127 69.9995C85.4887 70.1056 85.5648 70.1966 85.6408 70.3027C85.8385 70.5605 85.4887 70.1056 85.6864 70.3634C85.8385 70.5605 85.9906 70.7576 86.1426 70.9548C86.4316 71.3338 86.7357 71.7281 87.0246 72.1223C89.3361 75.1853 91.5563 78.3088 93.6549 81.5082C95.7534 84.7077 97.7303 87.9829 99.5704 91.3339C100.483 93.017 101.365 94.7153 102.216 96.4287C102.612 97.2323 102.992 98.0208 103.357 98.8396C103.433 99.0064 103.509 99.1581 103.57 99.3249C103.57 99.3249 103.433 99.0064 103.509 99.1884C103.524 99.2339 103.539 99.2642 103.555 99.3097C103.6 99.4007 103.631 99.5068 103.676 99.5978C103.813 99.9314 103.935 100.265 104.056 100.614C104.558 102.009 104.954 103.449 105.212 104.905C105.243 105.072 105.273 105.238 105.288 105.405C105.288 105.466 105.349 105.815 105.303 105.557C105.258 105.299 105.303 105.648 105.319 105.708C105.364 106.072 105.395 106.436 105.41 106.8C105.455 107.498 105.44 108.195 105.379 108.893C105.379 109.044 105.349 109.211 105.334 109.363C105.319 109.56 105.349 109.196 105.349 109.196C105.349 109.241 105.349 109.302 105.334 109.348C105.334 109.423 105.303 109.499 105.303 109.575C105.273 109.712 105.227 110.136 105.273 109.833C105.273 109.787 105.303 109.59 105.273 109.833C105.273 109.909 105.243 109.984 105.227 110.06C105.197 110.212 105.151 110.348 105.121 110.5C105.03 110.803 104.938 111.107 104.817 111.41C104.771 111.516 104.665 111.759 104.832 111.364C104.802 111.425 104.771 111.501 104.741 111.561C104.68 111.698 104.619 111.834 104.543 111.956C104.391 112.229 104.239 112.502 104.056 112.759C104.041 112.79 103.965 112.926 103.92 112.941C103.92 112.941 104.132 112.668 104.011 112.82C103.98 112.85 103.965 112.881 103.935 112.911C103.828 113.032 103.737 113.154 103.615 113.275C103.403 113.502 103.174 113.715 102.931 113.912C102.901 113.942 102.87 113.957 102.84 113.988C102.688 114.109 102.962 113.897 102.962 113.897C102.916 113.957 102.825 113.988 102.764 114.033C102.612 114.139 102.46 114.23 102.308 114.336L104.178 115.762C104.802 111.546 105.425 107.331 106.049 103.131C106.672 98.9306 107.296 94.7304 107.919 90.5454C108.542 86.3604 109.166 82.1451 109.789 77.9601C110.413 73.7751 111.036 69.5598 111.66 65.3747C112.223 61.5537 112.785 57.7174 113.5 53.9115C114.215 50.1055 115.066 46.3603 116.207 42.6908C116.769 40.8712 117.408 39.082 118.123 37.3231C118.169 37.2169 118.214 37.1108 118.26 37.0047C118.275 36.9592 118.305 36.8985 118.321 36.853C118.214 37.1714 118.245 37.0198 118.29 36.944C118.397 36.7014 118.488 36.4739 118.594 36.2465C118.792 35.8068 118.99 35.367 119.203 34.9273C119.568 34.154 119.963 33.3807 120.374 32.6225C121.149 31.2124 122.001 29.8325 122.928 28.5133C123.156 28.1949 123.384 27.8765 123.628 27.5581C123.749 27.4064 123.856 27.2548 123.978 27.1032C124.008 27.0577 124.038 27.0274 124.069 26.9819C124.175 26.8454 123.886 27.2093 123.993 27.088C124.069 26.997 124.145 26.9061 124.221 26.7999C124.723 26.1782 125.24 25.5565 125.772 24.9652C126.836 23.7825 127.977 22.6452 129.178 21.599C129.482 21.3412 129.787 21.0834 130.106 20.8257C130.258 20.7044 130.395 20.5831 130.547 20.4769C130.577 20.4466 130.623 20.4163 130.653 20.3859C130.349 20.6285 130.486 20.5224 130.547 20.4618C130.638 20.3859 130.729 20.3253 130.836 20.2495C131.475 19.7794 132.113 19.3245 132.782 18.9C134.105 18.0508 135.504 17.3078 136.964 16.671C137.056 16.6255 137.375 16.5042 136.964 16.671C137.056 16.6407 137.132 16.5952 137.223 16.5648C137.421 16.489 137.618 16.4132 137.816 16.3374C138.181 16.2009 138.546 16.0645 138.911 15.9583C139.656 15.7157 140.416 15.5034 141.177 15.3215C141.937 15.1395 142.682 15.003 143.458 14.8969L143.093 14.9424C144.324 14.7756 145.587 14.7908 146.818 14.9424L146.453 14.8969C147.077 14.9879 147.7 15.1092 148.309 15.2911C148.598 15.3821 148.887 15.4731 149.16 15.5792C149.267 15.6247 149.54 15.746 149.115 15.5489C149.176 15.5792 149.236 15.6096 149.297 15.6247C149.434 15.6854 149.571 15.7612 149.708 15.8219C149.966 15.9583 150.225 16.11 150.468 16.2767C150.529 16.3071 150.575 16.3526 150.635 16.3829C150.681 16.4132 150.924 16.5952 150.696 16.4284C150.499 16.2767 150.696 16.4284 150.727 16.4587C150.787 16.5042 150.848 16.5648 150.909 16.6255C151.122 16.8075 151.32 17.0197 151.502 17.232C151.548 17.2775 151.7 17.4746 151.533 17.2623C151.365 17.0501 151.533 17.2623 151.563 17.2927C151.654 17.414 151.73 17.5353 151.806 17.6566C151.882 17.7931 151.958 17.9295 152.019 18.066C152.034 18.0963 152.05 18.1266 152.065 18.1721C152.156 18.3692 152.004 18.066 152.004 18.0357C152.004 18.0812 152.065 18.1873 152.08 18.2479C152.202 18.5967 152.293 18.9606 152.339 19.3397L152.293 18.9758C152.354 19.4913 152.339 20.0069 152.293 20.5224L152.339 20.1585C152.247 20.7953 152.08 21.417 151.867 22.0235C151.761 22.3268 151.639 22.6301 151.517 22.9333C151.426 23.1608 151.548 22.8878 151.548 22.8575C151.548 22.9333 151.472 23.0395 151.441 23.1001C151.365 23.2669 151.289 23.4185 151.228 23.5853C150.651 24.8439 150.073 26.0872 149.495 27.3458C148.339 29.8325 147.183 32.3344 146.028 34.8212C143.701 39.8401 141.374 44.844 139.063 49.8629C136.751 54.8819 134.394 59.916 132.068 64.9502C129.741 69.9843 127.414 74.973 125.103 79.9919C122.791 85.0109 120.45 90.0147 118.138 95.0337C117.849 95.6554 117.56 96.2619 117.286 96.8836C117.013 97.5053 117.074 98.1725 117.636 98.597C118.153 99.0064 118.914 98.9609 119.385 98.4909C122.214 95.7312 125.042 92.9564 127.871 90.1967C130.699 87.437 133.528 84.6622 136.356 81.9025C139.185 79.1428 142.028 76.3528 144.872 73.578C147.716 70.8031 150.529 68.0434 153.357 65.2838C156.186 62.5241 159.014 59.7493 161.843 56.9896C162.193 56.6408 162.542 56.3072 162.892 55.9585L161.615 56.2921C161.615 56.2921 161.706 56.3224 161.752 56.3376C161.904 56.3831 161.432 56.1859 161.615 56.2769C161.691 56.3224 161.767 56.3527 161.858 56.3982C161.949 56.4437 162.01 56.4892 162.086 56.5347C162.193 56.6105 162.406 56.8076 162.071 56.5044C162.193 56.6105 162.299 56.7015 162.421 56.8228C162.482 56.8834 162.527 56.9441 162.573 57.0047C162.664 57.0957 162.36 56.7015 162.466 56.8683C162.482 56.8986 162.512 56.9289 162.542 56.9744C162.634 57.0957 162.71 57.2322 162.771 57.3687C162.786 57.399 162.801 57.4445 162.816 57.4748C162.907 57.6567 162.755 57.3535 162.755 57.3232C162.771 57.399 162.816 57.4748 162.847 57.5506C162.953 57.8842 163.029 58.2178 163.075 58.5665L163.029 58.2178C163.12 58.9456 163.09 59.6886 162.999 60.4316L163.044 60.0828C162.938 60.8865 162.74 61.675 162.497 62.4331C162.375 62.797 162.238 63.1609 162.086 63.5249C161.98 63.7826 162.223 63.2064 162.086 63.5097C162.041 63.6007 162.01 63.6916 161.965 63.7675C161.873 63.9797 161.767 64.1769 161.66 64.3891C160.657 66.421 159.638 68.4529 158.573 70.4544C156.475 74.4574 154.255 78.3998 151.928 82.2816C149.601 86.1633 147.168 89.9844 144.629 93.7297C142.089 97.475 139.428 101.175 136.675 104.784C136.326 105.238 135.976 105.693 135.626 106.148C135.58 106.209 135.474 106.345 135.672 106.088C135.641 106.133 135.596 106.179 135.565 106.224C135.474 106.33 135.383 106.451 135.307 106.558C135.124 106.785 134.957 107.013 134.775 107.24C134.06 108.15 133.345 109.044 132.63 109.939C131.961 110.773 131.292 111.607 130.577 112.411C130.243 112.79 129.893 113.154 129.513 113.487C129.422 113.563 129.346 113.639 129.254 113.699C129.178 113.76 129.011 113.851 129.315 113.654C129.27 113.684 129.239 113.715 129.194 113.745C128.981 113.897 128.768 114.033 128.54 114.154C128.448 114.2 128.327 114.245 128.236 114.306L128.418 114.23C128.418 114.23 128.327 114.26 128.281 114.291C128.236 114.306 128.19 114.321 128.144 114.336C127.886 114.427 127.627 114.488 127.354 114.518L127.703 114.473C127.262 114.533 126.806 114.518 126.365 114.473L126.715 114.518C126.198 114.442 125.711 114.321 125.225 114.154C124.981 114.063 124.738 113.972 124.495 113.881C124.282 113.79 124.54 113.897 124.571 113.912C124.525 113.881 124.464 113.866 124.403 113.836C124.267 113.775 124.13 113.715 124.008 113.654C123.035 113.199 122.077 112.714 121.119 112.244C119.203 111.304 117.287 110.379 115.355 109.469C111.493 107.634 107.6 105.86 103.691 104.132C99.7833 102.403 95.723 100.659 91.7084 98.9913C87.6937 97.3233 83.7855 95.7615 79.8013 94.2149C75.8171 92.6683 71.8024 91.1823 67.7726 89.7418C63.7427 88.3013 59.7281 86.9063 55.6831 85.572C51.638 84.2376 47.5169 82.9184 43.411 81.675C39.3051 80.4317 35.2449 79.249 31.139 78.0966C27.0331 76.9442 22.8816 75.8524 18.7301 74.8213C16.662 74.3058 14.5938 73.7902 12.5257 73.305C10.9137 72.926 9.28658 72.5924 7.61382 72.562C5.94105 72.5317 4.43556 72.744 2.9909 73.4415C1.54624 74.139 0.405713 75.534 0.101574 77.1261C-0.324221 79.3703 0.649025 81.4779 1.896 83.2823C3.14297 85.0867 4.40515 86.6334 5.69774 88.2861C8.16127 91.4552 10.7008 94.5788 13.2404 97.6872C15.78 100.796 18.3347 103.874 20.8743 106.982C23.4139 110.091 25.9534 113.214 28.4322 116.368C28.7363 116.762 29.0404 117.157 29.3598 117.551C29.4054 117.612 29.6639 117.945 29.4358 117.657C29.5119 117.748 29.5727 117.839 29.6335 117.915C29.8008 118.127 29.9529 118.339 30.1201 118.536C30.7436 119.34 31.3519 120.144 31.9602 120.947C33.1615 122.539 34.3325 124.147 35.4882 125.769C37.7997 129.014 40.0199 132.32 42.088 135.716C43.1221 137.414 44.1258 139.143 45.0838 140.887C45.5704 141.781 46.057 142.661 46.5133 143.571C46.7566 144.026 46.9847 144.496 47.2128 144.951C47.3192 145.178 47.4257 145.39 47.5169 145.618C47.5321 145.663 47.5625 145.724 47.5777 145.769C47.4713 145.466 47.5321 145.663 47.5777 145.739C47.6386 145.875 47.6842 145.997 47.7298 146.133C47.9123 146.618 48.0644 147.104 48.186 147.589C48.2468 147.816 48.2925 148.059 48.3381 148.286C48.3381 148.362 48.3533 148.423 48.3685 148.499C48.3989 148.665 48.3381 148.241 48.3685 148.408C48.3837 148.544 48.3989 148.696 48.4141 148.832C48.4445 149.242 48.4445 149.651 48.4141 150.06C48.4141 150.227 48.3837 150.379 48.3685 150.546C48.4141 150.076 48.3837 150.424 48.3685 150.531C48.3533 150.637 48.3381 150.743 48.3077 150.849C48.2316 151.198 48.1404 151.531 48.034 151.865C47.9883 152.016 47.9275 152.183 47.8667 152.335C47.7754 152.578 48.0035 152.016 47.8667 152.335C47.8211 152.426 47.7906 152.517 47.745 152.593C47.5929 152.911 47.4257 153.214 47.228 153.518C47.0303 153.821 46.8478 154.139 46.6197 154.397C46.6197 154.397 46.8326 154.124 46.7109 154.276C46.6805 154.306 46.6653 154.336 46.6349 154.367C46.5741 154.443 46.5133 154.503 46.4676 154.579C46.346 154.731 46.2091 154.867 46.0875 155.019C45.8289 155.292 45.5704 155.549 45.2967 155.807C45.023 156.065 44.734 156.308 44.4299 156.55C44.3691 156.611 44.293 156.656 44.2322 156.717C44.1866 156.747 44.141 156.778 44.1106 156.823C43.9737 156.929 44.3843 156.611 44.2018 156.763C44.0497 156.884 43.8977 156.99 43.7304 157.111C42.4378 158.036 41.0387 158.825 39.6093 159.522C38.9098 159.871 38.1798 160.159 37.4803 160.493C37.4803 160.493 37.8149 160.356 37.6172 160.432C37.5716 160.447 37.5411 160.462 37.4955 160.477C37.4043 160.508 37.313 160.553 37.2218 160.584C37.0545 160.659 36.872 160.72 36.7048 160.781C36.3398 160.902 35.99 161.069 35.6251 161.19L36.9329 163.434C39.077 160.932 41.2364 158.43 43.411 155.944C45.5856 153.457 47.7298 151.001 49.9196 148.529C52.1094 146.057 54.2992 143.586 56.5042 141.145C58.7092 138.703 60.9295 136.247 63.1497 133.806C65.3699 131.364 67.5901 128.969 69.8255 126.558C72.061 124.147 74.3268 121.721 76.5926 119.325C78.8585 116.929 81.1243 114.533 83.4206 112.153C85.7168 109.772 87.9827 107.422 90.2637 105.056C92.5448 102.691 94.8714 100.341 97.1981 97.9905C99.5248 95.6402 101.851 93.3051 104.193 90.97C106.535 88.6349 108.862 86.3453 111.204 84.0405C113.546 81.7357 115.933 79.4309 118.305 77.1413C120.678 74.8517 123.065 72.562 125.468 70.2876C127.871 68.0131 130.243 65.769 132.646 63.5249C135.048 61.2807 137.481 59.0214 139.914 56.7925C142.348 54.5635 144.766 52.3497 147.199 50.151C149.632 47.9524 152.095 45.7234 154.574 43.5248C157.053 41.3261 159.516 39.1426 161.995 36.9592C164.474 34.7757 166.952 32.6377 169.431 30.4845C171.91 28.3314 174.434 26.1782 176.959 24.0402C178.175 23.0091 179.392 21.9781 180.624 20.947C181.141 20.5072 181.11 19.5671 180.624 19.1274C180.076 18.627 179.346 18.6573 178.799 19.1274C176.274 21.2502 173.75 23.3882 171.241 25.5414C168.732 27.6945 166.253 29.8325 163.774 31.9857C161.295 34.1388 158.802 36.3223 156.323 38.521C153.844 40.7196 151.381 42.9031 148.932 45.1169C146.484 47.3307 144.051 49.5142 141.618 51.728C139.185 53.9418 136.751 56.1859 134.318 58.4301C131.885 60.6742 129.482 62.9335 127.08 65.1928C124.677 67.4521 122.305 69.7114 119.933 71.9858C117.56 74.2603 115.173 76.5651 112.8 78.8547C110.428 81.1443 108.071 83.4643 105.729 85.7842C103.387 88.1042 101.061 90.409 98.734 92.7441C96.4073 95.0792 94.0807 97.4295 91.7692 99.7797C89.4577 102.13 87.1463 104.495 84.8652 106.876C82.5842 109.257 80.3031 111.607 78.0373 113.988C75.7715 116.368 73.4904 118.779 71.2398 121.19C68.9892 123.601 66.7537 125.997 64.5335 128.408C62.3133 130.819 60.0627 133.275 57.8577 135.716C55.6526 138.157 53.4324 140.614 51.2274 143.085C49.0224 145.557 46.863 147.998 44.6884 150.47C42.5138 152.941 40.3392 155.443 38.1798 157.93C37.1306 159.143 36.0965 160.356 35.0472 161.569C34.667 162.009 34.4997 162.661 34.8343 163.192C34.956 163.389 35.1232 163.54 35.3209 163.677C35.5794 163.844 36.0661 163.92 36.355 163.813C36.6896 163.692 37.0393 163.556 37.3739 163.419C37.4955 163.374 37.6324 163.313 37.754 163.267C37.754 163.267 37.4195 163.404 37.6172 163.313C37.6932 163.283 37.7845 163.252 37.8605 163.207C38.119 163.101 38.3775 162.995 38.636 162.888C39.3051 162.6 39.9743 162.297 40.6434 161.979C41.9816 161.342 43.2742 160.614 44.5059 159.795C45.7377 158.976 46.939 158.021 47.9579 156.914C48.9768 155.807 49.8132 154.549 50.3758 153.154C50.9233 151.835 51.1514 150.349 51.0297 148.923C50.8777 146.831 50.0717 144.89 49.1441 143.04C47.4865 139.765 45.616 136.58 43.6696 133.472C41.7231 130.364 39.6701 127.301 37.5411 124.298C35.4122 121.296 33.1159 118.248 30.8045 115.276C28.493 112.304 26.2272 109.469 23.8853 106.603C21.5434 103.737 19.2015 100.871 16.8445 98.0057C14.4874 95.1398 12.1607 92.274 9.86445 89.3627C9.30179 88.6501 8.72393 87.9222 8.16127 87.1944C8.02441 87.0124 7.88754 86.8456 7.75068 86.6637C7.68985 86.5727 7.61382 86.4817 7.55299 86.4059C7.50737 86.3453 7.43133 86.2088 7.59861 86.4666C7.5682 86.4059 7.50737 86.3604 7.47696 86.2998C7.20323 85.9359 6.9143 85.5719 6.64057 85.208C5.53046 83.7524 4.31391 82.3119 3.4319 80.7046C3.32545 80.5075 3.219 80.3104 3.12776 80.1132C3.11255 80.0678 2.94528 79.7342 3.05173 79.9313C3.15818 80.1284 3.00611 79.7948 2.9909 79.7493C2.83883 79.3399 2.73238 78.9154 2.67155 78.4908L2.71717 78.8396C2.67155 78.4605 2.65635 78.0662 2.71717 77.6872L2.67155 78.0359C2.70197 77.854 2.73238 77.672 2.778 77.5052C2.778 77.4597 2.94528 77.0806 2.93007 77.0655C2.94528 77.0806 2.76279 77.4294 2.88445 77.1716C2.91486 77.1261 2.93007 77.0655 2.96048 77.02C3.02131 76.9138 3.08214 76.8077 3.14297 76.7016C3.17338 76.6561 3.2038 76.6106 3.23421 76.5651C3.40149 76.3376 3.09735 76.7319 3.17338 76.6409C3.24942 76.5499 3.31025 76.4741 3.40149 76.3831C3.47752 76.2922 3.56876 76.2163 3.66001 76.1405C3.70563 76.1102 3.73604 76.0799 3.78166 76.0495C3.44711 76.3376 3.59918 76.186 3.69042 76.1102C3.88811 75.9737 4.0858 75.8524 4.2987 75.7463C4.38994 75.7008 4.49639 75.6553 4.58763 75.6098C4.11621 75.8221 4.54201 75.625 4.67887 75.5795C5.1655 75.4127 5.66733 75.3066 6.16916 75.2307L5.8194 75.2762C7.03595 75.1094 8.25251 75.1701 9.46907 75.3217L9.11931 75.2762C10.5031 75.4582 11.8566 75.8221 13.2252 76.1557C14.898 76.5651 16.5555 76.9745 18.2283 77.3839C21.5586 78.2179 24.8737 79.0973 28.1889 79.9919C31.504 80.8866 34.8039 81.8267 38.1038 82.7971C41.4037 83.7675 44.6884 84.7683 47.9579 85.7994C51.2274 86.8305 54.4969 87.8919 57.7512 88.9988C61.0055 90.1057 64.2446 91.2278 67.4837 92.3802C70.7227 93.5326 73.9314 94.7304 77.1401 95.9586C80.3488 97.1869 83.5422 98.4302 86.7205 99.7191C88.3172 100.356 89.8987 101.008 91.4803 101.675C91.8756 101.842 92.271 102.009 92.6664 102.176C92.8641 102.251 93.0466 102.342 93.2443 102.418C93.3355 102.464 93.442 102.494 93.5332 102.539C93.5332 102.539 93.2899 102.433 93.4268 102.494C93.4876 102.524 93.5636 102.555 93.6245 102.585C94.4152 102.918 95.206 103.252 95.9967 103.586C99.1598 104.935 102.292 106.315 105.425 107.725C108.558 109.135 111.675 110.576 114.777 112.047C116.328 112.79 117.88 113.533 119.415 114.276C120.951 115.019 122.609 115.928 124.282 116.55C125.133 116.869 126.046 117.081 126.958 117.111C127.931 117.141 128.859 116.914 129.726 116.52C131.125 115.868 132.205 114.67 133.163 113.502C135.337 110.864 137.451 108.18 139.504 105.466C141.557 102.752 143.473 100.113 145.374 97.3688C147.275 94.6243 149.115 91.8495 150.909 89.0443C152.704 86.2391 154.422 83.3885 156.095 80.4923C157.767 77.5962 159.379 74.6849 160.931 71.7432C161.706 70.2724 162.466 68.7864 163.212 67.3005C163.865 65.9964 164.535 64.7076 165.021 63.3277C165.432 62.145 165.69 60.8865 165.766 59.6279C165.842 58.3694 165.66 57.1564 165.128 56.0343C164.595 54.9122 163.577 54.1238 162.406 53.6992C161.965 53.5476 161.432 53.7295 161.128 54.0328C158.3 56.7925 155.471 59.5521 152.643 62.327C149.814 65.1018 146.986 67.8463 144.157 70.6212C141.329 73.396 138.47 76.1709 135.641 78.9457C132.813 81.7205 129.984 84.465 127.156 87.2399C124.327 90.0147 121.499 92.7592 118.67 95.5341C118.321 95.8828 117.971 96.2164 117.621 96.5652L119.72 98.1725C121.362 94.6243 123.02 91.061 124.662 87.5128C126.304 83.9647 127.947 80.4317 129.589 76.8987C131.231 73.3657 132.889 69.7872 134.531 66.239C136.174 62.6909 137.816 59.1579 139.458 55.6249C141.101 52.0919 142.758 48.5134 144.401 44.9653C146.043 41.4171 147.685 37.8841 149.328 34.3511C150.149 32.577 150.97 30.803 151.806 29.0289C152.643 27.2548 153.54 25.4049 154.315 23.555C155.091 21.7051 155.486 19.8552 155.015 17.9447C154.696 16.6558 153.951 15.4731 152.947 14.6088C150.803 12.7438 147.944 12.0311 145.206 12.0008C143.762 11.9856 142.332 12.1979 140.918 12.5163C139.504 12.8347 138.135 13.2441 136.797 13.7748C133.908 14.9272 131.262 16.5042 128.798 18.4147C126.472 20.2191 124.388 22.3268 122.548 24.6164C120.708 26.9061 118.959 29.5596 117.575 32.2889C115.948 35.4883 114.656 38.8697 113.606 42.2966C112.557 45.7234 111.812 49.1503 111.158 52.6226C110.504 56.095 109.987 59.5976 109.47 63.1003C108.907 66.9365 108.345 70.788 107.782 74.6242C107.219 78.4605 106.657 82.3422 106.094 86.1936C105.532 90.0451 104.969 93.942 104.406 97.8085C103.844 101.675 103.281 105.527 102.718 109.378C102.444 111.258 102.171 113.123 101.897 115.003C101.821 115.519 101.897 115.989 102.353 116.338C102.749 116.641 103.326 116.702 103.768 116.444C104.923 115.731 105.881 114.791 106.611 113.654C107.28 112.608 107.676 111.41 107.919 110.197C108.436 107.543 108.056 104.723 107.372 102.145C106.611 99.2794 105.334 96.6107 104.011 93.9723C102.505 90.9548 100.863 87.9829 99.1294 85.0867C97.3958 82.1906 95.5557 79.3551 93.6245 76.5651C91.6932 73.7751 89.5642 70.8941 87.4352 68.1344C85.3062 65.3747 83.2077 62.8122 81.0027 60.2345C78.7977 57.6567 76.5318 55.079 74.2356 52.5468C73.095 51.2883 71.9393 50.0449 70.7836 48.8015C69.6279 47.5581 68.533 46.4664 67.4685 45.2534C67.2252 44.9804 66.9818 44.6923 66.7537 44.4042C66.6321 44.2526 66.5104 44.1161 66.404 43.9645C66.3431 43.8887 66.2975 43.828 66.2367 43.7522C66.0998 43.5854 66.2975 43.828 66.3127 43.8432C66.2671 43.7977 66.2367 43.7371 66.1911 43.6916C65.7197 43.085 65.2787 42.4482 64.8681 41.8113C64.4575 41.1745 64.0773 40.5225 63.7428 39.8402C63.6667 39.6734 63.5755 39.5066 63.4994 39.3549C63.469 39.2791 63.4234 39.2033 63.393 39.1275C63.3474 39.0365 63.2105 38.6726 63.3778 39.082C63.2561 38.7484 63.1193 38.43 63.0128 38.0964C62.7999 37.4595 62.6326 36.8075 62.5414 36.1404L62.587 36.5043C62.4958 35.8068 62.4806 35.1093 62.5718 34.4118L62.5262 34.7757C62.5566 34.5028 62.6174 34.245 62.6783 33.972C62.7391 33.6991 62.876 33.4565 62.9368 33.1987C62.9368 33.1684 62.7999 33.502 62.8607 33.3807C62.8607 33.3504 62.8912 33.32 62.9064 33.2897C62.9368 33.2291 62.9672 33.1532 62.9976 33.0926C63.0584 32.9713 63.1345 32.85 63.1953 32.7135C63.2561 32.577 63.3474 32.4709 63.4234 32.3496C63.4538 32.2889 63.4994 32.2435 63.5451 32.1828C63.5603 32.1525 63.5907 32.1221 63.6059 32.107C63.7275 31.9402 63.5299 32.2283 63.5146 32.2131C63.5451 32.2131 64.0165 31.6369 64.0925 31.5763C64.1838 31.4853 64.2902 31.3943 64.3814 31.3033C64.4271 31.2579 64.4727 31.2275 64.5183 31.182C64.5487 31.1669 64.5639 31.1365 64.5943 31.1214C64.7312 31.0001 64.4575 31.2124 64.4575 31.2275C64.4727 31.1669 64.716 31.0456 64.7768 31.0001C64.8985 30.9243 65.0049 30.8485 65.1266 30.7878C65.233 30.7271 65.3243 30.6817 65.4307 30.621C65.4763 30.5907 65.5372 30.5755 65.5828 30.5452C65.6132 30.5452 65.6284 30.5149 65.6588 30.5149C65.8565 30.4239 65.3699 30.6362 65.522 30.5755C66.0542 30.3784 66.6017 30.2268 67.1795 30.1509L66.8146 30.1964C67.5901 30.0903 68.3809 30.1206 69.1564 30.2116L68.7915 30.1661C69.4302 30.2571 70.0536 30.3936 70.6771 30.5755C70.9965 30.6665 71.3158 30.7726 71.62 30.8939C71.772 30.9546 71.9393 31.0152 72.0914 31.0759C72.1674 31.1062 72.2434 31.1365 72.3195 31.1669C72.4107 31.1972 72.5476 31.273 72.1826 31.1062C72.2282 31.1214 72.2739 31.1365 72.3043 31.1669C73.5817 31.7279 74.7982 32.4102 75.9539 33.1836C76.2429 33.3807 76.5318 33.5778 76.8055 33.7901C76.8816 33.8507 76.9576 33.8962 77.0336 33.9569C77.0793 33.9872 77.3226 34.1692 77.1097 34.0175C76.8968 33.8659 77.1401 34.0327 77.1857 34.0782C77.2617 34.1388 77.3226 34.1843 77.3986 34.245C77.9309 34.6847 78.4479 35.1396 78.9649 35.6097C80.0902 36.6407 81.2004 37.7022 82.2801 38.7787C84.4546 40.9319 86.538 43.1609 88.5149 45.4808C89.5186 46.6484 90.4918 47.8462 91.4499 49.0441C91.5563 49.1806 91.6628 49.3171 91.7844 49.4687C91.8452 49.5445 91.8909 49.6052 91.9517 49.681C91.9821 49.7265 92.0125 49.7568 92.0429 49.8023C91.9821 49.7265 91.8604 49.5597 91.9973 49.7416C92.2254 50.0449 92.4687 50.3482 92.6968 50.6514C93.153 51.2579 93.6092 51.8796 94.0655 52.4861C95.8599 54.9577 97.5631 57.5051 99.1446 60.098C100.726 62.6909 102.232 65.3748 103.615 68.0889C104.315 69.4536 104.969 70.8183 105.623 72.2133C105.942 72.9108 106.261 73.6083 106.566 74.3058C106.718 74.6545 106.87 75.0033 107.022 75.352C107.052 75.4279 107.098 75.5188 107.128 75.5947C106.961 75.2004 107.098 75.534 107.128 75.625C107.204 75.8069 107.28 75.9737 107.341 76.1557C108.512 78.976 109.561 81.8418 110.519 84.738C111.477 87.6341 112.299 90.5758 112.998 93.5477C113.698 96.5197 114.306 99.5068 114.762 102.524C114.884 103.267 114.99 104.01 115.081 104.753L115.036 104.404C115.431 107.361 115.751 110.348 115.842 113.336C115.903 114.928 115.887 116.52 115.766 118.112C115.735 118.506 115.705 118.9 115.659 119.31C115.659 119.416 115.629 119.507 115.629 119.613C115.629 119.659 115.629 119.704 115.614 119.734C115.583 119.962 115.614 119.659 115.614 119.643C115.583 119.84 115.553 120.038 115.522 120.235C115.401 121.023 115.249 121.797 115.051 122.57C114.853 123.343 114.625 124.101 114.352 124.844C114.291 125.011 114.215 125.193 114.154 125.36C114.123 125.451 114.093 125.527 114.047 125.618C114.047 125.648 114.017 125.678 114.002 125.724C113.941 125.875 114.139 125.405 114.032 125.648C113.895 125.951 113.758 126.27 113.606 126.573C113.013 127.771 112.329 128.908 111.538 129.985C111.447 130.106 111.356 130.242 111.265 130.364C111.234 130.409 111.052 130.637 111.188 130.455C111.325 130.273 111.128 130.53 111.097 130.576C110.884 130.834 110.671 131.091 110.459 131.349C110.033 131.85 109.577 132.335 109.105 132.805C108.147 133.775 107.128 134.685 106.049 135.519C105.988 135.565 105.927 135.61 105.881 135.656C105.851 135.686 105.608 135.868 105.775 135.731C105.942 135.595 105.714 135.777 105.668 135.807C105.592 135.868 105.516 135.928 105.425 135.989C105.151 136.201 104.862 136.399 104.589 136.596C104.026 136.99 103.463 137.369 102.901 137.733C101.73 138.476 100.528 139.189 99.3119 139.841C98.0953 140.493 96.9244 141.069 95.7078 141.63C95.1604 141.888 94.5977 142.13 94.035 142.373C93.8982 142.433 93.7765 142.479 93.6397 142.54C93.4876 142.6 93.9134 142.418 93.7765 142.479C93.7461 142.479 93.7157 142.509 93.6853 142.524C93.6092 142.555 93.518 142.585 93.442 142.631C93.153 142.752 92.8793 142.858 92.5904 142.979C90.2941 143.889 87.9522 144.678 85.5648 145.33C83.1773 145.982 80.7289 146.527 78.2806 146.907C77.9765 146.952 77.6571 146.998 77.353 147.043C77.2161 147.058 77.0641 147.089 76.9272 147.104C76.8207 147.104 76.5318 147.149 76.9728 147.104C76.8968 147.104 76.8207 147.119 76.7447 147.134C76.1212 147.21 75.5129 147.286 74.8895 147.346C73.6729 147.468 72.4411 147.559 71.2246 147.604C68.7915 147.695 66.3431 147.634 63.91 147.392C63.3322 147.331 62.7543 147.27 62.1764 147.195L62.5262 147.24C60.0779 146.907 57.6448 146.391 55.2877 145.663C54.6946 145.481 54.1167 145.284 53.5389 145.072C53.2499 144.966 52.9762 144.86 52.6873 144.753C52.5504 144.708 52.4136 144.647 52.2767 144.587C52.2159 144.556 52.1398 144.526 52.079 144.511C52.0334 144.496 51.7445 144.374 51.9878 144.465C52.2311 144.556 51.9878 144.465 51.9117 144.435C51.8357 144.405 51.7597 144.374 51.6836 144.344C51.5468 144.283 51.3947 144.223 51.2578 144.162C50.9841 144.041 50.7104 143.919 50.4367 143.783C49.9044 143.525 49.3722 143.252 48.8399 142.964C47.7754 142.373 46.7414 141.736 45.7377 141.038C45.4944 140.872 45.2511 140.69 45.0078 140.508C44.8861 140.417 44.7797 140.341 44.658 140.25C44.4451 140.083 44.8861 140.417 44.7036 140.295C44.6428 140.25 44.5668 140.189 44.5059 140.144C44.0193 139.765 43.5479 139.371 43.0917 138.961C42.1641 138.142 41.2973 137.263 40.4761 136.353C40.0655 135.883 39.6549 135.398 39.2747 134.913C39.1379 134.731 39.4572 135.155 39.2747 134.913C39.2291 134.837 39.1683 134.776 39.1227 134.7C39.001 134.533 38.8794 134.382 38.7729 134.215C38.56 133.927 38.3623 133.624 38.1646 133.32C37.7692 132.714 37.4043 132.077 37.0545 131.44C36.8872 131.122 36.72 130.788 36.5679 130.47C36.4919 130.303 36.4006 130.121 36.3246 129.954C36.2942 129.878 36.2486 129.787 36.2181 129.712C36.2181 129.681 36.1877 129.636 36.1725 129.605C36.1117 129.454 36.2942 129.909 36.2029 129.681C35.6555 128.332 35.2145 126.937 34.9408 125.511C34.8799 125.163 34.8191 124.814 34.7735 124.465L34.8191 124.829C34.6214 123.373 34.591 121.887 34.7887 120.417L34.7431 120.781C34.8343 120.113 34.9712 119.446 35.1536 118.809C35.2449 118.491 35.3361 118.188 35.4578 117.884C35.5186 117.733 35.5642 117.581 35.6251 117.445C35.6403 117.399 35.6555 117.354 35.6859 117.308C35.6859 117.293 35.5642 117.596 35.6251 117.46C35.6707 117.369 35.7011 117.278 35.7467 117.187C36.0052 116.611 36.3246 116.05 36.6743 115.519C36.8416 115.246 37.0241 115.003 37.2218 114.746C37.3587 114.564 37.0393 114.988 37.1762 114.806C37.2218 114.746 37.2674 114.685 37.3282 114.624C37.4347 114.488 37.5411 114.367 37.6628 114.23C38.0734 113.76 38.5144 113.32 38.9858 112.911C39.0923 112.82 39.2139 112.714 39.3204 112.623C39.3812 112.577 39.442 112.517 39.5028 112.471C39.5485 112.441 39.807 112.244 39.6093 112.38C39.4116 112.517 39.6093 112.38 39.6701 112.335C39.7309 112.289 39.7918 112.244 39.8678 112.198C39.9895 112.107 40.1263 112.016 40.2632 111.925C40.7954 111.561 41.3429 111.243 41.9055 110.94C42.1793 110.803 42.453 110.667 42.7419 110.53C42.818 110.5 42.894 110.47 42.9548 110.439C43.0004 110.424 43.2742 110.303 43.0461 110.394C42.818 110.485 43.0461 110.394 43.1069 110.364C43.1981 110.333 43.2742 110.288 43.3654 110.257C44.7188 109.742 46.1179 109.378 47.5473 109.181L47.1976 109.226C48.9007 108.999 50.6191 109.029 52.3071 109.241L51.9573 109.196C53.9038 109.454 55.8047 109.984 57.6143 110.697C57.7056 110.743 57.812 110.773 57.9033 110.818C57.9337 110.818 58.177 110.94 57.9641 110.849C57.7816 110.773 57.9489 110.849 57.9945 110.849C58.2226 110.955 58.4507 111.046 58.694 111.152C59.135 111.364 59.5912 111.577 60.017 111.804C60.8838 112.259 61.7202 112.744 62.5414 113.275C63.3626 113.806 64.1533 114.412 64.9745 114.988C64.6552 114.761 64.9745 114.988 65.0506 115.049C65.1418 115.125 65.233 115.201 65.3395 115.276C65.5372 115.428 65.7197 115.58 65.9174 115.746C66.2519 116.035 66.5865 116.323 66.9058 116.611C68.2136 117.778 69.4302 119.052 70.5555 120.386C70.8444 120.72 71.1181 121.069 71.3919 121.417C71.4375 121.478 71.5439 121.615 71.3158 121.326C71.3462 121.372 71.3767 121.402 71.4071 121.448C71.4831 121.539 71.5591 121.645 71.62 121.736C71.7568 121.903 71.8785 122.085 72.0001 122.251C72.5172 122.964 73.019 123.707 73.4752 124.45C74.4028 125.936 75.224 127.483 75.9387 129.09C75.9844 129.181 76.03 129.287 76.0604 129.378C76.0756 129.424 76.0908 129.469 76.1212 129.515C76.2277 129.742 76.0148 129.272 76.0908 129.439C76.1821 129.651 76.2581 129.848 76.3493 130.06C76.5166 130.47 76.6687 130.879 76.8055 131.289C77.0945 132.107 77.353 132.926 77.5811 133.76C77.8092 134.594 78.0069 135.443 78.159 136.292C78.235 136.702 78.311 137.126 78.3719 137.536C78.3871 137.657 78.4023 137.763 78.4175 137.885C78.4175 137.885 78.3719 137.551 78.4023 137.748C78.4023 137.794 78.4023 137.839 78.4175 137.885C78.4479 138.112 78.4783 138.355 78.4935 138.582C78.6608 140.265 78.6912 141.979 78.5695 143.662C78.5391 144.101 78.4935 144.541 78.4327 144.981C78.3719 145.405 78.4327 145.087 78.4327 144.981C78.4175 145.087 78.4023 145.193 78.3871 145.299C78.3567 145.512 78.3262 145.739 78.2806 145.951C78.1285 146.8 77.9309 147.65 77.7028 148.484C77.5811 148.893 77.4594 149.302 77.3226 149.697L78.8889 148.817C78.1285 148.62 77.3834 148.393 76.6535 148.135C76.2885 148.013 75.9387 147.877 75.5738 147.741C75.3913 147.665 75.2088 147.589 75.0263 147.528C74.9807 147.513 74.6918 147.392 74.9047 147.483C75.1176 147.574 74.7678 147.422 74.7222 147.407C73.3232 146.8 71.9545 146.088 70.6467 145.299C69.9776 144.905 69.3389 144.48 68.7002 144.041C68.3809 143.828 68.0767 143.601 67.7726 143.374C67.6205 143.267 67.4685 143.161 67.3316 143.04C67.2556 142.979 67.1795 142.919 67.0883 142.858C67.0427 142.828 67.0123 142.797 66.9666 142.767C66.8298 142.661 67.0122 142.797 67.0427 142.828C65.8109 141.857 64.6096 140.856 63.469 139.78C61.1728 137.612 59.059 135.261 57.0821 132.79C56.8388 132.486 56.5955 132.168 56.3522 131.865C56.5955 132.168 56.3674 131.895 56.3217 131.819C56.2761 131.743 56.2153 131.683 56.1545 131.607C56.0176 131.44 55.896 131.273 55.7743 131.091C55.3029 130.47 54.8467 129.848 54.3905 129.211C53.4172 127.862 52.4896 126.482 51.562 125.087C49.6763 122.221 47.8819 119.279 46.2091 116.277C44.5363 113.275 42.9396 110.166 41.4645 107.028C40.7346 105.466 40.0351 103.904 39.366 102.312C39.3508 102.266 39.3356 102.236 39.3204 102.191C39.2291 101.978 39.3508 102.251 39.3508 102.266C39.3051 102.16 39.2595 102.069 39.2291 101.963C39.1379 101.766 39.0618 101.554 38.9706 101.357C38.8033 100.947 38.636 100.538 38.4688 100.128C38.1494 99.34 37.8301 98.5515 37.5259 97.7479C36.2942 94.5182 35.1689 91.2581 34.1652 87.9526C33.1615 84.647 32.2795 81.3111 31.504 77.9449C30.7284 74.5787 30.0897 71.1822 29.5727 67.7705C29.451 66.9365 29.3294 66.1177 29.2077 65.2838L29.2533 65.6325C28.6907 61.493 28.2801 57.308 28.128 53.1382C28.0824 52.1071 28.0976 51.0608 28.2345 50.0297L28.1889 50.3785C28.2801 49.7265 28.417 49.0896 28.6603 48.4679C28.7059 48.3618 28.858 48.104 28.6603 48.4679C28.6907 48.4073 28.7211 48.3466 28.7515 48.286C28.8275 48.1495 28.8884 47.9979 28.9796 47.8614C29.0709 47.7249 29.1469 47.5885 29.2381 47.4672C29.2685 47.4368 29.299 47.3914 29.3142 47.361C29.1773 47.5278 29.1469 47.5733 29.2077 47.4975C29.2533 47.4368 29.3142 47.3762 29.3598 47.3155C29.4662 47.1942 29.5879 47.0729 29.6943 46.9668C29.74 46.9213 29.8008 46.8758 29.8464 46.8303C29.9224 46.7545 30.1962 46.5877 29.8464 46.8303C30.1049 46.6635 30.3482 46.4967 30.622 46.3603C30.6828 46.3299 30.7436 46.2996 30.7892 46.2845C31.0021 46.1935 30.4395 46.4209 30.7588 46.2845C30.8957 46.239 31.0478 46.1783 31.1846 46.148C31.4736 46.057 31.7777 46.0115 32.0666 45.966L31.7169 46.0115C32.5076 45.9054 33.2832 45.9357 34.074 46.0418L33.7242 45.9964C34.8495 46.148 35.9596 46.4664 37.0393 46.8606C37.2826 46.9516 37.5259 47.0426 37.7692 47.1487C37.8301 47.1791 37.9061 47.2094 37.9669 47.2246C38.2102 47.3307 37.6628 47.0881 37.9061 47.1942C38.0278 47.2549 38.1646 47.3004 38.2863 47.361C38.8033 47.5885 39.3356 47.8311 39.8526 48.0737C41.9207 49.0441 43.9433 50.0752 45.9506 51.1518C49.9348 53.3201 53.7822 55.7007 57.5079 58.3088C58.4355 58.9608 59.3479 59.6128 60.2452 60.28C60.7014 60.6287 61.1728 60.9623 61.629 61.311C61.7354 61.3869 61.8419 61.4778 61.9483 61.5537C62.0244 61.6143 62.1764 61.7356 61.8723 61.493C61.9331 61.5385 61.9787 61.584 62.0396 61.6295C62.2829 61.8114 62.511 61.9934 62.7543 62.1753C64.5335 63.5703 66.2823 65.026 67.9855 66.5271C71.3919 69.5143 74.6309 72.6985 77.6723 76.0495C79.2082 77.7327 80.6985 79.4612 82.1432 81.2202C82.5082 81.6599 82.8731 82.1148 83.2229 82.5697C83.3902 82.7819 83.5574 82.9791 83.7095 83.1914C83.8008 83.2975 83.892 83.4188 83.968 83.5249C83.9984 83.5553 84.0289 83.6008 84.0593 83.6311C83.8008 83.2975 84.0136 83.5856 84.0745 83.6462C84.774 84.5409 85.4583 85.4658 86.1274 86.3756C88.8038 90.0451 91.2674 93.8661 93.518 97.8085C95.7686 101.751 97.776 105.799 99.5552 109.954C99.6008 110.045 99.7985 110.515 99.6312 110.121C99.6768 110.227 99.7225 110.348 99.7681 110.455C99.8897 110.743 100.011 111.031 100.133 111.319C100.346 111.834 100.544 112.335 100.741 112.85C101.167 113.927 101.562 114.988 101.958 116.08C102.353 117.172 102.703 118.203 103.053 119.279C103.403 120.356 103.767 121.493 104.011 122.646C104.072 122.934 104.117 123.222 104.163 123.51C104.163 123.601 104.163 123.783 104.163 123.434C104.163 123.51 104.178 123.586 104.193 123.662C104.209 123.828 104.224 124.01 104.239 124.177C104.254 124.45 104.254 124.723 104.239 124.981C104.239 125.132 104.239 125.269 104.209 125.42C104.209 125.496 104.209 125.557 104.193 125.633C104.163 125.891 104.239 125.36 104.193 125.587C104.148 125.875 104.087 126.148 103.996 126.421C103.965 126.527 103.92 126.649 103.874 126.755C103.828 126.861 103.722 126.982 103.889 126.725C103.844 126.8 103.813 126.906 103.768 126.982C103.646 127.225 103.509 127.437 103.357 127.665C103.205 127.892 103.539 127.452 103.357 127.649C103.311 127.71 103.266 127.756 103.22 127.816C103.114 127.938 102.992 128.059 102.855 128.18C102.779 128.256 102.642 128.332 102.581 128.408L102.718 128.301C102.718 128.301 102.642 128.362 102.597 128.392C102.536 128.438 102.475 128.483 102.414 128.514C102.171 128.681 101.912 128.817 101.654 128.953C101.517 129.014 101.395 129.09 101.258 129.151C101.182 129.181 100.939 129.257 101.289 129.151C101.213 129.181 101.152 129.211 101.076 129.242C100.802 129.348 100.513 129.454 100.224 129.545C99.099 129.894 97.9432 130.151 96.7875 130.379C96.4834 130.439 96.1944 130.485 95.8903 130.53C95.7686 130.546 95.647 130.576 95.5253 130.591C95.4493 130.591 95.3733 130.606 95.2972 130.621C95.206 130.621 94.841 130.667 95.2516 130.621C94.6585 130.682 94.0502 130.758 93.4572 130.819C92.2862 130.91 91.1153 130.955 89.9292 130.94C88.743 130.925 87.5721 130.864 86.4011 130.743C86.097 130.712 85.8081 130.682 85.5039 130.637C85.3823 130.621 85.2606 130.606 85.1237 130.591C85.5039 130.621 85.2302 130.591 85.1542 130.591C85.0477 130.591 84.9565 130.561 84.85 130.546C84.257 130.455 83.6639 130.364 83.0708 130.242C80.7289 129.803 78.4327 129.166 76.1973 128.362C75.6194 128.15 75.0567 127.938 74.4789 127.71C74.2204 127.604 73.9618 127.483 73.7033 127.392C73.7794 127.422 74.0379 127.513 73.7033 127.392C73.6273 127.361 73.5665 127.331 73.4904 127.301C73.3536 127.24 73.2167 127.179 73.0646 127.119C71.9393 126.618 70.8444 126.072 69.7647 125.511C67.6357 124.389 65.598 123.116 63.6363 121.706C63.393 121.524 63.1345 121.342 62.8912 121.16C62.7847 121.084 62.6935 121.008 62.587 120.932C62.5262 120.887 62.4654 120.841 62.4045 120.796C62.3437 120.75 62.07 120.508 62.3437 120.75C61.8875 120.356 61.3857 119.992 60.9143 119.613C59.9866 118.84 59.0742 118.036 58.1922 117.202C56.3674 115.489 54.6338 113.654 53.0218 111.743C52.6265 111.273 52.2463 110.818 51.8661 110.333C51.6684 110.091 51.4707 109.833 51.273 109.59C51.2122 109.499 51.121 109.332 51.0297 109.272L51.121 109.393C51.121 109.393 51.0601 109.302 51.0297 109.272C50.9689 109.181 50.9081 109.105 50.832 109.014C50.0717 108.028 49.357 107.028 48.6422 105.997C45.7833 101.872 43.3046 97.4901 41.0844 92.9867C39.959 90.7122 38.9098 88.4074 37.9213 86.0723C37.8605 85.9207 37.7997 85.7842 37.7388 85.6326C37.6324 85.3748 37.8605 85.9055 37.7388 85.6326C37.7236 85.5871 37.6932 85.5416 37.678 85.481C37.5411 85.1625 37.4043 84.8441 37.2826 84.5257C37.0545 83.9647 36.8112 83.3885 36.5831 82.8274C36.1269 81.7054 35.6859 80.5833 35.2601 79.4612C33.6482 75.1398 32.2795 70.7122 31.3063 66.1936C31.063 65.0715 30.8501 63.9343 30.6676 62.797C30.5763 62.2208 30.4851 61.6446 30.4091 61.0684C30.3787 60.7955 30.4547 61.402 30.4091 61.1291C30.4091 61.0836 30.4091 61.0381 30.3939 60.9775C30.3787 60.8258 30.3634 60.6894 30.333 60.5377C30.3026 60.2496 30.257 59.9615 30.2266 59.6734C29.9833 57.4293 29.8616 55.1548 29.9072 52.8955C29.9377 51.8038 29.9985 50.6969 30.1049 49.6052C30.1353 49.3322 30.1658 49.0593 30.1962 48.7712C30.1962 48.6499 30.2266 48.5437 30.2418 48.4224C30.2418 48.3315 30.2874 48.0737 30.2418 48.4983C30.2418 48.4073 30.2722 48.3163 30.2874 48.2253C30.3635 47.6795 30.4547 47.1336 30.5611 46.6029C30.9565 44.5104 31.5496 42.4482 32.3556 40.4618C32.4012 40.3557 32.5989 39.9008 32.4012 40.3405C32.462 40.2192 32.5076 40.0979 32.5685 39.9615C32.6749 39.7188 32.7966 39.4611 32.903 39.2185C33.1311 38.7332 33.3896 38.2329 33.6482 37.7628C34.1652 36.8227 34.7431 35.8978 35.3665 35.0183C35.5186 34.806 35.6707 34.6089 35.8228 34.3966C35.8684 34.336 35.914 34.2905 35.9444 34.2298C36.1117 34.0175 35.7467 34.4876 35.914 34.2753C36.0052 34.154 36.0965 34.0327 36.2029 33.9114C36.5527 33.4868 36.9177 33.0623 37.2826 32.6529C38.0278 31.8492 38.8185 31.0759 39.6549 30.3632C39.8678 30.1813 40.0807 29.9993 40.2936 29.8325C40.4001 29.7567 40.4913 29.6657 40.5977 29.5899C40.6738 29.5293 40.8258 29.4231 40.5217 29.6506C40.5977 29.5899 40.6738 29.5444 40.7498 29.4838C41.1908 29.1502 41.647 28.8318 42.1184 28.5133C43.0309 27.9068 43.9737 27.3609 44.9317 26.8454C45.4336 26.5876 45.9354 26.345 46.4372 26.1024C46.6653 25.9963 46.9086 25.8901 47.1367 25.784C47.1976 25.7537 47.2736 25.7233 47.3344 25.7082C46.939 25.875 47.1824 25.7688 47.2736 25.7385C47.4105 25.6778 47.5321 25.6324 47.669 25.5869C48.7183 25.1623 49.7827 24.7984 50.8624 24.48C52.9458 23.8583 55.0748 23.4186 57.219 23.1305L56.854 23.1759C60.2452 22.721 63.6667 22.6604 67.0731 22.9182C68.0311 22.994 68.9892 23.1001 69.932 23.2214L69.567 23.1759C72.8973 23.6308 76.1973 24.3587 79.4211 25.3443C81.0179 25.8295 82.5842 26.3905 84.1353 26.997C84.5155 27.1487 84.8956 27.3003 85.291 27.4671C85.5343 27.5581 85.0173 27.3609 85.1846 27.4216C85.2302 27.4368 85.2758 27.4519 85.3062 27.4823C85.3975 27.5277 85.5039 27.5581 85.5952 27.6036C85.7929 27.6945 85.9905 27.7703 86.1882 27.8613C86.9486 28.1949 87.7241 28.5588 88.4693 28.9227C91.4803 30.3936 94.3696 32.0918 97.1373 33.972C97.8216 34.4421 98.5059 34.9273 99.1902 35.4125C99.54 35.6703 99.8745 35.9281 100.224 36.1858C100.376 36.3072 100.544 36.4285 100.696 36.5498C100.863 36.6862 100.589 36.4739 100.589 36.4588C100.635 36.4891 100.68 36.5346 100.726 36.5649C100.817 36.6407 100.909 36.7014 101 36.7772C102.323 37.8235 103.631 38.9 104.893 40.0221C107.432 42.2966 109.835 44.7227 112.086 47.2852C113.211 48.5741 114.291 49.8781 115.34 51.2276C115.37 51.2579 115.401 51.3034 115.431 51.3338C115.188 51.0305 115.31 51.1821 115.37 51.2579C115.431 51.3489 115.492 51.4247 115.568 51.5157C115.69 51.6825 115.827 51.8493 115.948 52.0161C116.207 52.3648 116.465 52.7136 116.724 53.0623C117.226 53.7598 117.728 54.4573 118.214 55.17C120.145 57.9752 121.925 60.9016 123.521 63.9039C124.312 65.4051 125.072 66.9214 125.787 68.468C126.137 69.2413 126.487 70.0146 126.821 70.8031C126.836 70.8486 126.852 70.8941 126.882 70.9244C126.73 70.5605 126.791 70.7121 126.821 70.8031C126.867 70.8941 126.897 71.0002 126.943 71.0912C127.049 71.3338 127.141 71.5613 127.232 71.8039C127.43 72.2739 127.612 72.7592 127.81 73.2292C129.315 77.0806 130.577 81.0079 131.642 85.0109C132.706 89.014 133.528 93.0473 134.166 97.111C134.318 98.0966 134.47 99.0822 134.592 100.068L134.546 99.7191C134.987 102.964 135.307 106.224 135.52 109.499C135.733 112.774 135.854 116.035 135.869 119.31C135.885 122.585 135.824 125.875 135.672 129.151C135.52 132.426 135.292 135.747 135.003 139.022C134.714 142.297 134.349 145.572 133.923 148.832C133.877 149.226 133.816 149.621 133.771 150.015L134.744 148.741C134.455 148.832 134.166 148.893 133.862 148.938L134.212 148.893C133.756 148.954 133.315 148.954 132.858 148.893L133.208 148.938C132.874 148.893 132.539 148.817 132.22 148.711C132.144 148.681 132.068 148.65 131.992 148.62C131.703 148.499 132.281 148.756 132.022 148.62C131.855 148.544 131.703 148.468 131.551 148.377C131.246 148.211 130.973 148.013 130.684 147.801C130.76 147.862 131.064 148.089 130.684 147.801C130.623 147.756 130.562 147.695 130.501 147.65C130.349 147.513 130.197 147.377 130.06 147.24C129.802 146.982 129.543 146.694 129.3 146.406C129.239 146.33 129.178 146.255 129.118 146.179C128.95 145.951 129.315 146.452 129.118 146.179C128.996 146.027 128.889 145.86 128.768 145.709C128.296 145.026 127.886 144.329 127.506 143.586C127.323 143.222 127.141 142.843 126.973 142.464C126.928 142.373 126.897 142.282 126.852 142.191C126.821 142.115 126.76 141.963 126.913 142.327C126.897 142.282 126.882 142.251 126.867 142.206C126.776 142.009 126.7 141.797 126.624 141.584C126.319 140.766 126.061 139.932 125.818 139.098C125.179 136.975 124.571 134.852 123.978 132.729C122.791 128.468 121.712 124.177 120.708 119.871C119.704 115.564 118.792 111.258 117.971 106.937C117.15 102.615 116.42 98.2634 115.766 93.8965C115.599 92.7896 115.446 91.6978 115.294 90.5909C115.279 90.4696 115.264 90.3483 115.249 90.227C115.249 90.1512 115.173 89.6357 115.218 90.0299C115.188 89.757 115.142 89.4992 115.112 89.2262C115.036 88.6652 114.96 88.089 114.899 87.528C114.625 85.3445 114.367 83.161 114.139 80.9775C113.667 76.5803 113.302 72.1678 113.029 67.7554C112.755 63.3429 112.572 58.9304 112.481 54.5028C112.39 50.0752 112.39 45.6931 112.481 41.2806C112.572 36.8682 112.755 32.4709 113.029 28.0736C113.074 27.2245 113.135 26.3602 113.241 25.5111L113.196 25.8598C113.348 24.7074 113.622 23.6157 114.032 22.5239C114.063 22.4481 113.895 22.8424 113.987 22.6301C114.017 22.5694 114.047 22.5088 114.078 22.4481C114.139 22.3268 114.199 22.2055 114.26 22.0842C114.382 21.8568 114.519 21.6141 114.686 21.4019C114.717 21.3564 114.747 21.3109 114.793 21.2654C114.534 21.6293 114.671 21.4322 114.732 21.3412C114.823 21.2351 114.914 21.1289 115.005 21.0379C115.081 20.947 115.173 20.8712 115.264 20.7953C115.31 20.765 115.34 20.7195 115.386 20.6892C115.507 20.5831 115.112 20.8863 115.234 20.7953C115.264 20.7802 115.294 20.7499 115.325 20.7347C115.446 20.6589 115.568 20.5831 115.69 20.5072C115.751 20.4769 115.796 20.4466 115.857 20.4163C115.887 20.4011 115.918 20.3859 115.948 20.3708C116.1 20.295 115.781 20.4466 115.781 20.4466C115.827 20.4466 115.948 20.3859 115.994 20.3708C116.07 20.3404 116.131 20.3253 116.207 20.3101C116.359 20.2646 116.511 20.2343 116.663 20.2191L115.142 19.5975C116.268 21.5687 117.317 23.5853 118.275 25.6475C118.518 26.1631 118.746 26.6634 118.974 27.179C119.081 27.4216 119.187 27.649 119.279 27.8917C119.309 27.9675 119.339 28.0281 119.37 28.1039C119.476 28.3617 119.248 27.8007 119.355 28.0736C119.415 28.2101 119.476 28.3617 119.537 28.4982C119.963 29.5293 120.374 30.5604 120.754 31.6066C122.29 35.7764 123.491 40.0676 124.403 44.4194C124.92 46.8758 125.346 49.3626 125.681 51.8493L125.635 51.4854C126.319 56.5953 126.654 61.7659 126.684 66.9214C126.715 72.0768 126.472 77.3687 126 82.5545C125.726 85.4961 125.392 88.4378 124.996 91.3794L125.042 91.0155C124.327 96.2922 123.43 101.539 122.396 106.755C121.362 111.971 120.221 117.096 118.99 122.236C117.758 127.377 116.511 132.471 114.853 137.475C114.428 138.734 113.987 139.992 113.5 141.236C113.272 141.827 113.029 142.418 112.785 143.01C112.755 143.085 112.724 143.161 112.694 143.237C112.846 142.873 112.74 143.146 112.694 143.222C112.633 143.374 112.572 143.51 112.512 143.662C112.375 143.98 112.238 144.298 112.086 144.602C111.006 146.952 109.789 149.242 108.36 151.41C107.995 151.956 107.63 152.502 107.235 153.048C107.052 153.305 106.855 153.563 106.672 153.806C106.626 153.866 106.581 153.927 106.52 154.003C106.353 154.23 106.702 153.76 106.52 154.003C106.398 154.154 106.292 154.291 106.17 154.443C105.775 154.928 105.379 155.398 104.954 155.853C104.741 156.08 104.513 156.292 104.3 156.505C104.056 156.732 103.768 156.929 103.539 157.157C103.783 156.914 103.646 157.081 103.555 157.142C103.494 157.187 103.433 157.233 103.372 157.278C103.25 157.369 103.129 157.445 102.992 157.536C102.733 157.687 102.475 157.839 102.201 157.96C102.11 158.006 101.882 158.051 102.247 157.96C102.171 157.976 102.11 158.021 102.049 158.036C101.912 158.082 101.775 158.127 101.639 158.173C101.502 158.218 101.365 158.249 101.213 158.279C101.137 158.279 101.061 158.294 101 158.309C101.106 158.294 101.395 158.203 101 158.309C100.696 158.324 100.407 158.294 100.118 158.279C100.498 158.279 100.285 158.294 100.179 158.279C100.103 158.279 100.042 158.249 99.9658 158.233C99.7985 158.188 99.6312 158.142 99.4791 158.082C99.4183 158.051 99.3423 158.021 99.2814 158.006C99.6312 158.112 99.4183 158.067 99.3271 158.006C99.1902 157.945 99.0686 157.869 98.9317 157.809C98.6732 157.657 98.4451 157.475 98.1865 157.324C98.5059 157.521 98.293 157.399 98.217 157.339C98.1561 157.293 98.0953 157.248 98.0497 157.187C97.9432 157.081 97.8216 156.99 97.7151 156.884C97.487 156.656 97.2589 156.414 97.046 156.171C96.9548 156.065 96.8483 155.944 96.7571 155.822C96.7115 155.762 96.6658 155.701 96.6202 155.64C96.8635 155.929 96.6963 155.731 96.6354 155.656C96.4377 155.383 96.2401 155.125 96.0576 154.837C95.3733 153.806 94.7802 152.714 94.2784 151.577C94.2479 151.501 94.1567 151.243 94.2784 151.607C94.2479 151.531 94.2175 151.471 94.1871 151.395C94.1263 151.258 94.0807 151.107 94.0198 150.97C93.9134 150.682 93.8069 150.394 93.7157 150.106C93.5028 149.499 93.3203 148.893 93.153 148.271C92.8337 147.058 92.5752 145.815 92.3775 144.571C92.3319 144.268 92.2862 143.95 92.2406 143.646C92.3167 144.086 92.2406 143.556 92.2102 143.449C92.195 143.267 92.1646 143.085 92.1494 142.904C92.0733 142.251 92.0125 141.615 91.9517 140.963C91.8452 139.689 91.7692 138.43 91.7084 137.157C91.5715 134.185 91.4803 131.213 91.4194 128.226C91.2978 122.145 91.3282 116.065 91.5107 110C91.6932 103.934 91.9973 97.854 92.4535 91.7888C92.9097 85.7236 93.518 79.6735 94.2479 73.6386C94.4304 72.1678 94.6129 70.697 94.8106 69.2262L94.765 69.5749C95.5253 63.9494 96.4073 58.3391 97.411 52.7591C97.9128 49.9994 98.4299 47.2397 98.9925 44.48C99.4183 42.3572 99.9353 40.2647 100.757 38.2632C100.863 38.0206 100.62 38.5665 100.726 38.3238C100.757 38.2329 100.802 38.157 100.833 38.0661C100.893 37.9448 100.954 37.8083 101 37.687C101.121 37.4141 101.258 37.1563 101.41 36.8985C101.699 36.383 102.003 35.8826 102.353 35.4125C102.399 35.3519 102.429 35.3064 102.475 35.2457C102.232 35.5793 102.368 35.3822 102.429 35.3064C102.521 35.1851 102.627 35.0638 102.733 34.9425C102.931 34.7302 103.129 34.5179 103.342 34.3056C103.555 34.0933 103.783 33.9114 103.996 33.7294C104.056 33.6688 104.193 33.593 103.889 33.8204C103.965 33.7598 104.041 33.7143 104.102 33.6536C104.239 33.5626 104.361 33.4717 104.497 33.3807L103.448 33.5171C103.448 33.5171 103.539 33.5475 103.585 33.5778C103.737 33.6385 103.281 33.4413 103.433 33.5171C103.509 33.5475 103.6 33.593 103.676 33.6233C103.828 33.6991 103.98 33.7749 104.132 33.8659C104.285 33.9569 104.421 34.0327 104.573 34.1388C104.634 34.1843 104.695 34.2298 104.756 34.2601C104.847 34.336 105.121 34.5634 104.756 34.2601C105.014 34.4724 105.273 34.6847 105.501 34.9273C105.608 35.0335 105.714 35.1548 105.82 35.2761C105.881 35.3367 105.927 35.3974 105.988 35.4732C106.018 35.5035 106.033 35.5338 106.064 35.5642C106.216 35.7461 105.851 35.2761 105.988 35.458C106.383 36.0039 106.733 36.5649 107.007 37.1714C107.037 37.2473 107.083 37.3231 107.113 37.4141C107.235 37.7022 107.007 37.1714 107.083 37.3534C107.159 37.5202 107.219 37.7022 107.28 37.8689C107.402 38.2025 107.508 38.5513 107.6 38.8849C107.828 39.6885 107.98 40.5073 108.086 41.3261L108.041 40.9622C108.436 43.919 108.223 46.8758 107.934 49.8326C107.539 53.8963 107.098 57.96 106.611 62.0085C106.337 64.3133 106.033 66.6181 105.729 68.9077L105.775 68.5438C105.364 71.6068 104.923 74.6697 104.467 77.7326C104.011 80.7956 103.509 83.8737 103.007 86.9518C102.505 90.0299 101.973 93.0473 101.426 96.0951C100.878 99.1429 100.3 102.221 99.7224 105.269C99.1446 108.317 98.5363 111.349 97.928 114.382C97.3197 117.414 96.6811 120.477 96.0424 123.525C95.4037 126.573 94.765 129.59 94.1111 132.623C93.4572 135.656 92.7881 138.703 92.119 141.751C91.4499 144.799 90.7807 147.801 90.0964 150.819C89.4121 153.836 88.7278 156.899 88.0435 159.932C87.8762 160.675 87.7089 161.418 87.5417 162.145L90.0356 162.828C90.8872 158.203 91.7692 153.578 92.6664 148.954C93.5636 144.329 94.476 139.719 95.4189 135.095C96.3617 130.47 97.3045 125.906 98.2778 121.311C99.251 116.717 100.27 112.107 101.289 107.513C102.308 102.918 103.357 98.3544 104.421 93.7903C105.486 89.2262 106.581 84.6318 107.691 80.0526C108.801 75.4734 109.926 70.9093 111.082 66.3452C112.238 61.7811 113.394 57.2473 114.58 52.7136C115.766 48.1798 116.967 43.6461 118.199 39.1123C119.431 34.5786 120.678 30.0296 121.955 25.4959C122.259 24.389 122.579 23.2821 122.883 22.1903L121.605 23.1608C121.955 23.1305 122.32 23.1305 122.67 23.1759L122.32 23.1305C122.67 23.1759 123.004 23.2669 123.339 23.3882C123.4 23.4034 123.461 23.4337 123.521 23.464C123.111 23.3276 123.415 23.4185 123.521 23.464C123.673 23.5399 123.841 23.6308 123.993 23.7218C124.13 23.7976 124.251 23.8886 124.388 23.9796C124.221 23.828 124.677 24.1767 124.388 23.9796C124.464 24.0402 124.525 24.1009 124.601 24.1464C124.86 24.3738 125.103 24.6164 125.331 24.8742C125.392 24.95 125.453 25.0107 125.513 25.0865C125.316 24.8136 125.666 25.2684 125.513 25.0865C125.605 25.223 125.696 25.3443 125.787 25.4807C125.97 25.7688 126.137 26.0721 126.289 26.3905C126.335 26.4815 126.426 26.7999 126.289 26.3905C126.319 26.4815 126.35 26.5573 126.395 26.6483C126.456 26.7999 126.502 26.9515 126.548 27.1032C126.669 27.5126 126.745 27.9371 126.806 28.3617L126.76 28.013C126.913 29.1654 126.867 30.3481 126.715 31.5005L126.76 31.1517C126.487 33.1836 125.894 35.1548 125.346 37.1411C124.799 39.1275 124.236 41.22 123.689 43.267C122.594 47.3307 121.484 51.4096 120.389 55.4733C119.294 59.537 118.184 63.6158 117.089 67.6795C115.994 71.7432 114.884 75.8524 113.774 79.9313C112.664 84.0102 111.584 88.0284 110.489 92.0921C109.577 95.4583 108.649 98.8396 107.6 102.16C107.083 103.828 106.52 105.466 105.927 107.104C105.623 107.937 105.303 108.771 104.984 109.59C104.832 109.984 104.665 110.379 104.497 110.788C104.452 110.879 104.421 110.985 104.376 111.076C104.315 111.228 104.482 110.834 104.406 110.985C104.391 111.031 104.361 111.076 104.345 111.122C104.254 111.319 104.178 111.531 104.087 111.728C102.703 114.882 101.091 117.96 99.1598 120.826C98.6884 121.524 98.1865 122.221 97.6847 122.888C97.6239 122.964 97.5631 123.055 97.5022 123.131C97.3806 123.298 97.5479 123.07 97.5631 123.055C97.5326 123.101 97.5022 123.131 97.4718 123.176C97.335 123.358 97.1829 123.54 97.0308 123.722C96.7571 124.056 96.4682 124.405 96.1792 124.738C95.1604 125.921 94.0655 127.043 92.8945 128.074C92.6056 128.317 92.3319 128.559 92.0429 128.802C91.9061 128.923 91.754 129.029 91.6171 129.135C91.5411 129.196 91.4803 129.242 91.4042 129.302C91.7236 129.044 91.4042 129.302 91.3282 129.348C90.7199 129.803 90.0964 130.242 89.4577 130.667C88.1804 131.501 86.8574 132.229 85.4735 132.881C85.1238 133.048 84.774 133.199 84.409 133.351C84.3634 133.366 84.3178 133.381 84.2874 133.411C84.2874 133.411 84.5915 133.29 84.3938 133.366C84.3026 133.396 84.2265 133.442 84.1353 133.472C83.9528 133.548 83.7551 133.624 83.5574 133.7C82.8579 133.972 82.1584 134.215 81.4437 134.427C80.0142 134.867 78.5391 135.201 77.0489 135.413C76.6383 135.458 76.9424 135.413 77.0489 135.413C76.9576 135.413 76.8664 135.443 76.7903 135.443C76.6078 135.474 76.4102 135.489 76.2277 135.504C75.8475 135.534 75.4825 135.565 75.1024 135.595C74.3724 135.64 73.6425 135.656 72.8974 135.625C72.1522 135.595 71.4679 135.549 70.7532 135.458C70.7076 135.458 70.6619 135.458 70.6315 135.443C70.4338 135.413 70.7684 135.458 70.7684 135.458C70.6923 135.428 70.6011 135.428 70.5099 135.428C70.3122 135.398 70.1297 135.367 69.932 135.337C69.5822 135.276 69.2325 135.201 68.8827 135.125C68.1832 134.958 67.4837 134.761 66.7994 134.533C66.4496 134.412 66.115 134.291 65.7653 134.154C65.4003 133.988 65.674 134.124 65.7653 134.154C65.6892 134.124 65.6132 134.094 65.522 134.048C65.3547 133.972 65.1874 133.897 65.0201 133.821C64.351 133.502 63.7123 133.154 63.0889 132.775C62.7847 132.577 62.4654 132.38 62.1764 132.168C62.0092 132.062 61.8571 131.941 61.6898 131.819C61.6138 131.759 61.3705 131.546 61.6594 131.789C61.5834 131.713 61.4921 131.653 61.4009 131.592C60.1539 130.591 59.0286 129.454 58.0401 128.226C57.9793 128.15 57.9185 128.074 57.8577 127.998C57.8272 127.968 57.7968 127.922 57.7664 127.892C57.6448 127.725 57.8272 127.968 57.8272 127.983C57.7056 127.816 57.5687 127.634 57.4471 127.467C57.219 127.149 56.9909 126.831 56.7628 126.497C56.3218 125.83 55.896 125.132 55.5006 124.435C55.1052 123.737 54.725 122.994 54.3753 122.267C54.208 121.903 54.0255 121.539 53.8734 121.16C53.7974 120.978 53.7214 120.796 53.6453 120.614C53.6301 120.568 53.6149 120.523 53.5845 120.477C53.7214 120.796 53.6605 120.644 53.6301 120.568C53.5845 120.462 53.5389 120.341 53.4933 120.235C52.8698 118.703 52.3071 117.141 51.8053 115.58C50.6648 112.047 49.7219 108.453 48.7943 104.875C47.7754 100.917 46.8326 96.9443 45.9658 92.9412C45.099 88.9381 44.3082 84.9048 43.5783 80.8714C42.8484 76.838 42.2249 72.8046 41.6774 68.7561C41.647 68.5135 41.6166 68.2709 41.571 68.0283C41.571 67.9828 41.5406 67.7705 41.571 67.9676C41.6014 68.1648 41.571 67.9676 41.571 67.907C41.5558 67.7705 41.5406 67.634 41.5102 67.4976C41.4341 66.982 41.3733 66.4665 41.3125 65.9509C41.1756 64.935 41.054 63.9191 40.9323 62.9032C40.7042 60.9471 40.4609 58.9911 40.2936 57.0199C40.1719 55.6856 40.1719 54.336 40.3392 53.0017L40.2936 53.3504C40.3696 52.7742 40.4913 52.198 40.6586 51.637C40.7346 51.3792 40.8258 51.1215 40.9323 50.8789C40.7498 51.3489 40.9323 50.9092 40.9931 50.7879C41.054 50.6666 41.1148 50.5453 41.1908 50.424C41.2668 50.3027 41.3277 50.1965 41.4189 50.0752C41.4493 50.0297 41.4797 49.9842 41.5102 49.9388C41.6318 49.7568 41.2668 50.242 41.4645 49.9994C41.6318 49.8023 41.7991 49.6203 41.9968 49.4535C42.0424 49.408 42.088 49.3777 42.1489 49.3322C42.2249 49.2564 41.8295 49.5597 42.0728 49.3929C42.1793 49.3171 42.2857 49.2564 42.3922 49.1806C42.4986 49.1048 42.6203 49.0593 42.7419 48.9986C43.0309 48.8622 42.4834 49.0896 42.6811 49.0138C42.7571 48.9835 42.8332 48.9532 42.894 48.938L41.8599 48.8015C42.012 48.9228 42.1793 49.0441 42.3313 49.1654C42.4834 49.2867 42.2249 49.0745 42.2249 49.0745C42.2705 49.1048 42.3161 49.1351 42.3618 49.1806C42.453 49.2412 42.529 49.3171 42.6203 49.3777C42.9396 49.6203 43.259 49.8781 43.5631 50.1359C44.1714 50.6362 44.7797 51.1518 45.3575 51.6825C46.5285 52.7288 47.6386 53.8357 48.7183 54.9729C49.798 56.1101 50.8168 57.2928 51.8053 58.521C52.0486 58.8243 52.2919 59.1124 52.52 59.4157C52.5504 59.446 52.5656 59.4763 52.596 59.5218C52.7481 59.7189 52.4136 59.2944 52.52 59.4308C52.5808 59.5066 52.6417 59.5825 52.7025 59.6583C52.8241 59.8099 52.9306 59.9615 53.0523 60.1132C53.5237 60.75 53.9951 61.3869 54.4513 62.0237C54.5577 62.1753 54.6794 62.3421 54.7858 62.4938C54.8315 62.5696 54.8771 62.6302 54.9379 62.706C54.9683 62.7364 54.9835 62.7819 55.0139 62.8122C55.2725 63.1458 55.3029 63.1761 55.09 62.9183L55.1204 62.9638C55.3333 63.2974 55.5614 63.6158 55.7743 63.9494C56.2001 64.6014 56.6259 65.2686 57.0365 65.9206C57.8729 67.255 58.6636 68.6196 59.424 69.9995C60.9751 72.8046 62.3893 75.6705 63.7275 78.5818C64.4119 80.0526 65.0658 81.5386 65.7045 83.0397C65.8565 83.4036 66.0238 83.7675 66.1759 84.1466C66.1911 84.1921 66.2063 84.2224 66.2215 84.2679C66.0694 83.904 66.1302 84.0556 66.1607 84.1315C66.2063 84.2376 66.2519 84.3437 66.2975 84.4347C66.3736 84.6167 66.4496 84.7986 66.5256 84.9958C66.845 85.7539 67.1643 86.5272 67.4685 87.2854C68.7154 90.318 69.9168 93.3658 71.1181 96.4135C72.3195 99.4613 73.5513 102.539 74.8286 105.572C76.106 108.605 77.4746 111.759 78.9345 114.806C80.3944 117.854 81.8238 120.599 83.451 123.404C85.0781 126.209 86.8269 128.908 88.7582 131.486C89.2753 132.183 89.8075 132.866 90.3397 133.548C90.6743 133.972 91.4499 134.018 91.8756 133.745C92.0581 133.624 92.2102 133.472 92.3319 133.29C92.4839 133.048 92.5752 132.593 92.4535 132.32C91.0089 128.756 89.5794 125.208 88.1499 121.645C86.7205 118.082 85.2758 114.533 83.8312 110.97C82.3865 107.407 80.9723 103.889 79.5428 100.341C78.1133 96.7926 76.6687 93.2293 75.224 89.666C73.7794 86.1027 72.3499 82.5545 70.9052 78.9912C69.4606 75.4279 68.0463 71.91 66.6169 68.3619C65.1874 64.8137 63.7428 61.2504 62.2981 57.6871C60.8534 54.1238 59.424 50.5756 57.9793 47.0123C56.5346 43.449 55.1204 39.9311 53.6909 36.383C52.9762 34.5937 52.2463 32.8045 51.5316 31.0304C51.1818 30.1509 50.8168 29.2715 50.4671 28.392C50.1477 27.6036 49.798 26.8151 49.5242 26.0114C49.3265 25.4504 49.1897 24.8742 49.1136 24.298L49.1593 24.6619C49.0984 24.1615 49.068 23.6612 49.1441 23.1759L49.0984 23.5399C49.1288 23.3276 49.1745 23.1305 49.2353 22.9182C49.2505 22.8727 49.2657 22.8272 49.2809 22.7817C49.1441 23.1911 49.1745 23.0395 49.2201 22.9182C49.2657 22.8272 49.3113 22.7514 49.3722 22.6604C49.433 22.5543 49.5699 22.4633 49.2809 22.7817C49.3113 22.7514 49.3417 22.7059 49.3722 22.6756C49.4786 22.5543 49.7371 22.4178 49.357 22.6756C49.433 22.6301 49.509 22.5694 49.5851 22.5239C49.6459 22.4936 49.8284 22.4178 49.5851 22.5239C49.3417 22.6301 49.5699 22.5239 49.6307 22.5239H48.9007C50.9689 22.8727 53.0218 23.4792 54.9835 24.1767C55.4702 24.3587 55.9568 24.5406 56.4434 24.7226C56.5651 24.7681 56.6867 24.8136 56.8084 24.8742C56.9148 24.9197 57.3558 25.1017 56.8996 24.9197C57.1429 25.0258 57.371 25.1168 57.6143 25.223C58.5572 25.6475 59.5 26.1024 60.4124 26.5876C62.2373 27.5581 64.0013 28.665 65.6892 29.878C65.8869 30.0145 66.0694 30.1509 66.2671 30.3026C66.3736 30.3784 66.48 30.4542 66.5713 30.53C66.6169 30.5755 66.6777 30.6058 66.7233 30.6513C66.9058 30.7878 66.4344 30.4239 66.7081 30.6513C67.1187 30.9698 67.5293 31.3033 67.9247 31.6218C68.7306 32.2889 69.5062 32.9713 70.2665 33.6991C71.7872 35.1244 73.2167 36.6559 74.5701 38.248C74.9047 38.6423 75.224 39.0517 75.5434 39.4459C75.6194 39.5521 75.7106 39.6582 75.7867 39.7643C75.8475 39.8401 75.9996 40.0373 75.7411 39.7037C75.7867 39.7492 75.8171 39.8098 75.8627 39.8553C76.03 40.0676 76.1821 40.2799 76.3341 40.4922C76.9728 41.3413 77.5811 42.2056 78.159 43.1002C79.3299 44.8743 80.4096 46.7242 81.398 48.6196C81.8847 49.5748 82.3561 50.5301 82.7971 51.5157C82.9035 51.7432 83.01 51.9858 83.1164 52.2132C83.1621 52.3194 83.2077 52.4407 83.2685 52.5468C83.2989 52.6074 83.3141 52.6681 83.3445 52.7288C83.2077 52.3952 83.4358 52.941 83.3445 52.7288C83.5574 53.2291 83.7551 53.7144 83.9528 54.2147C85.5039 58.2026 86.6444 62.3573 87.3288 66.5878C87.4048 67.1033 87.496 67.6189 87.5569 68.1344L87.5113 67.7857C88.0891 72.0768 88.1499 76.3983 87.8154 80.7046C87.7089 82.039 87.5721 83.3733 87.3896 84.7077L87.4352 84.3589C86.9486 87.9526 86.1882 91.5159 85.1998 95.0034C84.698 96.7623 84.1353 98.506 83.527 100.235C83.2229 101.084 82.9035 101.933 82.569 102.782C82.4017 103.222 82.2192 103.646 82.0519 104.086C81.9759 104.283 81.8999 104.465 81.8086 104.662C81.763 104.768 81.7174 104.875 81.6718 104.981C81.6109 105.132 81.7782 104.723 81.7174 104.875C81.687 104.95 81.6566 105.011 81.6262 105.087C80.1815 108.468 78.5391 111.759 76.7295 114.958C74.9199 118.157 72.9126 121.326 70.7684 124.374C69.7039 125.891 68.6242 127.361 67.4989 128.832C67.4228 128.923 67.362 129.014 67.286 129.12C67.2556 129.166 67.1491 129.302 67.2708 129.151C67.4076 128.969 67.2556 129.181 67.2252 129.211C67.0731 129.393 66.9362 129.59 66.7841 129.772C66.4952 130.136 66.2063 130.5 65.9326 130.849C65.3547 131.577 64.7616 132.305 64.1533 133.017C62.9672 134.427 61.7506 135.822 60.5037 137.202C59.3783 138.446 58.253 139.719 56.9604 140.811C56.8236 140.932 56.6715 141.054 56.5194 141.175C56.4434 141.236 56.3674 141.296 56.2761 141.357C56.2153 141.402 56.0784 141.493 56.3826 141.281C56.337 141.311 56.2913 141.357 56.2457 141.387C55.9264 141.63 55.607 141.857 55.2725 142.07C54.6034 142.509 53.919 142.919 53.2043 143.267C53.037 143.343 52.8698 143.434 52.7025 143.51C52.6265 143.54 52.5504 143.586 52.4592 143.616C52.2311 143.707 52.7177 143.51 52.5656 143.571C52.52 143.586 52.4592 143.616 52.4136 143.631C52.0638 143.768 51.6988 143.904 51.3339 144.01C50.9993 144.117 50.6495 144.192 50.2998 144.268C50.2085 144.283 50.1325 144.299 50.0413 144.314L49.9196 144.329C49.9196 144.329 50.2846 144.283 50.0869 144.298C49.9196 144.314 49.7371 144.329 49.5699 144.344C49.2353 144.359 48.9007 144.344 48.5662 144.329C48.4445 144.329 48.186 144.268 48.6422 144.329C48.5662 144.329 48.5054 144.314 48.4293 144.298C48.2621 144.268 48.0948 144.223 47.9275 144.177C47.7754 144.132 47.6386 144.086 47.5017 144.026C47.3192 143.965 47.8363 144.177 47.5625 144.056C47.4865 144.026 47.3953 143.98 47.3192 143.935C47.1824 143.859 47.0455 143.783 46.9238 143.707C46.863 143.662 46.787 143.616 46.7262 143.571C46.6501 143.51 46.5741 143.419 46.863 143.677C46.8174 143.646 46.7718 143.601 46.7414 143.571C46.4828 143.358 46.2851 143.116 46.057 142.858C46.1179 142.934 46.346 143.192 46.057 142.858C45.9962 142.782 45.9354 142.676 45.8746 142.585C45.7529 142.403 45.6617 142.206 45.5704 141.994C45.4792 141.781 45.6008 142.1 45.616 142.1C45.6008 142.07 45.5704 141.994 45.5704 141.963C45.5248 141.857 45.4944 141.751 45.464 141.66C45.4031 141.448 45.3423 141.236 45.2967 141.023C45.2815 140.932 45.2207 140.796 45.2359 140.705C45.2359 140.705 45.2815 141.054 45.2511 140.826C45.2511 140.781 45.2511 140.735 45.2359 140.675C45.2207 140.447 45.2055 140.235 45.2055 140.007C45.2055 139.552 45.2207 139.098 45.2663 138.643C45.2663 138.537 45.2967 138.446 45.2967 138.339C45.2663 138.749 45.2967 138.4 45.2967 138.294C45.3271 138.051 45.3727 137.809 45.4184 137.566C45.6008 136.656 45.8289 135.777 46.0723 134.882C46.5437 133.078 47.0607 131.289 47.6082 129.499C48.6879 125.951 49.9044 122.449 51.2426 118.991C51.5772 118.127 51.9269 117.263 52.2767 116.398C52.444 115.974 52.6265 115.549 52.7937 115.125C52.885 114.912 52.961 114.715 53.0523 114.503C53.0675 114.458 53.0979 114.412 53.1131 114.351C53.2043 114.154 53.0827 114.427 53.0675 114.442C53.1131 114.321 53.1739 114.2 53.2195 114.079C53.9495 112.38 54.6946 110.682 55.4854 109.014C57.0517 105.648 58.7245 102.327 60.4885 99.0519C62.2525 95.7767 64.1077 92.5621 66.0542 89.393C68.0007 86.224 70.0232 83.0852 72.1218 79.9919C74.2204 76.8987 76.4102 73.8357 78.6304 70.8335C79.7557 69.3171 80.8962 67.8008 82.0519 66.2997C82.1128 66.2087 82.1888 66.1329 82.2496 66.0419C82.2801 65.9964 82.3105 65.9509 82.3409 65.9206C82.4777 65.7538 82.3105 65.9661 82.2953 65.9813C82.4473 65.7841 82.5842 65.6022 82.7363 65.4051C83.0252 65.026 83.3293 64.6469 83.6183 64.2678C84.1961 63.5249 84.774 62.797 85.3671 62.0692C87.7394 59.1124 90.1421 56.1859 92.6056 53.305C95.0691 50.424 97.5326 47.5733 100.057 44.753C102.581 41.9327 105.121 39.1426 107.691 36.383C110.261 33.6233 112.861 30.8636 115.462 28.1343C116.709 26.8302 117.956 25.5262 119.218 24.2222C119.674 23.7521 119.72 22.9333 119.218 22.4633C118.686 21.9781 117.986 22.0235 117.454 22.4633C113.971 25.3897 110.519 28.3465 107.098 31.364C103.676 34.3814 100.361 37.3989 97.046 40.477C93.7309 43.5551 90.4766 46.6939 87.2375 49.8629C83.9984 53.032 80.7898 56.2921 77.6267 59.5521C74.4637 62.8122 71.3919 66.1026 68.3353 69.4384C65.2787 72.7743 62.2677 76.1557 59.3175 79.5674C56.3674 82.9791 53.402 86.4817 50.5127 89.9996C47.6234 93.5174 44.8101 97.0201 42.0424 100.583C39.2747 104.147 36.431 107.892 33.6938 111.607C30.9565 115.322 28.3561 118.946 25.7709 122.661C25.1475 123.555 24.524 124.465 23.9005 125.36L26.0751 125.648C26.0447 125.496 26.0295 125.345 25.9991 125.208C25.9686 125.026 26.0295 125.511 25.9991 125.239C25.9991 125.178 25.9838 125.102 25.9686 125.041C25.9382 124.753 25.923 124.45 25.9078 124.162C25.8926 123.586 25.9078 123.01 25.9534 122.449C25.9534 122.312 25.9838 122.191 25.9991 122.054C25.9991 122.009 25.999 121.948 26.0143 121.903C25.9686 122.176 26.0447 121.615 26.0143 121.903C26.0599 121.63 26.1055 121.326 26.1663 121.038C26.2728 120.492 26.4248 119.947 26.5921 119.401C26.7594 118.855 26.9571 118.324 27.1548 117.793C27.2004 117.672 27.2612 117.536 27.3068 117.414C27.4133 117.157 27.2004 117.657 27.3068 117.399C27.3221 117.354 27.3525 117.293 27.3677 117.248C27.4893 116.975 27.611 116.687 27.7479 116.414C28.2649 115.337 28.858 114.276 29.4814 113.26C30.7132 111.258 32.097 109.348 33.4809 107.452C34.8647 105.557 36.2942 103.616 37.7236 101.705C38.4384 100.765 39.1379 99.8252 39.8526 98.8851C40.2176 98.3999 40.5825 97.9298 40.9475 97.4446C41.13 97.2172 41.3125 96.9746 41.4797 96.7471C41.571 96.641 41.647 96.5197 41.7383 96.4135C41.571 96.6258 41.6774 96.4894 41.7079 96.4439C41.7839 96.3529 41.8447 96.2619 41.9207 96.1709C43.3654 94.3059 44.8253 92.456 46.3004 90.6212C49.2809 86.9063 52.3223 83.2368 55.4093 79.6129C58.4963 75.9889 61.6138 72.4559 64.8072 68.9532C68.0007 65.4506 71.255 61.9782 74.5549 58.5514C77.8548 55.1245 81.2156 51.7735 84.6219 48.4679C88.0283 45.1624 91.4803 41.9175 94.9779 38.7181C98.4755 35.5187 102.049 32.3648 105.653 29.2715C109.257 26.1782 112.922 23.1456 116.617 20.1585C117.515 19.4307 118.412 18.718 119.309 18.0053C119.507 17.8385 119.644 17.4595 119.644 17.2169C119.644 16.9742 119.552 16.7316 119.4 16.5345C119.035 16.0796 118.457 15.9886 117.94 16.2464C114.291 18.0205 110.732 20.0069 107.296 22.16C103.859 24.3132 100.544 26.618 97.3045 29.0592C94.0655 31.5005 90.8112 34.1237 87.6785 36.8075C84.5459 39.4914 81.5501 42.1753 78.5543 44.9349C75.5586 47.6946 72.5628 50.5453 69.5974 53.3808C66.6321 56.2163 63.6515 59.0669 60.6709 61.9024C57.6904 64.7379 54.6946 67.4976 51.638 70.2269C48.5814 72.9563 45.5096 75.6098 42.3313 78.1724C41.5406 78.8092 40.7346 79.4461 39.9286 80.0829C39.7309 80.2346 39.5333 80.3862 39.3508 80.5378C39.2595 80.6136 39.1531 80.6894 39.0618 80.7653C38.9402 80.8562 39.2747 80.6136 39.0618 80.7653C39.001 80.8107 38.9402 80.8562 38.8794 80.9017C38.4688 81.2201 38.0582 81.5234 37.6476 81.8418C36.0204 83.07 34.3781 84.2528 32.7053 85.4052C31.0326 86.5575 29.3446 87.6796 27.611 88.7562C26.7746 89.2869 25.923 89.8328 25.0562 90.3028C24.6304 90.5303 24.1894 90.7122 23.7636 90.9245C24.0373 90.788 23.6876 90.9548 23.6268 90.9852C23.5203 91.0307 23.4139 91.0761 23.2922 91.1065C23.0489 91.1974 22.8056 91.2733 22.5623 91.3491C22.3494 91.4097 22.1213 91.4704 21.8932 91.5159C21.7867 91.531 21.6803 91.5614 21.5586 91.5765C21.513 91.5765 21.4674 91.5765 21.4217 91.5917C21.513 91.5917 21.7107 91.531 21.4217 91.5917C21.2089 91.622 20.996 91.622 20.7831 91.6372C20.6766 91.6372 20.5702 91.6372 20.4637 91.6372C20.4029 91.6372 20.3421 91.6372 20.2812 91.6372C20.19 91.6372 20.0227 91.5765 20.3116 91.6372C20.1139 91.5917 19.9163 91.5614 19.7186 91.5159C19.6273 91.4855 19.5209 91.4552 19.4296 91.4249C19.2319 91.3491 19.6121 91.5159 19.4753 91.4552C19.4144 91.4249 19.3536 91.3946 19.2776 91.3642C19.1863 91.3187 19.0951 91.2733 19.019 91.2126C18.9886 91.1974 18.943 91.1671 18.9126 91.152L18.867 91.1216C18.7757 91.061 18.8062 91.0761 18.9278 91.1671C18.8822 91.0913 18.7605 91.0155 18.6845 90.9548C18.6085 90.879 18.5324 90.8032 18.4564 90.7122C18.426 90.6819 18.3347 90.5909 18.3195 90.5606C18.3195 90.6364 18.426 90.7122 18.3651 90.6061C18.3043 90.5151 18.2435 90.4241 18.1827 90.3332C18.1218 90.2422 18.0762 90.136 18.0306 90.0451C17.9241 89.8328 18.1066 90.2725 18.0306 90.0451C18.0154 89.9844 17.985 89.9237 17.9698 89.8631C17.8937 89.6508 17.8481 89.4385 17.8177 89.2262C17.8177 89.1959 17.7569 88.9988 17.8177 89.1656C17.8785 89.3324 17.8177 89.1353 17.8177 89.1049C17.8177 88.9685 17.8025 88.832 17.8025 88.6955C17.8025 88.4681 17.8025 88.2406 17.8329 87.998C17.8329 87.8919 17.8481 87.7858 17.8633 87.6796C17.8785 87.528 17.8177 87.9374 17.8633 87.7099C17.8633 87.6341 17.8785 87.5735 17.8937 87.4977C17.985 86.9973 18.1066 86.4969 18.2587 86.0117C18.578 84.9958 18.9886 84.0102 19.3992 83.0246C19.6273 82.4635 19.8706 81.9025 20.0987 81.3566C20.0227 81.5537 20.0987 81.3566 20.0987 81.3263C20.1292 81.2656 20.1596 81.1898 20.19 81.1292C20.2508 80.9927 20.2964 80.8714 20.3573 80.7349C20.4789 80.4468 20.6006 80.1587 20.7374 79.8555C21.6803 77.6872 22.6535 75.534 23.6572 73.396C25.6949 69.0897 27.8695 64.8289 30.1962 60.659C32.5228 56.4892 34.9712 52.3952 37.5563 48.377C40.1415 44.3587 42.6963 40.6135 45.5096 36.8985C45.6617 36.6862 45.8289 36.4891 45.981 36.2768C46.0114 36.2313 46.0418 36.201 46.0723 36.1555C46.0875 36.1252 46.2547 35.9281 46.1179 36.0949C46.2091 35.9736 46.3156 35.8523 46.4068 35.731C46.7262 35.3216 47.0607 34.9122 47.3953 34.5027C48.0948 33.6536 48.8095 32.8348 49.5546 32.0312C50.2998 31.2275 51.0297 30.4997 51.8205 29.787C52.2159 29.4383 52.6112 29.0895 53.0066 28.7559C53.2043 28.5892 53.402 28.4375 53.5997 28.2707C53.6453 28.2252 53.7062 28.1949 53.7518 28.1494C53.5997 28.2707 53.7366 28.1494 53.7822 28.1343C53.8886 28.0433 54.0103 27.9675 54.1167 27.8765C54.9683 27.2396 55.8655 26.6634 56.7932 26.1479C57.2494 25.8901 57.7208 25.6475 58.1922 25.4201C58.4355 25.3139 58.6636 25.1926 58.9069 25.0865C58.9069 25.0865 59.1502 24.9803 59.0286 25.041C58.9069 25.1017 59.1502 24.9955 59.1502 24.9955C59.3023 24.9349 59.4544 24.8742 59.6065 24.8136C60.6405 24.4193 61.7202 24.1009 62.7999 23.8431C63.3474 23.7218 63.91 23.6157 64.4727 23.5247C64.6096 23.5095 64.7464 23.4792 64.8681 23.464C64.8985 23.464 65.0506 23.4489 64.8681 23.464C64.9441 23.464 65.0353 23.4489 65.1114 23.4337C65.4003 23.4034 65.674 23.3731 65.963 23.3427C68.2136 23.1456 70.4794 23.2214 72.7301 23.4944C72.8061 23.4944 72.8669 23.5095 72.943 23.5247C72.9886 23.5247 73.1711 23.555 72.9886 23.5247C73.1255 23.5399 73.2623 23.5702 73.3992 23.5853C73.7033 23.6308 74.0075 23.6763 74.3116 23.7218C74.859 23.8128 75.4065 23.9189 75.9539 24.0402C77.1097 24.2828 78.2502 24.5709 79.3755 24.8894C81.5805 25.5262 83.7247 26.2995 85.8385 27.179C85.9753 27.2396 86.097 27.2851 86.2339 27.3458C86.4924 27.4519 86.0818 27.2851 86.3403 27.3913C86.3859 27.4064 86.4468 27.4368 86.4924 27.4519C86.7813 27.5732 87.0702 27.6945 87.3592 27.831C87.9066 28.0736 88.4541 28.3162 89.0015 28.5588C90.066 29.044 91.1305 29.5444 92.1798 30.0448C96.4682 32.0767 100.726 34.1995 105.167 35.9129C107.28 36.7317 109.455 37.4292 111.66 37.9903L111.903 36.2465C105.957 35.64 99.9962 35.0183 94.0502 34.4118C88.1043 33.8052 82.1432 33.1836 76.1973 32.577C70.7836 32.016 65.3547 31.5308 59.9714 30.8485C59.6825 30.8181 59.3936 30.7726 59.1046 30.7423C59.0742 30.7423 58.8157 30.6968 59.0438 30.7423C58.983 30.7423 58.9221 30.7271 58.8613 30.712C58.694 30.6968 58.542 30.6665 58.3747 30.6513C57.7664 30.5604 57.1733 30.4845 56.5651 30.3784C55.3941 30.1964 54.2232 29.9993 53.0523 29.7719C50.7408 29.317 48.4445 28.7863 46.2091 28.0736C45.099 27.7249 44.0041 27.3458 42.9244 26.9212C42.7875 26.8606 42.6507 26.8151 42.5138 26.7544C42.453 26.7241 42.377 26.6938 42.3161 26.6634C42.088 26.5725 42.4834 26.7393 42.2553 26.6331C41.9816 26.5118 41.7231 26.4057 41.4493 26.2844C40.9323 26.0418 40.4153 25.7992 39.8982 25.5414C38.8641 25.0107 37.8605 24.4496 36.8872 23.8128C36.4158 23.5095 35.9596 23.1911 35.5034 22.8575C35.3818 22.7665 35.2601 22.6907 35.1536 22.5997C35.0928 22.5543 35.032 22.5088 34.9712 22.4633C34.956 22.4481 34.7583 22.2965 34.9103 22.4178C34.6822 22.2358 34.4541 22.0539 34.226 21.8719C33.785 21.508 33.3592 21.1289 32.9486 20.7499L32.5685 22.1903C32.9486 22.1297 33.344 22.0842 33.7242 22.0235C33.7698 22.0235 34.0283 21.9781 33.8763 22.0084C33.9675 22.0084 34.0435 21.9781 34.1348 21.9781C34.3325 21.9477 34.5302 21.9326 34.7431 21.9022C35.5186 21.7961 36.2942 21.7051 37.0697 21.6141C38.6208 21.4322 40.1719 21.2806 41.7231 21.1441C44.8101 20.8712 47.9123 20.674 51.0145 20.5679C54.1167 20.4618 57.2494 20.4314 60.3668 20.4769C63.4842 20.5224 66.5712 20.6589 69.6735 20.8712C72.7757 21.0834 75.8931 21.3715 78.9801 21.7354C82.0672 22.0994 85.0021 22.5391 88.0739 23.0546C91.1457 23.5702 94.2023 24.1919 97.2437 24.8742C100.285 25.5565 103.281 26.3147 106.261 27.1638C109.242 28.013 112.238 28.9227 115.188 29.9235C118.138 30.9243 121.043 31.9857 123.917 33.1381C124.631 33.4262 125.331 33.7143 126.046 34.0024C126.395 34.1388 126.852 33.8507 126.928 33.502C127.019 33.0774 126.791 32.7742 126.426 32.6225L126.669 32.7287Z" fill="#231F20"/>
</g>
<defs>
<clipPath id="clip0_405_63">
<rect width="176.254" height="176.254" rx="88.1272" fill="white"/>
</clipPath>
</defs>
</svg>
