<svg width="446" height="176" viewBox="0 0 446 176" fill="none" xmlns="http://www.w3.org/2000/svg">
<path fill-rule="evenodd" clip-rule="evenodd" d="M295.987 132.153C288.034 134.754 279.874 141.393 289.083 154.496C295.351 163.414 289.45 161.248 277.426 156.832C263.808 151.832 242.335 143.948 221.785 146.013L73.2372 173.761C44.1923 179.186 16.2487 160.039 10.8234 130.994C5.39807 101.949 24.5455 74.0052 53.5904 68.5799L368.15 9.82323C397.195 4.39793 425.138 23.5454 430.564 52.5903C435.989 81.6351 416.841 109.579 387.797 115.004L295.987 132.153Z" fill="#111111"/>
<g clip-path="url(#clip0_405_215)">
<path d="M495.953 46.7227C475.848 49.6038 448.454 49.9242 432.547 64.6044C418.748 49.1353 395.928 42.2343 376.152 51.3024C371.74 53.343 367.882 55.9281 364.52 59.0185C356.907 55.0196 347.894 53.3873 339.283 54.1281C325.312 55.3405 313.898 62.3652 305.896 72.3392C293.7 49.015 273.062 30.1994 246.961 22.8738C216.901 14.4528 193.002 26.5563 177.137 47.2281C172.208 45.7675 167.051 44.9503 161.646 44.9303C99.0743 44.3544 65.399 116.167 77.9887 170.164C80.4639 180.791 97.2277 177.697 94.7341 166.973C84.5828 123.41 110.677 57.7423 164.457 62.0434C165.526 62.1398 166.555 62.2936 167.585 62.4474C160.824 75.7847 156.61 90.9367 155.386 105.769C153.463 128.484 158.825 155.31 182.138 165.067C202.351 173.514 222.989 163.982 228.196 142.491C235.875 110.88 220.374 71.7868 192.575 54.2356C201.827 43.4734 214.302 36.2465 229.807 37.0418C261.586 38.7357 285.46 62.9843 295.65 91.7905C291.08 106.91 292.378 123.962 301.29 137.662C305.756 144.561 316.248 143.462 317.408 134.591C319.295 120.083 317.879 105.303 313.662 91.3081C316.366 85.2931 320.645 79.9281 326.558 76.0516C334.235 70.9389 345.458 68.9503 354.317 72.6618C347.908 85.4822 347.033 101.098 352.37 114.93C354.13 119.444 359.815 120.411 363.761 118.809C379.215 112.514 385.899 94.8419 381.466 79.1878C380.551 75.9623 379.142 73.031 377.442 70.4052C379.354 68.891 381.399 67.5514 383.701 66.5126C399.054 59.6874 417.271 68.4154 424.521 82.5827C427.219 87.8182 436.029 89.4391 439.224 83.6308C449.337 65.0549 481.026 66.016 499.182 63.4062C510.036 61.838 506.845 45.0971 495.992 46.6653L495.953 46.7227ZM208.959 104.26C211.82 113.764 213.553 124.433 212.335 134.314C210.541 149.305 197.973 156.05 184.872 147.397C163.928 133.539 171.784 96.2948 179.215 77.03C180.389 74.0064 181.727 71.0518 183.227 68.166C195.903 75.8999 204.592 89.7431 208.901 104.221L208.959 104.26Z" fill="#F696AF"/>
</g>
<defs>
<clipPath id="clip0_405_215">
<rect x="0.611816" y="78.8818" width="427.922" height="107.319" rx="53.6596" transform="rotate(-10.5804 0.611816 78.8818)" fill="white"/>
</clipPath>
</defs>
</svg>
