<svg width="272" height="551" viewBox="0 0 272 551" fill="none" xmlns="http://www.w3.org/2000/svg">
<path fill-rule="evenodd" clip-rule="evenodd" d="M35.6983 513.443C37.2819 535.477 56.4282 552.056 78.4628 550.473L204.139 541.44C226.173 539.857 242.752 520.711 241.168 498.676L217.294 166.484C220.559 128.564 246.529 85.6119 259.667 63.8832C267.9 50.2658 271.094 44.9839 260.5 54.5004C225.831 83.3911 213.801 73.2563 209.663 60.2961L208.337 41.8542C206.754 19.8197 187.607 3.24086 165.573 4.82445L39.8971 13.8566C17.8625 15.4401 1.28374 34.5865 2.86732 56.621L35.6983 513.443Z" fill="#43CCFF"/>
<g clip-path="url(#clip0_405_131)">
<path d="M283.675 49.6549C285.602 49.1007 286.536 47.6239 286.794 45.9652C290.477 44.6901 291.795 40.1692 289.248 37.2146C294.957 37.4755 297.765 28.6004 291.756 26.707C278.579 22.5325 265.379 18.3551 252.202 14.1806C246.588 12.4095 242.71 19.2411 245.598 22.746C245.185 24.8685 245.963 27.1168 248.429 28.2251C246.667 28.9935 245.682 30.8746 245.531 32.8367C241.768 33.9809 239.401 39.36 243.473 42.4587C255.323 51.4187 269.487 53.6883 283.672 49.6787L283.675 49.6549Z" fill="#EEEEEE"/>
<path d="M249.923 225.078C249.506 223.407 249.036 221.777 248.516 220.165C251.772 222.654 255.056 225.122 258.369 227.545C263.029 230.959 268.394 226.103 266.741 221.038C263.949 212.375 255.231 206.903 248.665 201.194C240.88 194.438 233.119 187.685 225.334 180.929C224.017 178.371 222.441 177.278 219.283 176.88C213.774 176.185 211.378 182.938 215.034 186.467C213.752 188.601 213.721 191.52 216.132 193.636C217.805 195.104 219.528 196.553 221.204 197.997C226.737 203.092 231.459 208.882 234.847 215.494C233.091 214.693 231.331 213.915 229.598 213.117C223.162 210.203 218.963 220.352 225.375 223.263C231.037 225.813 236.722 228.366 242.38 230.94C245.941 232.549 250.9 229.188 249.923 225.078Z" fill="#EEEEEE"/>
<path d="M263.187 441.464C266.67 441.396 270.158 441.28 273.632 441.09C279.366 440.774 279.492 432.697 274.958 430.579C269.442 428.023 263.693 426.355 257.849 425.063C263.644 425.407 269.442 425.921 275.26 426.654C282.265 427.538 283.639 416.646 276.633 415.762C255.783 413.133 234.939 412.944 214.044 415.068C208.521 415.628 207.938 423.504 212.718 425.58C216.125 427.073 219.624 428.215 223.17 429.169C219.299 431.363 219.53 438.519 225.152 439.47L257.503 445.024C260.548 445.553 262.513 443.747 263.187 441.464Z" fill="#EEEEEE"/>
<path d="M219.089 521.02C217.546 515.655 214.732 511.193 211.189 507.339C205.448 497.386 199.686 487.406 193.945 477.453C192.381 474.743 188.343 472.518 185.534 475.281C182.068 478.661 181.47 482.258 184.237 486.327C185.215 487.755 186.482 488.423 187.771 488.537C188.523 489.84 189.255 491.116 190.007 492.419C186.552 491.886 183.188 494.265 183.607 498.401L184.08 502.882C184.563 507.654 189.722 508.449 192.771 506.273C196.361 508.61 199.777 511.167 202.6 514.229C204.739 517.93 206.878 521.63 208.993 525.328C212.536 531.476 221.052 527.839 219.089 521.02Z" fill="#EEEEEE"/>
<path d="M11.1323 192.378C11.1498 192.621 11.1673 192.865 11.2085 193.112C9.05924 190.642 6.88324 188.193 4.54973 185.846C0.742611 181.983 -5.61966 184.225 -5.21437 190.002C-4.70083 197.025 -3.61108 203.879 -1.76719 210.683C-0.0355453 217.038 4.50929 224.425 3.58049 231.024C2.57696 238.025 13.4533 239.396 14.4568 232.396C15.4693 225.324 12.567 219.642 10.3547 213.082C9.74247 211.241 9.2045 209.385 8.71703 207.511C10.6139 210.07 12.484 212.649 14.241 215.36C17.4115 220.253 24.5033 216.243 24.0051 211.203L21.9915 190.824C21.3087 183.804 10.4496 185.357 11.1293 192.401L11.1323 192.378Z" fill="#EEEEEE"/>
<path d="M61.1796 409.971C48.2402 413.099 35.3244 416.23 22.382 419.381C17.3036 420.625 16.7265 426.158 19.6474 428.821C16.4916 431.081 17.0364 436.9 20.8882 438.304C26.5858 440.375 32.4216 441.16 38.2877 441.513C29.8985 443.185 21.4827 444.685 13.005 445.911C6.02679 446.915 7.57451 457.789 14.5764 456.788C33.9639 453.99 53.0679 449.997 71.9359 444.814C76.4323 443.593 79.1259 436.009 73.2616 434.303C66.3733 432.298 59.2514 431.956 52.1412 431.711C58.8552 430.698 65.6666 430.059 72.5666 429.866C78.1839 429.705 78.5717 421.273 73.8923 419.354C73.1801 419.071 72.4857 418.839 71.7645 418.627C73.4068 418.23 75.0729 417.836 76.7182 417.416C81.5946 416.243 82.6879 411.017 79.281 407.616C75.5508 403.908 71.6608 402.233 66.4601 401.577C61.3782 400.936 59.278 406.494 61.1856 409.924L61.1796 409.971Z" fill="#EEEEEE"/>
<path d="M55.3723 310.448C56.5799 311.011 57.8202 311.505 59.0308 312.045C55.317 311.842 51.63 311.619 47.9161 311.416C40.9219 311.017 39.477 321.9 46.5425 322.308C72.174 323.753 97.8056 325.198 123.437 326.642C130.431 327.041 131.876 316.158 124.811 315.75C121.409 315.563 118.03 315.378 114.631 315.167C114.168 312.523 112.049 310.009 108.623 310.205C91.4286 311.105 75.1427 307.674 59.5921 300.325C53.1951 297.296 49.0197 307.448 55.3693 310.471L55.3723 310.448Z" fill="#EEEEEE"/>
<path d="M74.804 152.16C73.4231 166.361 73.5533 180.632 75.3968 194.709C71.8382 193.849 67.6582 196.004 68.8341 200.452C73.9723 219.776 79.9719 238.774 86.9694 257.511C89.4399 264.129 99.5367 259.821 97.0661 253.203C94.7968 247.095 92.6522 240.953 90.5581 234.794C90.5581 234.794 90.5818 234.797 90.6056 234.8C90.7626 235.086 90.9226 235.347 91.127 235.639C94.097 239.444 97.0907 243.253 100.061 247.058C104.524 252.791 112.252 246.228 108.727 240.323C107.53 238.336 106.484 236.295 105.492 234.213C107.07 231.271 105.718 226.873 102.157 226.037C98.8766 216.466 97.5001 206.339 98.1457 196.055C98.597 189.033 87.703 187.611 87.2694 194.684C87.1754 196.194 87.1082 197.683 87.0885 199.179C86.6023 196.339 86.1872 193.508 85.8702 190.666C84.3897 178.302 84.4768 165.943 85.6802 153.532C86.372 146.516 75.4988 145.12 74.804 152.16Z" fill="#EEEEEE"/>
<path d="M42.4061 62.6192C28.8366 75.5248 14.1053 86.931 -1.78799 96.8376C-7.78399 100.575 -1.00817 109.209 4.93434 105.513C10.1459 102.257 15.2123 98.8125 20.1987 95.2375C19.8807 95.4632 19.5597 95.7126 19.2418 95.9383C18.4424 96.5381 17.8982 97.2184 17.5678 97.9257C12.2767 102.96 6.75139 107.748 1.46058 112.589C-3.72025 117.324 2.9724 126.044 8.18298 121.265C14.5112 115.467 21.044 109.768 27.1855 103.729C38.2903 95.8279 55.9729 86.6543 56.8056 71.6349C57.0333 67.7255 53.7376 65.5462 50.7122 65.6237C49.7607 62.0729 45.7532 59.4172 42.4091 62.5954L42.4061 62.6192Z" fill="#EEEEEE"/>
<path d="M119.377 476.286C117.45 476.841 116.516 478.317 116.258 479.976C112.575 481.251 111.257 485.772 113.804 488.727C108.095 488.466 105.287 497.341 111.296 499.234C124.473 503.409 137.673 507.586 150.85 511.761C156.464 513.532 160.342 506.7 157.454 503.195C157.867 501.073 157.089 498.824 154.623 497.716C156.385 496.948 157.37 495.067 157.521 493.105C161.284 491.96 163.651 486.581 159.579 483.482C147.729 474.523 133.565 472.253 119.38 476.263L119.377 476.286Z" fill="#EEEEEE"/>
<path d="M121.417 401.961C116.608 403.746 117.568 409.521 120.968 411.641C119.289 412.71 117.821 414.022 116.818 415.853C112.807 423.175 121.994 433.539 128.967 427.025C131.375 424.768 131.165 421.649 129.725 419.486C131.359 418.774 133.013 418.089 134.644 417.4C138.467 415.781 142.267 414.158 146.09 412.538C150.141 410.826 150.216 405.834 147.277 403.12C140.039 396.433 129.716 398.9 121.417 401.961Z" fill="#EEEEEE"/>
<path d="M25.2688 348.86C15.8784 351.009 6.42906 352.862 -3.07631 354.393C-8.7154 355.301 -9.21569 363.476 -4.08151 365.042C-4.25998 365.309 -4.43847 365.577 -4.56945 365.85C-5.95604 365.941 -7.41941 365.684 -8.87625 364.993C-15.2436 361.919 -19.4189 372.071 -13.0991 375.139C-6.57158 378.282 1.54098 377.082 7.03628 372.533C13.0678 371.191 19.0166 369.55 24.8856 367.584C28.4617 366.392 28.8826 362.289 27.1998 359.565C33.5437 357.659 32.0073 347.269 25.2481 348.833L25.2688 348.86Z" fill="#EEEEEE"/>
<path d="M194.42 310.323C194.837 311.994 195.307 313.624 195.827 315.236C192.57 312.747 189.287 310.279 185.974 307.856C181.314 304.442 175.949 309.298 177.602 314.363C180.394 323.026 189.112 328.498 195.678 334.207C203.463 340.963 211.224 347.716 219.009 354.472C220.326 357.03 221.901 358.123 225.06 358.521C230.569 359.216 232.965 352.463 229.309 348.934C230.591 346.8 230.622 343.881 228.211 341.765C226.538 340.297 224.815 338.848 223.139 337.404C217.606 332.309 212.884 326.519 209.496 319.907C211.252 320.708 213.012 321.486 214.745 322.284C221.181 325.198 225.38 315.049 218.968 312.138L201.963 304.461C198.402 302.852 193.443 306.213 194.42 310.323Z" fill="#EEEEEE"/>
<path d="M158.847 196.221C160.055 203.67 159.305 210.002 156.383 216.906C154.796 220.692 158.131 224.857 161.914 224.513C162.595 232.886 160.83 240.757 156.082 248.373C152.363 254.33 161.045 261.054 164.793 255.052C172.323 242.979 174.907 229.945 171.719 216.013C171.379 214.496 170.461 213.172 169.292 212.3C170.523 206.56 170.679 200.733 169.71 194.643C168.584 187.688 157.728 189.218 158.847 196.221Z" fill="#EEEEEE"/>
<path d="M136.519 103.166C133.036 103.234 129.547 103.35 126.074 103.54C120.34 103.856 120.214 111.934 124.748 114.052C130.264 116.608 136.012 118.275 141.857 119.568C136.062 119.223 130.264 118.71 124.446 117.976C117.441 117.092 116.067 127.985 123.072 128.868C143.922 131.498 164.767 131.686 185.662 129.562C191.184 129.002 191.768 121.127 186.987 119.05C183.581 117.557 180.082 116.416 176.535 115.461C180.407 113.267 180.175 106.111 174.554 105.16L142.203 99.6065C139.157 99.0775 137.193 100.883 136.519 103.166Z" fill="#EEEEEE"/>
<path d="M-11.2367 483.564C-11.8541 483.486 -12.4715 483.409 -13.1127 483.328C-14.7215 483.077 -15.9987 483.447 -16.9793 484.145L-21.2356 483.27C-28.1513 481.866 -29.5012 492.761 -22.6093 494.162L35.1058 505.959C41.6208 507.288 43.0547 498.022 37.705 495.487C38.4239 492.847 37.5165 489.713 34.6585 488.845C21.8912 485.061 9.12389 481.276 -3.64043 477.468C-8.05944 476.161 -11.4045 480.112 -11.2337 483.541L-11.2367 483.564Z" fill="#EEEEEE"/>
<path d="M31.2889 5.96218C27.9467 12.378 22.3889 17.0407 15.7352 19.6807C9.15877 22.2821 13.4597 32.3678 20.0331 29.7902C20.2381 29.6953 20.443 29.6003 20.648 29.5053C21.2365 33.6385 27.1379 36.5813 30.4744 32.315C33.6088 28.3131 36.7194 24.3083 39.8567 20.2826C41.7569 17.8404 41.1724 15.2057 39.5566 13.4798C40.22 12.428 40.8656 11.3255 41.443 10.1903C44.7198 3.91118 34.5567 -0.245628 31.3127 5.96518L31.2889 5.96218Z" fill="#EEEEEE"/>
<path d="M81.1779 -10.0949C76.9674 -9.61113 75.2627 -4.51085 77.6307 -1.2888C92.5945 19.1294 112.876 34.2989 136.727 42.7912C140.929 44.2876 144.172 40.7585 144.286 37.3663C146.261 35.1026 146.693 31.2915 143.822 29.1898C136.421 23.7868 129.021 18.3838 121.62 12.9809C118.519 9.83545 115.64 6.45239 112.943 2.77813C111.008 0.14218 108.134 0.166299 106.01 1.51711C98.58 -4.2278 90.9678 -11.2037 81.1779 -10.0949Z" fill="#EEEEEE"/>
<path d="M183.965 4.89812C185.508 10.263 188.323 14.7253 191.866 18.5787C197.607 28.532 203.369 38.512 209.11 48.4653C210.674 51.1752 214.712 53.3998 217.521 50.6374C220.987 47.2572 221.585 43.6603 218.817 39.5906C217.839 38.1626 216.573 37.4954 215.284 37.3813C214.532 36.0784 213.8 34.8022 213.048 33.4993C216.503 34.0317 219.867 31.6534 219.447 27.5174L218.975 23.0365C218.491 18.2642 213.332 17.4686 210.284 19.6451C206.694 17.3079 203.277 14.7509 200.455 11.689C198.316 7.98846 196.177 4.28796 194.062 0.590445C190.519 -5.55822 182.003 -1.92101 183.965 4.89812Z" fill="#EEEEEE"/>
</g>
<defs>
<clipPath id="clip0_405_131">
<rect x="244.036" y="538.573" width="206" height="538" rx="40" transform="rotate(175.889 244.036 538.573)" fill="white"/>
</clipPath>
</defs>
</svg>
