<svg width="100" height="17" viewBox="0 0 100 17" fill="none" xmlns="http://www.w3.org/2000/svg">
<path d="M0 16.7135V0H6.48028V13.5618H20.5209V16.7135H0Z" fill="#0055FF"/>
<path d="M36.2307 17C28.2703 17 23.5501 14.2781 23.5501 9.35955V0H30.0304V9.21629C30.0304 12.3919 32.3505 13.7051 36.2706 13.7051C40.2308 13.7051 42.5109 12.3919 42.5109 9.21629V0H48.9112V9.35955C48.9112 14.2781 44.191 17 36.2307 17Z" fill="#0055FF"/>
<path d="M86.8763 16.7135H80.796L80.756 6.68539L72.5157 14.9466H69.5955L61.3952 6.90028V16.7135H55.3149V0H60.6752L71.1556 10.3862L81.4761 0H86.7963L86.8763 16.7135Z" fill="#0055FF"/>
<path d="M93.5197 16.7135V0H100V16.7135H93.5197Z" fill="#0055FF"/>
</svg>
