<svg width="357" height="95" viewBox="0 0 357 95" fill="none" xmlns="http://www.w3.org/2000/svg">
<g clip-path="url(#clip0_418_64)">
<path d="M349.209 69.6545C349.21 70.7717 349.244 71.8888 349.301 73.0059C349.379 78.5676 349.552 84.1212 349.846 89.6827C349.878 90.353 350.23 90.7915 350.685 91.0064C350.685 91.3017 350.685 91.6049 350.686 91.9002C350.704 93.895 353.96 93.8995 353.941 91.8966C353.773 76.2407 354.011 60.5924 354.64 44.9516C356.112 33.7785 357.584 22.5894 356.598 11.2993C356.429 9.31255 353.5 9.29979 353.343 11.3029C353.248 12.5318 353.17 13.7608 353.083 14.9897C352.709 15.2375 352.422 15.6209 352.35 16.1476C350.31 32.9709 349.275 49.8809 349.254 66.7978C349.223 67.7474 349.208 68.697 349.201 69.6466L349.209 69.6545Z" fill="#75DBD4"/>
<path d="M334.844 89.9544C334.949 90.8241 335.556 91.3341 336.234 91.461C336.219 91.6526 336.211 91.8521 336.195 92.0436C336.054 94.1025 339.413 94.0908 339.554 92.0399C341.479 64.2447 342.262 36.3949 341.905 8.53837C341.879 6.47964 338.599 6.48323 338.545 8.54204C338.187 24.1985 337.622 39.8472 336.857 55.4881C336.339 55.5845 335.9 55.936 335.789 56.6144C333.91 67.6683 333.555 78.8162 334.844 89.9544Z" fill="#75DBD4"/>
<path d="M311.983 69.0569C311.902 74.7705 311.733 80.4841 311.468 86.1898C311.405 87.5943 312.89 88.0555 313.935 87.5995C313.991 88.1341 314.048 88.6686 314.112 89.2032C314.338 91.2936 317.793 91.3058 317.567 89.1994C316.834 82.4894 316.108 75.7713 315.439 69.0452C315.751 47.795 314.818 26.5383 312.632 5.37867C312.414 3.29622 309.262 3.22786 309.177 5.38245C308.362 26.6571 309.886 47.8813 311.983 69.049L311.983 69.0569Z" fill="#75DBD4"/>
<path d="M297.233 87.1391L297.234 88.8627C297.237 90.9853 300.692 90.9815 300.69 88.8589C300.642 60.3637 300.595 31.8684 300.548 3.37315C300.546 1.25056 297.099 1.25434 297.093 3.37693C297.043 30.9945 297.002 58.6121 296.952 86.2297C296.953 86.6048 297.065 86.8999 297.233 87.1471L297.233 87.1391Z" fill="#75DBD4"/>
<path d="M273.955 86.0794C273.971 86.4066 274.075 86.6777 274.219 86.901C274.236 87.5633 274.252 88.2256 274.261 88.8879C274.303 91.0025 277.759 91.0067 277.716 88.8841C277.184 61.3869 275.829 33.9144 273.644 6.49078C273.474 4.4003 270.091 4.35613 270.189 6.49456L273.947 86.0794L273.955 86.0794Z" fill="#75DBD4"/>
<path d="M260.99 88.0247C260.989 86.7719 261.019 85.5271 261.026 84.2743C262.008 84.5046 263.22 83.9926 263.251 82.7397C263.854 58.2575 264.466 33.7833 265.069 9.30108C265.123 7.14652 261.827 7.22992 261.614 9.30486C259.002 35.473 257.642 61.7355 257.527 88.0285C257.521 90.1511 260.969 90.1473 260.982 88.0247L260.99 88.0247Z" fill="#75DBD4"/>
<path d="M228.574 92.4569C228.576 94.5795 232.031 94.5757 232.029 92.4531C232.024 88.0324 232.259 83.6034 232.629 79.1823C232.864 81.9909 233.122 84.7914 233.404 87.592C233.614 89.6824 237.069 89.7026 236.859 87.5882C235.94 78.4445 235.259 69.2926 234.803 60.1245C237.01 42.7584 239.066 25.4084 234.642 8.16127C234.169 6.30252 231.337 6.79239 231.251 8.60386C230.456 25.8886 230.499 43.1964 231.364 60.4634C229.979 71.1417 228.546 81.82 228.574 92.4569Z" fill="#75DBD4"/>
<path d="M187.824 87.0913C187.769 88.0569 187.579 88.9509 187.053 89.4302C185.45 90.9082 187.895 93.2356 189.497 91.7576C191.314 90.0799 191.136 87.8857 191.166 85.6114C191.202 81.8849 191.246 78.1663 191.281 74.4398C191.361 66.9947 191.433 59.5496 191.512 52.1045C191.664 37.2144 191.815 22.3242 191.966 7.42601C191.988 5.30339 188.58 5.3151 188.511 7.42979C187.733 33.4523 186.964 59.4747 186.186 85.5052C186.156 86.5505 186.97 87.0763 187.824 87.0913Z" fill="#75DBD4"/>
<path d="M187.824 87.0913C187.769 88.0569 187.579 88.9509 187.053 89.4302C185.45 90.9082 187.895 93.2356 189.497 91.7576C191.314 90.0799 191.136 87.8857 191.166 85.6114C191.202 81.8849 191.246 78.1663 191.281 74.4398C191.361 66.9947 191.433 59.5496 191.512 52.1045C191.664 37.2144 191.815 22.3242 191.966 7.42601C191.988 5.30339 188.58 5.3151 188.511 7.42979C187.733 33.4523 186.964 59.4747 186.186 85.5052C186.156 86.5505 186.97 87.0763 187.824 87.0913Z" fill="#75DBD4"/>
<path d="M170.302 87.733C170.326 88.3474 170.638 88.778 171.061 89.0329C171.061 89.1845 171.061 89.3281 171.062 89.4797C171.08 91.6023 174.527 91.5985 174.517 89.4759C174.328 63.255 174.132 37.0341 173.944 10.8132C173.926 8.6827 170.582 8.70232 170.489 10.817C169.384 36.4409 169.324 62.1035 170.302 87.733Z" fill="#75DBD4"/>
<path d="M147.706 90.75C148.328 90.5498 148.83 90.0546 148.862 89.2566C149.349 75.0124 149.844 60.7682 150.331 46.516C150.803 32.7665 151.889 18.8728 149.727 5.20603C149.43 3.31518 146.382 3.86113 146.336 5.64862C145.641 34.017 144.946 62.3774 144.259 90.7458C144.205 92.8685 147.653 92.8647 147.714 90.742L147.706 90.75Z" fill="#75DBD4"/>
<path d="M134.723 89.8784C134.722 89.8225 134.722 89.7667 134.722 89.7188C134.826 89.5192 134.881 89.2797 134.889 89.0084L135.544 1.83007C135.557 -0.292522 132.11 -0.288749 132.089 1.83386C131.817 31.1833 131.538 60.5327 131.267 89.8822C131.246 92.0048 134.701 92.001 134.723 89.8784Z" fill="#75DBD4"/>
<path d="M106.705 89.0234C106.819 91.1299 110.267 91.1421 110.16 89.0196C109.843 82.9634 109.621 76.9151 109.494 70.8587C109.837 70.595 110.092 70.2117 110.155 69.7009C112.686 49.1665 113.142 28.4748 111.524 7.85717C111.354 5.73478 108.258 5.74614 108.069 7.86095C105.736 34.8586 105.279 61.974 106.705 89.0314L106.705 89.0234Z" fill="#75DBD4"/>
<path d="M89.3661 67.7126C89.1651 73.6497 88.8364 79.5869 88.3562 85.5243C88.2617 86.6735 89.2438 87.199 90.1852 87.0943C90.2671 88.9295 90.3409 90.7727 90.4227 92.608C90.5128 94.7225 93.968 94.7426 93.8779 92.6201C93.5257 84.3217 93.1735 76.0232 92.8213 67.7248C93.4625 48.5171 92.6515 29.295 90.3803 10.1783C90.1387 8.12778 86.835 7.99574 86.9251 10.1661C87.7361 29.3483 88.5551 48.5304 89.3661 67.7126Z" fill="#75DBD4"/>
<path d="M64.359 90.6817C65.3889 91.1434 66.8966 90.6789 66.8711 89.2666C66.4197 63.2534 65.9683 37.2403 65.5249 11.2271C65.4906 9.10459 62.0913 9.10831 62.0697 11.2309C61.8031 37.3885 61.5285 63.5381 61.2619 89.6956C61.2478 91.4033 63.4824 91.736 64.3591 90.6897L64.359 90.6817Z" fill="#75DBD4"/>
<path d="M45.6244 92.7927C45.6746 94.9072 49.1218 94.9115 49.0796 92.7889C49.0378 91.0654 49.012 89.3498 48.9782 87.6262C49.0339 87.4586 49.0736 87.283 49.0733 87.0835C49.1003 60.6549 49.1352 34.2183 49.1621 7.78967C49.1598 5.66708 45.7605 5.6708 45.7069 7.79345C45.0198 36.1219 44.9949 64.4657 45.6244 92.8007L45.6244 92.7927Z" fill="#75DBD4"/>
<path d="M15.0714 13.4608C16.2569 39.4572 17.4424 65.4456 18.6279 91.442C18.726 93.5565 22.0056 93.5609 22.0831 91.4382C23.0592 64.6654 22.3516 37.8706 19.9684 11.1733C19.7826 9.07483 16.3274 9.06265 16.5132 11.1771C16.5374 11.4084 16.5536 11.6478 16.5699 11.8792C15.764 11.9359 15.0145 12.4554 15.0634 13.4608L15.0714 13.4608Z" fill="#75DBD4"/>
<path d="M1.70517 93.3276C2.16195 95.0985 5.22577 94.768 5.09604 92.885C4.41534 83.374 3.99795 73.8547 3.81197 64.3272C3.9187 59.7787 4.02544 55.2382 4.14016 50.6897C4.47591 36.6611 4.81168 22.6405 5.13945 8.61192C5.19299 6.48927 1.73779 6.49305 1.68426 8.6157L1.21145 28.6451C0.956379 28.9007 0.781206 29.252 0.757756 29.6989C0.259691 41.238 0.136694 52.7927 0.356796 64.331C0.288158 67.2357 0.219506 70.1404 0.150877 73.053C-0.0092269 79.8758 -0.0257216 86.6665 1.70517 93.3276Z" fill="#75DBD4"/>
</g>
<defs>
<clipPath id="clip0_418_64">
<rect width="356.848" height="94.0908" fill="white" transform="translate(357 94.1037) rotate(179.937)"/>
</clipPath>
</defs>
</svg>
