<svg width="10" height="87" viewBox="0 0 10 87" fill="none" xmlns="http://www.w3.org/2000/svg">
<path d="M1.41694 84.6011C1.44105 84.7449 1.45719 84.8966 1.4813 85.0403C1.59388 85.7508 2.04943 86.1097 2.59253 86.2049C3.34455 87.4817 5.85165 87.2235 5.83369 85.4108C5.79756 81.5779 5.80134 77.737 5.8211 73.904C7.81504 49.8421 8.93853 25.7253 9.19159 1.58546C9.21319 -0.562607 5.92332 -0.495124 5.73396 1.58925C4.20374 18.8791 3.1926 36.2003 2.70052 53.5369C1.75809 53.3862 0.608764 53.9065 0.498264 55.0885C-0.40924 64.9593 -0.0630842 74.8048 1.42492 84.6011L1.41694 84.6011Z" fill="#75DBD4"/>
</svg>
