<svg width="426" height="129" viewBox="0 0 426 129" fill="none" xmlns="http://www.w3.org/2000/svg">
<path d="M413.346 82.3569C408.473 84.3303 406.135 82.1248 406.369 75.7017C406.369 72.7611 406.641 69.8204 407.226 66.9184C408.59 58.5608 396.039 54.7688 394.207 63.3587C392.687 70.3234 390.66 77.0173 387.542 83.479C385.476 87.7353 380.643 98.9175 375.965 100.891C369.3 103.715 368.676 89.5151 367.702 85.375C365.714 76.9786 363.726 68.5435 361.738 60.1472C360.413 54.5367 352.149 53.5694 349.382 58.5608C345.562 65.4094 341.508 72.0646 337.026 78.5263C334.96 81.5057 332.777 84.4077 330.555 87.2709C327.749 90.8694 325.761 96.0929 321.317 94.4678C319.212 93.694 317.77 91.1789 316.757 88.0835C316.835 87.9287 316.874 87.7353 316.951 87.5805C322.019 73.2254 321.824 57.7095 317.107 43.3544C315.119 37.2409 305.882 36.7379 304.089 43.3544C300.658 55.9683 299.762 68.8144 301.906 81.7379C302.179 83.2856 302.451 84.9881 302.841 86.7679C301.204 90.5985 299.099 94.2744 296.527 97.718C292.629 102.864 286.626 110.487 279.493 101.703C278.596 100.581 277.895 99.1884 277.31 97.718C284.015 83.2856 284.872 66.7637 278.635 52.0216C276.063 45.9081 268.072 45.4825 265.617 52.0216C260.354 66.0672 259.029 81.5831 262.927 96.0929C261.563 98.3371 260.043 100.465 258.289 102.439C256.496 104.412 254.469 106.501 252.169 107.856C247.569 110.564 247.063 110.758 244.88 105.844C244.646 105.302 244.412 104.721 244.217 104.141C247.881 98.9562 250.844 93.4231 253.104 88.5091C262.498 68.2727 264.603 45.9855 260.043 24.2401C258.795 18.2814 250.649 18.0879 247.686 22.6537C236.85 39.369 230.419 58.2899 229.211 78.1781C228.86 83.9434 228.431 93.1136 229.639 101.742C225.157 106.811 219.895 110.138 214.126 109.326C206.915 108.359 203.173 102.052 201.263 94.7774C217.556 72.9932 222.428 44.4378 214.827 18.3201C213.268 12.9804 205.278 11.4714 202.471 16.7336C191.206 37.8987 183.722 63.1652 186.256 87.3096C186.412 88.9734 186.685 90.6759 187.036 92.3784C181.618 98.105 174.913 102.477 166.806 104.605C152.89 108.281 146.147 98.2984 142.717 86.5358C152.267 69.6269 158.152 50.7835 159.79 31.3983C160.569 22.0733 161.232 9.57544 152.656 3.22979C143.263 -3.73495 134.648 4.15842 131.569 13.2126C124.397 34.2616 122.253 61.8497 128.1 84.9107C122.292 94.3131 115.198 103.019 106.856 110.022C83.4303 129.678 75.2837 92.4558 74.6211 76.2048C74.6211 75.5083 74.6211 74.8118 74.5821 74.1153C89.7448 59.1798 102.686 38.5178 99.8403 17.4688C98.632 9.49805 92.8241 -0.484735 83.4303 0.0182734C71.3079 0.676054 68.4625 18.3587 66.2017 27.2194C62.7716 40.6846 60.9396 54.6528 60.8616 68.5435C47.8817 80.1514 22.3897 98.7628 12.645 82.2795C8.24044 74.8505 -3.45316 81.5831 0.99041 89.0508C15.2566 113.157 44.2178 98.105 61.4853 85.2589C62.4208 96.596 64.9154 108.126 71.9706 116.987C78.441 125.113 88.9263 130.568 99.5285 128.595C112.586 126.157 122.799 114.124 130.594 104.335C131.608 103.058 132.582 101.781 133.557 100.504C145.952 125.267 173.081 120.973 191.206 105.611C195.377 114.279 202.12 121.359 212.177 122.714C220.401 123.836 227.612 120.74 233.771 115.672C235.837 119.386 238.721 122.249 242.775 123.488C252.481 126.544 262.381 118.844 269.32 110.332C274.465 117.374 282.144 121.746 291.81 118.38C298.865 115.942 304.556 110.371 308.922 103.832C310.637 106.54 312.742 108.784 315.431 110.177C325.176 115.362 332.777 105.882 338.234 99.111C343.223 92.9201 347.823 86.4971 352.149 79.8419C353.864 88.1222 355.696 96.4412 358.347 104.296C360.764 111.493 366.182 117.142 374.328 116.213C385.281 114.936 393.389 103.948 398.924 91.8754C399.859 92.804 400.951 93.6166 402.198 94.3518C410.111 99.0336 420.479 97.1763 424.961 89.0508C429.132 81.467 417.438 74.6957 413.307 82.2795L413.346 82.3569ZM75.9854 47.0689C77.1157 39.2143 78.2461 25.7104 82.8066 18.9004C86.1588 13.8704 86.0808 16.0759 86.5096 20.2934C86.7825 22.8084 86.2757 25.8265 85.847 28.3028C85.0284 33.0234 83.5472 37.7439 81.5203 42.0775C79.8053 45.7921 77.6614 49.3518 75.3227 52.6794C75.5176 50.8222 75.7125 48.9262 75.9854 47.0689ZM139.754 39.0982C140.417 33.6038 141.509 28.1481 142.873 22.7697C144.081 18.0492 144.978 14.5281 146.615 20.8351C148.408 27.7224 145.523 38.5952 144.042 45.4051C142.795 51.2091 141.119 56.9356 139.053 62.5074C138.624 54.7301 138.819 46.8368 139.754 39.0982ZM204.342 47.2237C203.913 55.0397 202.432 63.0104 199.86 70.4395C200.561 62.5074 202.081 54.7688 204.342 47.2237ZM244.1 67.1119C245.153 61.2306 246.79 55.5427 248.895 50.0483C248.583 57.9417 247.18 65.7963 244.685 73.4575C244.1 75.1987 243.36 77.3268 242.424 79.6484C242.814 75.1213 243.477 70.7877 244.139 67.1119H244.1Z" fill="#FEDE93"/>
</svg>
